<svg width="16" height="16" viewBox="0 0 16 16" fill="none" xmlns="http://www.w3.org/2000/svg">
<mask id="mask0_4066_955" style="mask-type:alpha" maskUnits="userSpaceOnUse" x="0" y="0" width="16" height="16">
<rect width="16" height="16" fill="#D9D9D9"/>
</mask>
<g mask="url(#mask0_4066_955)">
<path d="M7.99996 5.33332C7.87241 5.33332 7.75282 5.35029 7.64121 5.38421C7.52961 5.41814 7.42597 5.47582 7.3303 5.55724L2.92971 9.30279C2.75432 9.45207 2.66663 9.64206 2.66663 9.87276C2.66663 10.1035 2.75432 10.2935 2.92971 10.4427C3.10509 10.592 3.32831 10.6667 3.59936 10.6667C3.87041 10.6667 4.09363 10.592 4.26902 10.4427L7.99996 7.26717L11.7309 10.4427C11.9063 10.592 12.1295 10.6667 12.4006 10.6667C12.6716 10.6667 12.8948 10.592 13.0702 10.4427C13.2456 10.2935 13.3333 10.1035 13.3333 9.87276C13.3333 9.64206 13.2456 9.45207 13.0702 9.30279L8.66962 5.55724C8.57395 5.47582 8.47031 5.41814 8.3587 5.38421C8.24709 5.35029 8.12751 5.33332 7.99996 5.33332Z" fill="#212121"/>
</g>
</svg>
