<svg width="36" height="36" viewBox="0 0 36 36" fill="none" xmlns="http://www.w3.org/2000/svg">
<path d="M18 31.4625L16.4625 30.075C12.3875 26.35 9.125 23.1 6.675 20.325C4.225 17.55 3 14.7375 3 11.8875C3 9.63751 3.75625 7.75626 5.26875 6.24376C6.78125 4.73126 8.65 3.97501 10.875 3.97501C12.15 3.97501 13.4125 4.28126 14.6625 4.89376C15.9125 5.50626 17.025 6.51251 18 7.91251C19.1 6.51251 20.2375 5.50626 21.4125 4.89376C22.5875 4.28126 23.825 3.97501 25.125 3.97501C27.35 3.97501 29.2187 4.73126 30.7312 6.24376C32.2437 7.75626 33 9.63751 33 11.8875C33 14.7375 31.775 17.55 29.325 20.325C26.875 23.1 23.6125 26.35 19.5375 30.075L18 31.4625ZM18 28.5C21.8 25 24.875 21.9625 27.225 19.3875C29.575 16.8125 30.75 14.3125 30.75 11.8875C30.75 10.2375 30.2187 8.88126 29.1562 7.81876C28.0938 6.75626 26.75 6.22501 25.125 6.22501C23.875 6.22501 22.7 6.61251 21.6 7.38751C20.5 8.16251 19.6 9.27501 18.9 10.725H17.0625C16.3875 9.27501 15.4937 8.16251 14.3812 7.38751C13.2687 6.61251 12.1 6.22501 10.875 6.22501C9.225 6.22501 7.875 6.75626 6.825 7.81876C5.775 8.88126 5.25 10.2375 5.25 11.8875C5.25 14.3125 6.425 16.8125 8.775 19.3875C11.125 21.9625 14.2 25 18 28.5Z" fill="#212121"/>
</svg>
