<svg width="16" height="16" viewBox="0 0 16 16" fill="none" xmlns="http://www.w3.org/2000/svg">
<path d="M8.00004 14.6667C7.06671 14.6667 6.19448 14.4917 5.38337 14.1417C4.57226 13.7917 3.86671 13.3167 3.26671 12.7167C2.66671 12.1167 2.19449 11.4083 1.85004 10.5917C1.5056 9.77501 1.33337 8.90001 1.33337 7.96668C1.33337 7.03334 1.5056 6.1639 1.85004 5.35834C2.19449 4.55279 2.66671 3.85001 3.26671 3.25001C3.86671 2.65001 4.57226 2.18057 5.38337 1.84168C6.19448 1.50279 7.06671 1.33334 8.00004 1.33334C8.93337 1.33334 9.8056 1.50279 10.6167 1.84168C11.4278 2.18057 12.1334 2.65001 12.7334 3.25001C13.3334 3.85001 13.8056 4.55279 14.15 5.35834C14.4945 6.1639 14.6667 7.03334 14.6667 7.96668C14.6667 8.90001 14.4945 9.77501 14.15 10.5917C13.8056 11.4083 13.3334 12.1167 12.7334 12.7167C12.1334 13.3167 11.4278 13.7917 10.6167 14.1417C9.8056 14.4917 8.93337 14.6667 8.00004 14.6667ZM10.6334 5.50001H13.1334C12.7667 4.73334 12.2639 4.09445 11.625 3.58334C10.9862 3.07223 10.25 2.71112 9.41671 2.50001C9.69448 2.91112 9.9306 3.35557 10.125 3.83334C10.3195 4.31112 10.4889 4.86668 10.6334 5.50001ZM6.40004 5.50001H9.63337C9.51115 4.91112 9.3056 4.34168 9.01671 3.79168C8.72782 3.24168 8.38893 2.75557 8.00004 2.33334C7.64448 2.63334 7.34448 3.02779 7.10004 3.51668C6.8556 4.00557 6.62226 4.66668 6.40004 5.50001ZM2.53337 9.48334H5.18337C5.15004 9.18334 5.1306 8.9139 5.12504 8.67501C5.11948 8.43612 5.11671 8.20001 5.11671 7.96668C5.11671 7.6889 5.12226 7.44168 5.13337 7.22501C5.14448 7.00834 5.16671 6.76668 5.20004 6.50001H2.53337C2.4556 6.76668 2.40282 7.00557 2.37504 7.21668C2.34726 7.42779 2.33337 7.67779 2.33337 7.96668C2.33337 8.25557 2.34726 8.5139 2.37504 8.74168C2.40282 8.96945 2.4556 9.21668 2.53337 9.48334ZM6.58337 13.5C6.3056 13.0778 6.06671 12.6222 5.86671 12.1333C5.66671 11.6445 5.50004 11.0945 5.36671 10.4833H2.86671C3.28893 11.2722 3.77782 11.8917 4.33337 12.3417C4.88893 12.7917 5.63893 13.1778 6.58337 13.5ZM2.86671 5.50001H5.38337C5.5056 4.90001 5.66115 4.3639 5.85004 3.89168C6.03893 3.41945 6.27782 2.96112 6.56671 2.51668C5.73337 2.72779 5.0056 3.08334 4.38337 3.58334C3.76115 4.08334 3.2556 4.72223 2.86671 5.50001ZM8.00004 13.7C8.38893 13.3 8.71393 12.8417 8.97504 12.325C9.23615 11.8083 9.45004 11.1945 9.61671 10.4833H6.40004C6.5556 11.15 6.76393 11.75 7.02504 12.2833C7.28615 12.8167 7.61115 13.2889 8.00004 13.7ZM6.21671 9.48334H9.80004C9.84448 9.1389 9.87226 8.85834 9.88337 8.64168C9.89448 8.42501 9.90004 8.20001 9.90004 7.96668C9.90004 7.74445 9.89448 7.53057 9.88337 7.32501C9.87226 7.11945 9.84448 6.84445 9.80004 6.50001H6.21671C6.17226 6.84445 6.14448 7.11945 6.13337 7.32501C6.12226 7.53057 6.11671 7.74445 6.11671 7.96668C6.11671 8.20001 6.12226 8.42501 6.13337 8.64168C6.14448 8.85834 6.17226 9.1389 6.21671 9.48334ZM9.43337 13.4833C10.2334 13.2278 10.9528 12.8445 11.5917 12.3333C12.2306 11.8222 12.7445 11.2056 13.1334 10.4833H10.65C10.5056 11.0833 10.3362 11.6278 10.1417 12.1167C9.94726 12.6056 9.71115 13.0611 9.43337 13.4833ZM10.8 9.48334H13.4667C13.5445 9.21668 13.5973 8.96945 13.625 8.74168C13.6528 8.5139 13.6667 8.25557 13.6667 7.96668C13.6667 7.67779 13.6528 7.42779 13.625 7.21668C13.5973 7.00557 13.5445 6.76668 13.4667 6.50001H10.8167C10.85 6.8889 10.8723 7.18612 10.8834 7.39168C10.8945 7.59723 10.9 7.7889 10.9 7.96668C10.9 8.21112 10.8917 8.44168 10.875 8.65834C10.8584 8.87501 10.8334 9.15001 10.8 9.48334Z" fill="#212121"/>
</svg>
