<svg width="16" height="16" viewBox="0 0 16 16" fill="none" xmlns="http://www.w3.org/2000/svg">
<mask id="mask0_4066_925" style="mask-type:alpha" maskUnits="userSpaceOnUse" x="0" y="0" width="16" height="16">
<rect width="16" height="16" fill="#D9D9D9"/>
</mask>
<g mask="url(#mask0_4066_925)">
<mask id="path-2-inside-1_4066_925" fill="white">
<path d="M8 6.66666C7.90433 6.66666 7.81465 6.65393 7.73094 6.62849C7.64723 6.60304 7.56951 6.55979 7.49776 6.49872L4.19731 3.68956C4.06577 3.5776 4 3.4351 4 3.26208C4 3.08905 4.06577 2.94655 4.19731 2.8346C4.32885 2.72264 4.49626 2.66666 4.69955 2.66666C4.90284 2.66666 5.07025 2.72264 5.20179 2.8346L8 5.21627L10.7982 2.8346C10.9297 2.72264 11.0972 2.66666 11.3004 2.66666C11.5037 2.66666 11.6712 2.72264 11.8027 2.8346C11.9342 2.94655 12 3.08905 12 3.26208C12 3.4351 11.9342 3.5776 11.8027 3.68956L8.50224 6.49872C8.43049 6.55979 8.35277 6.60304 8.26906 6.62849C8.18535 6.65393 8.09567 6.66666 8 6.66666Z"/>
</mask>
<path d="M7.49776 6.49872L6.63355 7.51406L7.49776 6.49872ZM4.19731 3.68956L5.06152 2.67421L4.19731 3.68956ZM5.20179 2.8346L4.33759 3.84994L4.33759 3.84994L5.20179 2.8346ZM8 5.21627L7.13579 6.23162L8 6.96718L8.86421 6.23162L8 5.21627ZM10.7982 2.8346L9.934 1.81925V1.81925L10.7982 2.8346ZM11.8027 3.68956L10.9385 2.67421L11.8027 3.68956ZM8.50224 6.49872L9.36645 7.51406L8.50224 6.49872ZM8 6.66666V5.33332C8.02354 5.33332 8.06556 5.33663 8.11873 5.35279L7.73094 6.62849L7.34316 7.90418C7.56373 7.97124 7.78513 7.99999 8 7.99999V6.66666ZM7.73094 6.62849L8.11873 5.35279C8.22314 5.38453 8.30529 5.43513 8.36196 5.48337L7.49776 6.49872L6.63355 7.51406C6.83372 7.68444 7.07133 7.82156 7.34316 7.90418L7.73094 6.62849ZM7.49776 6.49872L8.36196 5.48337L5.06152 2.67421L4.19731 3.68956L3.3331 4.7049L6.63355 7.51406L7.49776 6.49872ZM4.19731 3.68956L5.06152 2.67421C5.12798 2.73078 5.20396 2.81869 5.25993 2.93995C5.31587 3.06115 5.33333 3.17561 5.33333 3.26208H4H2.66667C2.66667 3.82519 2.90335 4.33912 3.3331 4.7049L4.19731 3.68956ZM4 3.26208H5.33333C5.33333 3.34854 5.31587 3.463 5.25993 3.5842C5.20396 3.70547 5.12798 3.79337 5.06152 3.84994L4.19731 2.8346L3.3331 1.81925C2.90335 2.18504 2.66667 2.69897 2.66667 3.26208H4ZM4.19731 2.8346L5.06152 3.84994C4.99456 3.90693 4.91872 3.94829 4.84435 3.97316C4.77285 3.99706 4.72025 3.99999 4.69955 3.99999V2.66666V1.33332C4.23848 1.33332 3.74716 1.46682 3.3331 1.81925L4.19731 2.8346ZM4.69955 2.66666V3.99999C4.67885 3.99999 4.62626 3.99706 4.55475 3.97316C4.48038 3.94829 4.40454 3.90693 4.33759 3.84994L5.20179 2.8346L6.066 1.81925C5.65194 1.46682 5.16062 1.33332 4.69955 1.33332V2.66666ZM5.20179 2.8346L4.33759 3.84994L7.13579 6.23162L8 5.21627L8.86421 4.20093L6.066 1.81925L5.20179 2.8346ZM8 5.21627L8.86421 6.23162L11.6624 3.84994L10.7982 2.8346L9.934 1.81925L7.13579 4.20093L8 5.21627ZM10.7982 2.8346L11.6624 3.84994C11.5955 3.90693 11.5196 3.94829 11.4452 3.97316C11.3737 3.99706 11.3212 3.99999 11.3004 3.99999V2.66666V1.33332C10.8394 1.33332 10.3481 1.46682 9.934 1.81925L10.7982 2.8346ZM11.3004 2.66666V3.99999C11.2797 3.99999 11.2272 3.99706 11.1556 3.97316C11.0813 3.94829 11.0054 3.90693 10.9385 3.84994L11.8027 2.8346L12.6669 1.81925C12.2528 1.46682 11.7615 1.33332 11.3004 1.33332V2.66666ZM11.8027 2.8346L10.9385 3.84994C10.872 3.79337 10.796 3.70547 10.7401 3.58421C10.6841 3.463 10.6667 3.34854 10.6667 3.26208H12H13.3333C13.3333 2.69896 13.0967 2.18503 12.6669 1.81925L11.8027 2.8346ZM12 3.26208H10.6667C10.6667 3.17561 10.6841 3.06115 10.7401 2.93995C10.796 2.81869 10.872 2.73078 10.9385 2.67421L11.8027 3.68956L12.6669 4.7049C13.0967 4.33912 13.3333 3.82519 13.3333 3.26208H12ZM11.8027 3.68956L10.9385 2.67421L7.63804 5.48337L8.50224 6.49872L9.36645 7.51406L12.6669 4.7049L11.8027 3.68956ZM8.50224 6.49872L7.63804 5.48337C7.69471 5.43514 7.77686 5.38453 7.88127 5.35279L8.26906 6.62849L8.65684 7.90418C8.92867 7.82156 9.16628 7.68444 9.36645 7.51406L8.50224 6.49872ZM8.26906 6.62849L7.88127 5.35279C7.93444 5.33663 7.97646 5.33332 8 5.33332V6.66666V7.99999C8.21487 7.99999 8.43627 7.97124 8.65684 7.90418L8.26906 6.62849Z" fill="#212121" mask="url(#path-2-inside-1_4066_925)"/>
<mask id="path-4-inside-2_4066_925" fill="white">
<path d="M8 9.33334C7.90433 9.33334 7.81465 9.34607 7.73094 9.37151C7.64723 9.39696 7.56951 9.44021 7.49776 9.50128L4.19731 12.3104C4.06577 12.4224 4 12.5649 4 12.7379C4 12.911 4.06577 13.0534 4.19731 13.1654C4.32885 13.2774 4.49626 13.3333 4.69955 13.3333C4.90284 13.3333 5.07025 13.2774 5.20179 13.1654L8 10.7837L10.7982 13.1654C10.9297 13.2774 11.0972 13.3333 11.3004 13.3333C11.5037 13.3333 11.6712 13.2774 11.8027 13.1654C11.9342 13.0534 12 12.911 12 12.7379C12 12.5649 11.9342 12.4224 11.8027 12.3104L8.50224 9.50128C8.43049 9.44021 8.35277 9.39696 8.26906 9.37151C8.18535 9.34607 8.09567 9.33334 8 9.33334Z"/>
</mask>
<path d="M7.49776 9.50128L6.63355 8.48594L7.49776 9.50128ZM4.19731 12.3104L5.06152 13.3258L4.19731 12.3104ZM5.20179 13.1654L4.33759 12.1501L4.33759 12.1501L5.20179 13.1654ZM8 10.7837L7.13579 9.76838L8 9.03282L8.86421 9.76838L8 10.7837ZM10.7982 13.1654L9.934 14.1807V14.1807L10.7982 13.1654ZM11.8027 12.3104L10.9385 13.3258L11.8027 12.3104ZM8.50224 9.50128L9.36645 8.48594L8.50224 9.50128ZM8 9.33334V10.6667C8.02354 10.6667 8.06556 10.6634 8.11873 10.6472L7.73094 9.37151L7.34316 8.09582C7.56373 8.02876 7.78513 8.00001 8 8.00001V9.33334ZM7.73094 9.37151L8.11873 10.6472C8.22314 10.6155 8.30529 10.5649 8.36196 10.5166L7.49776 9.50128L6.63355 8.48594C6.83372 8.31556 7.07133 8.17844 7.34316 8.09582L7.73094 9.37151ZM7.49776 9.50128L8.36196 10.5166L5.06152 13.3258L4.19731 12.3104L3.3331 11.2951L6.63355 8.48594L7.49776 9.50128ZM4.19731 12.3104L5.06152 13.3258C5.12798 13.2692 5.20396 13.1813 5.25993 13.0601C5.31587 12.9388 5.33333 12.8244 5.33333 12.7379H4H2.66667C2.66667 12.1748 2.90335 11.6609 3.3331 11.2951L4.19731 12.3104ZM4 12.7379H5.33333C5.33333 12.6515 5.31587 12.537 5.25993 12.4158C5.20396 12.2945 5.12798 12.2066 5.06152 12.1501L4.19731 13.1654L3.3331 14.1807C2.90335 13.815 2.66667 13.301 2.66667 12.7379H4ZM4.19731 13.1654L5.06152 12.1501C4.99456 12.0931 4.91872 12.0517 4.84435 12.0268C4.77285 12.0029 4.72025 12 4.69955 12V13.3333V14.6667C4.23848 14.6667 3.74716 14.5332 3.3331 14.1807L4.19731 13.1654ZM4.69955 13.3333V12C4.67885 12 4.62626 12.0029 4.55475 12.0268C4.48038 12.0517 4.40454 12.0931 4.33759 12.1501L5.20179 13.1654L6.066 14.1807C5.65194 14.5332 5.16062 14.6667 4.69955 14.6667V13.3333ZM5.20179 13.1654L4.33759 12.1501L7.13579 9.76838L8 10.7837L8.86421 11.7991L6.066 14.1807L5.20179 13.1654ZM8 10.7837L8.86421 9.76838L11.6624 12.1501L10.7982 13.1654L9.934 14.1807L7.13579 11.7991L8 10.7837ZM10.7982 13.1654L11.6624 12.1501C11.5955 12.0931 11.5196 12.0517 11.4452 12.0268C11.3737 12.0029 11.3212 12 11.3004 12V13.3333V14.6667C10.8394 14.6667 10.3481 14.5332 9.934 14.1807L10.7982 13.1654ZM11.3004 13.3333V12C11.2797 12 11.2272 12.0029 11.1556 12.0268C11.0813 12.0517 11.0054 12.0931 10.9385 12.1501L11.8027 13.1654L12.6669 14.1807C12.2528 14.5332 11.7615 14.6667 11.3004 14.6667V13.3333ZM11.8027 13.1654L10.9385 12.1501C10.872 12.2066 10.796 12.2945 10.7401 12.4158C10.6841 12.537 10.6667 12.6515 10.6667 12.7379H12H13.3333C13.3333 13.301 13.0967 13.815 12.6669 14.1807L11.8027 13.1654ZM12 12.7379H10.6667C10.6667 12.8244 10.6841 12.9389 10.7401 13.0601C10.796 13.1813 10.872 13.2692 10.9385 13.3258L11.8027 12.3104L12.6669 11.2951C13.0967 11.6609 13.3333 12.1748 13.3333 12.7379H12ZM11.8027 12.3104L10.9385 13.3258L7.63804 10.5166L8.50224 9.50128L9.36645 8.48594L12.6669 11.2951L11.8027 12.3104ZM8.50224 9.50128L7.63804 10.5166C7.69471 10.5649 7.77686 10.6155 7.88127 10.6472L8.26906 9.37151L8.65684 8.09582C8.92867 8.17844 9.16628 8.31556 9.36645 8.48594L8.50224 9.50128ZM8.26906 9.37151L7.88127 10.6472C7.93444 10.6634 7.97646 10.6667 8 10.6667V9.33334V8.00001C8.21487 8.00001 8.43627 8.02876 8.65684 8.09582L8.26906 9.37151Z" fill="#212121" mask="url(#path-4-inside-2_4066_925)"/>
</g>
</svg>
