<svg width="36" height="36" viewBox="0 0 36 36" fill="none" xmlns="http://www.w3.org/2000/svg">
<mask id="mask0_4066_260" style="mask-type:alpha" maskUnits="userSpaceOnUse" x="0" y="0" width="36" height="36">
<rect width="36" height="36" fill="#D9D9D9"/>
</mask>
<g mask="url(#mask0_4066_260)">
<mask id="path-2-inside-1_4066_260" fill="white">
<path d="M18 15C17.7848 15 17.583 14.9714 17.3946 14.9141C17.2063 14.8569 17.0314 14.7595 16.87 14.6221L9.44395 8.30153C9.14798 8.04962 9 7.72901 9 7.33969C9 6.95038 9.14798 6.62977 9.44395 6.37786C9.73991 6.12595 10.1166 6 10.574 6C11.0314 6 11.4081 6.12595 11.704 6.37786L18 11.7366L24.296 6.37786C24.5919 6.12595 24.9686 6 25.426 6C25.8834 6 26.2601 6.12595 26.5561 6.37786C26.852 6.62977 27 6.95038 27 7.33969C27 7.72901 26.852 8.04962 26.5561 8.30153L19.13 14.6221C18.9686 14.7595 18.7937 14.8569 18.6054 14.9141C18.417 14.9714 18.2152 15 18 15Z"/>
</mask>
<path d="M16.87 14.6221L14.9255 16.9067L16.87 14.6221ZM9.44395 8.30153L11.3884 6.017L9.44395 8.30153ZM11.704 6.37786L9.75957 8.66239L11.704 6.37786ZM18 11.7366L16.0555 14.0212L18 15.6762L19.9445 14.0212L18 11.7366ZM24.296 6.37786L22.3515 4.09334L24.296 6.37786ZM26.5561 8.30153L24.6116 6.017L26.5561 8.30153ZM19.13 14.6221L21.0745 16.9067L19.13 14.6221ZM18 15V12C18.053 12 18.1475 12.0074 18.2671 12.0438L17.3946 14.9141L16.5221 17.7844C17.0184 17.9353 17.5165 18 18 18V15ZM17.3946 14.9141L18.2671 12.0438C18.5021 12.1152 18.6869 12.2291 18.8144 12.3376L16.87 14.6221L14.9255 16.9067C15.3759 17.29 15.9105 17.5985 16.5221 17.7844L17.3946 14.9141ZM16.87 14.6221L18.8144 12.3376L11.3884 6.017L9.44395 8.30153L7.49948 10.5861L14.9255 16.9067L16.87 14.6221ZM9.44395 8.30153L11.3884 6.017C11.5379 6.14428 11.7089 6.34207 11.8348 6.61491C11.9607 6.88761 12 7.14516 12 7.33969H9H6C6 8.60669 6.53253 9.76304 7.49948 10.5861L9.44395 8.30153ZM9 7.33969H12C12 7.53423 11.9607 7.79178 11.8348 8.06448C11.7089 8.33732 11.5379 8.53511 11.3884 8.66239L9.44395 6.37786L7.49948 4.09334C6.53253 4.91635 6 6.0727 6 7.33969H9ZM9.44395 6.37786L11.3884 8.66239C11.2378 8.79061 11.0671 8.88367 10.8998 8.93962C10.7389 8.99342 10.6206 9 10.574 9V6V3C9.53658 3 8.43112 3.30038 7.49948 4.09334L9.44395 6.37786ZM10.574 6V9C10.5274 9 10.4091 8.99342 10.2482 8.93962C10.0809 8.88367 9.91022 8.79061 9.75957 8.66239L11.704 6.37786L13.6485 4.09334C12.7169 3.30038 11.6114 3 10.574 3V6ZM11.704 6.37786L9.75957 8.66239L16.0555 14.0212L18 11.7366L19.9445 9.45211L13.6485 4.09334L11.704 6.37786ZM18 11.7366L19.9445 14.0212L26.2404 8.66239L24.296 6.37786L22.3515 4.09334L16.0555 9.45211L18 11.7366ZM24.296 6.37786L26.2404 8.66239C26.0898 8.79061 25.9191 8.88367 25.7518 8.93962C25.5909 8.99342 25.4726 9 25.426 9V6V3C24.3886 3 23.2831 3.30038 22.3515 4.09334L24.296 6.37786ZM25.426 6V9C25.3794 9 25.2611 8.99342 25.1002 8.93962C24.9329 8.88367 24.7622 8.79061 24.6116 8.66239L26.5561 6.37786L28.5005 4.09334C27.5689 3.30038 26.4634 3 25.426 3V6ZM26.5561 6.37786L24.6116 8.66239C24.4621 8.53511 24.2911 8.33732 24.1652 8.06449C24.0393 7.79178 24 7.53424 24 7.33969H27H30C30 6.07269 29.4675 4.91635 28.5005 4.09334L26.5561 6.37786ZM27 7.33969H24C24 7.14515 24.0393 6.88761 24.1652 6.6149C24.2911 6.34207 24.4621 6.14428 24.6116 6.017L26.5561 8.30153L28.5005 10.5861C29.4675 9.76304 30 8.6067 30 7.33969H27ZM26.5561 8.30153L24.6116 6.017L17.1856 12.3376L19.13 14.6221L21.0745 16.9067L28.5005 10.5861L26.5561 8.30153ZM19.13 14.6221L17.1856 12.3376C17.3131 12.2291 17.4979 12.1152 17.7329 12.0438L18.6054 14.9141L19.4779 17.7844C20.0895 17.5985 20.6241 17.29 21.0745 16.9067L19.13 14.6221ZM18.6054 14.9141L17.7329 12.0438C17.8525 12.0074 17.947 12 18 12V15V18C18.4835 18 18.9816 17.9353 19.4779 17.7844L18.6054 14.9141Z" fill="#212121" mask="url(#path-2-inside-1_4066_260)"/>
<mask id="path-4-inside-2_4066_260" fill="white">
<path d="M18 21C17.7848 21 17.583 21.0286 17.3946 21.0859C17.2063 21.1431 17.0314 21.2405 16.87 21.3779L9.44395 27.6985C9.14798 27.9504 9 28.271 9 28.6603C9 29.0496 9.14798 29.3702 9.44395 29.6221C9.73991 29.874 10.1166 30 10.574 30C11.0314 30 11.4081 29.874 11.704 29.6221L18 24.2634L24.296 29.6221C24.5919 29.874 24.9686 30 25.426 30C25.8834 30 26.2601 29.874 26.5561 29.6221C26.852 29.3702 27 29.0496 27 28.6603C27 28.271 26.852 27.9504 26.5561 27.6985L19.13 21.3779C18.9686 21.2405 18.7937 21.1431 18.6054 21.0859C18.417 21.0286 18.2152 21 18 21Z"/>
</mask>
<path d="M16.87 21.3779L14.9255 19.0933L16.87 21.3779ZM9.44395 27.6985L11.3884 29.983L9.44395 27.6985ZM11.704 29.6221L9.75957 27.3376L11.704 29.6221ZM18 24.2634L16.0555 21.9788L18 20.3238L19.9445 21.9788L18 24.2634ZM24.296 29.6221L22.3515 31.9067L24.296 29.6221ZM26.5561 27.6985L24.6116 29.983L26.5561 27.6985ZM19.13 21.3779L21.0745 19.0933L19.13 21.3779ZM18 21V24C18.053 24 18.1475 23.9926 18.2671 23.9562L17.3946 21.0859L16.5221 18.2156C17.0184 18.0647 17.5165 18 18 18V21ZM17.3946 21.0859L18.2671 23.9562C18.5021 23.8848 18.6869 23.7709 18.8144 23.6624L16.87 21.3779L14.9255 19.0933C15.3759 18.71 15.9105 18.4015 16.5221 18.2156L17.3946 21.0859ZM16.87 21.3779L18.8144 23.6624L11.3884 29.983L9.44395 27.6985L7.49948 25.4139L14.9255 19.0933L16.87 21.3779ZM9.44395 27.6985L11.3884 29.983C11.5379 29.8557 11.7089 29.6579 11.8348 29.3851C11.9607 29.1124 12 28.8548 12 28.6603H9H6C6 27.3933 6.53253 26.237 7.49948 25.4139L9.44395 27.6985ZM9 28.6603H12C12 28.4658 11.9607 28.2082 11.8348 27.9355C11.7089 27.6627 11.5379 27.4649 11.3884 27.3376L9.44395 29.6221L7.49948 31.9067C6.53253 31.0836 6 29.9273 6 28.6603H9ZM9.44395 29.6221L11.3884 27.3376C11.2378 27.2094 11.0671 27.1163 10.8998 27.0604C10.7389 27.0066 10.6206 27 10.574 27V30V33C9.53658 33 8.43112 32.6996 7.49948 31.9067L9.44395 29.6221ZM10.574 30V27C10.5274 27 10.4091 27.0066 10.2482 27.0604C10.0809 27.1163 9.91022 27.2094 9.75957 27.3376L11.704 29.6221L13.6485 31.9067C12.7169 32.6996 11.6114 33 10.574 33V30ZM11.704 29.6221L9.75957 27.3376L16.0555 21.9788L18 24.2634L19.9445 26.5479L13.6485 31.9067L11.704 29.6221ZM18 24.2634L19.9445 21.9788L26.2404 27.3376L24.296 29.6221L22.3515 31.9067L16.0555 26.5479L18 24.2634ZM24.296 29.6221L26.2404 27.3376C26.0898 27.2094 25.9191 27.1163 25.7518 27.0604C25.5909 27.0066 25.4726 27 25.426 27V30V33C24.3886 33 23.2831 32.6996 22.3515 31.9067L24.296 29.6221ZM25.426 30V27C25.3794 27 25.2611 27.0066 25.1002 27.0604C24.9329 27.1163 24.7622 27.2094 24.6116 27.3376L26.5561 29.6221L28.5005 31.9067C27.5689 32.6996 26.4634 33 25.426 33V30ZM26.5561 29.6221L24.6116 27.3376C24.4621 27.4649 24.2911 27.6627 24.1652 27.9355C24.0393 28.2082 24 28.4658 24 28.6603H27H30C30 29.9273 29.4675 31.0836 28.5005 31.9067L26.5561 29.6221ZM27 28.6603H24C24 28.8548 24.0393 29.1124 24.1652 29.3851C24.2911 29.6579 24.4621 29.8557 24.6116 29.983L26.5561 27.6985L28.5005 25.4139C29.4675 26.237 30 27.3933 30 28.6603H27ZM26.5561 27.6985L24.6116 29.983L17.1856 23.6624L19.13 21.3779L21.0745 19.0933L28.5005 25.4139L26.5561 27.6985ZM19.13 21.3779L17.1856 23.6624C17.3131 23.7709 17.4979 23.8848 17.7329 23.9562L18.6054 21.0859L19.4779 18.2156C20.0895 18.4015 20.6241 18.71 21.0745 19.0933L19.13 21.3779ZM18.6054 21.0859L17.7329 23.9562C17.8525 23.9926 17.947 24 18 24V21V18C18.4835 18 18.9816 18.0647 19.4779 18.2156L18.6054 21.0859Z" fill="#212121" mask="url(#path-4-inside-2_4066_260)"/>
</g>
</svg>
