<svg width="24" height="24" viewBox="0 0 24 24" fill="none" xmlns="http://www.w3.org/2000/svg">
<path d="M12 15.84C13.2593 15.84 14.3298 16.6482 14.7212 17.7743L14.7681 17.7664L14.88 17.76H20.64C21.1703 17.76 21.6 18.1898 21.6 18.72C21.6 19.2123 21.2294 19.6181 20.752 19.6735L20.64 19.68H14.88C14.8258 19.68 14.7725 19.6754 14.7207 19.6669C14.3299 20.7917 13.2594 21.6 12 21.6C10.7407 21.6 9.67021 20.7917 9.27887 19.6657L9.23199 19.6736L9.12003 19.68H3.36003C2.8298 19.68 2.40003 19.2502 2.40003 18.72C2.40003 18.2277 2.77063 17.8219 3.24805 17.7664L3.36002 17.76H9.12002C9.17426 17.76 9.22756 17.7646 9.27939 17.7731C9.67018 16.6482 10.7407 15.84 12 15.84ZM12 17.76C11.4698 17.76 11.04 18.1898 11.04 18.72C11.04 19.2502 11.4698 19.68 12 19.68C12.5303 19.68 12.96 19.2502 12.96 18.72C12.96 18.1898 12.5303 17.76 12 17.76ZM5.28003 9.11999C6.53935 9.11999 7.60985 9.92824 8.00119 11.0543L8.04806 11.0464L8.16002 11.04H20.64C21.1703 11.04 21.6 11.4698 21.6 12C21.6 12.4923 21.2294 12.8981 20.752 12.9535L20.64 12.96H8.16004C8.1058 12.96 8.05249 12.9554 8.00066 12.9469C7.60988 14.0717 6.53937 14.88 5.28002 14.88C3.68948 14.88 2.40002 13.5905 2.40002 12C2.40002 10.4094 3.68948 9.11999 5.28003 9.11999ZM5.28003 11.04C4.7498 11.04 4.32003 11.4698 4.32003 12C4.32003 12.5302 4.7498 12.96 5.28003 12.96C5.81026 12.96 6.24003 12.5302 6.24003 12C6.24003 11.4698 5.81026 11.04 5.28003 11.04ZM15.84 2.39999C17.0993 2.39999 18.1698 3.20825 18.5612 4.33433L18.6081 4.32642L18.72 4.31999H20.64C21.1703 4.31999 21.6 4.74977 21.6 5.27999C21.6 5.7723 21.2294 6.17811 20.752 6.23355L20.64 6.23998H18.72C18.6658 6.23998 18.6125 6.23542 18.5607 6.22685C18.1699 7.35173 17.0994 8.15998 15.84 8.15998C14.5807 8.15998 13.5102 7.35173 13.1189 6.22565L13.072 6.23355L12.96 6.23998H3.36003C2.8298 6.23998 2.40003 5.81021 2.40003 5.27998C2.40003 4.78767 2.77063 4.38187 3.24805 4.32643L3.36002 4.32H12.96C13.0143 4.32 13.0676 4.32455 13.1194 4.33313C13.5102 3.20825 14.5807 2.39999 15.84 2.39999ZM15.84 4.31999C15.3098 4.31999 14.88 4.74977 14.88 5.27999C14.88 5.81022 15.3098 6.23999 15.84 6.23999C16.3703 6.23999 16.8 5.81022 16.8 5.27999C16.8 4.74977 16.3703 4.31999 15.84 4.31999Z" fill="#212121"/>
</svg>
