<svg width="20" height="20" viewBox="0 0 20 20" fill="none" xmlns="http://www.w3.org/2000/svg">
<mask id="mask0_4066_806" style="mask-type:alpha" maskUnits="userSpaceOnUse" x="0" y="0" width="20" height="20">
<rect width="20" height="20" fill="#D9D9D9"/>
</mask>
<g mask="url(#mask0_4066_806)">
<path d="M9.08393 10L13.0534 14.6637C13.24 14.8829 13.3333 15.1619 13.3333 15.5008C13.3333 15.8396 13.24 16.1186 13.0534 16.3378C12.8668 16.5571 12.6293 16.6667 12.3409 16.6667C12.0525 16.6667 11.8151 16.5571 11.6285 16.3378L6.94652 10.8371C6.84474 10.7175 6.77265 10.588 6.73024 10.4484C6.68783 10.3089 6.66663 10.1595 6.66663 10C6.66663 9.84057 6.68783 9.69109 6.73024 9.55158C6.77265 9.41207 6.84474 9.28252 6.94652 9.16294L11.6285 3.66219C11.8151 3.44296 12.0525 3.33334 12.3409 3.33334C12.6293 3.33334 12.8668 3.44296 13.0534 3.66219C13.24 3.88143 13.3333 4.16045 13.3333 4.49926C13.3333 4.83808 13.24 5.1171 13.0534 5.33633L9.08393 10Z" fill="#212121"/>
</g>
</svg>
