<svg width="36" height="36" viewBox="0 0 36 36" fill="none" xmlns="http://www.w3.org/2000/svg">
<g clip-path="url(#clip0_4066_272)">
<path d="M30.75 4.5L30.51 4.545L22.5 7.65L13.5 4.5L5.04 7.35C4.725 7.455 4.5 7.725 4.5 8.07V30.75C4.5 31.17 4.83 31.5 5.25 31.5L5.49 31.455L13.5 28.35L22.5 31.5L30.96 28.65C31.275 28.545 31.5 28.275 31.5 27.93V5.25C31.5 4.83 31.17 4.5 30.75 4.5ZM15 8.205L21 10.305V27.795L15 25.695V8.205ZM7.5 9.69L12 8.175V25.725L7.5 27.465V9.69ZM28.5 26.31L24 27.825V10.29L28.5 8.55V26.31Z" fill="#212121"/>
</g>
<defs>
<clipPath id="clip0_4066_272">
<rect width="36" height="36" fill="white"/>
</clipPath>
</defs>
</svg>
