<svg width="36" height="36" viewBox="0 0 36 36" fill="none" xmlns="http://www.w3.org/2000/svg">
<path d="M25.125 3.97559C27.35 3.97559 29.2189 4.73164 30.7314 6.24414C32.2439 7.75655 32.9999 9.63787 33 11.8877C33 14.7376 31.775 17.5503 29.3252 20.3252C26.8752 23.1002 23.6121 26.3502 19.5371 30.0752L18 31.4629L16.4629 30.0752C12.3879 26.3502 9.1248 23.1002 6.6748 20.3252C4.22499 17.5503 3 14.7376 3 11.8877C3.00009 9.63787 3.75614 7.75655 5.26855 6.24414C6.78105 4.73164 8.65 3.97559 10.875 3.97559C12.1499 3.97559 13.4122 4.28211 14.6621 4.89453C15.9121 5.50703 17.025 6.51309 18 7.91309C19.0999 6.51324 20.2372 5.50705 21.4121 4.89453C22.5871 4.28203 23.825 3.97559 25.125 3.97559Z" fill="#212121"/>
</svg>
