<svg width="16" height="16" viewBox="0 0 16 16" fill="none" xmlns="http://www.w3.org/2000/svg">
<mask id="mask0_4066_935" style="mask-type:alpha" maskUnits="userSpaceOnUse" x="0" y="0" width="16" height="16">
<rect width="16" height="16" fill="#D9D9D9"/>
</mask>
<g mask="url(#mask0_4066_935)">
<path d="M5.33333 5.99999C5.14444 5.99999 4.98611 5.9361 4.85833 5.80832C4.73056 5.68055 4.66667 5.52221 4.66667 5.33332C4.66667 5.14443 4.73056 4.9861 4.85833 4.85832C4.98611 4.73055 5.14444 4.66666 5.33333 4.66666H13.3333C13.5222 4.66666 13.6806 4.73055 13.8083 4.85832C13.9361 4.9861 14 5.14443 14 5.33332C14 5.52221 13.9361 5.68055 13.8083 5.80832C13.6806 5.9361 13.5222 5.99999 13.3333 5.99999H5.33333ZM5.33333 8.66666C5.14444 8.66666 4.98611 8.60277 4.85833 8.47499C4.73056 8.34721 4.66667 8.18888 4.66667 7.99999C4.66667 7.8111 4.73056 7.65277 4.85833 7.52499C4.98611 7.39721 5.14444 7.33332 5.33333 7.33332H13.3333C13.5222 7.33332 13.6806 7.39721 13.8083 7.52499C13.9361 7.65277 14 7.8111 14 7.99999C14 8.18888 13.9361 8.34721 13.8083 8.47499C13.6806 8.60277 13.5222 8.66666 13.3333 8.66666H5.33333ZM5.33333 11.3333C5.14444 11.3333 4.98611 11.2694 4.85833 11.1417C4.73056 11.0139 4.66667 10.8555 4.66667 10.6667C4.66667 10.4778 4.73056 10.3194 4.85833 10.1917C4.98611 10.0639 5.14444 9.99999 5.33333 9.99999H13.3333C13.5222 9.99999 13.6806 10.0639 13.8083 10.1917C13.9361 10.3194 14 10.4778 14 10.6667C14 10.8555 13.9361 11.0139 13.8083 11.1417C13.6806 11.2694 13.5222 11.3333 13.3333 11.3333H5.33333ZM2.66667 5.99999C2.47778 5.99999 2.31944 5.9361 2.19167 5.80832C2.06389 5.68055 2 5.52221 2 5.33332C2 5.14443 2.06389 4.9861 2.19167 4.85832C2.31944 4.73055 2.47778 4.66666 2.66667 4.66666C2.85556 4.66666 3.01389 4.73055 3.14167 4.85832C3.26944 4.9861 3.33333 5.14443 3.33333 5.33332C3.33333 5.52221 3.26944 5.68055 3.14167 5.80832C3.01389 5.9361 2.85556 5.99999 2.66667 5.99999ZM2.66667 8.66666C2.47778 8.66666 2.31944 8.60277 2.19167 8.47499C2.06389 8.34721 2 8.18888 2 7.99999C2 7.8111 2.06389 7.65277 2.19167 7.52499C2.31944 7.39721 2.47778 7.33332 2.66667 7.33332C2.85556 7.33332 3.01389 7.39721 3.14167 7.52499C3.26944 7.65277 3.33333 7.8111 3.33333 7.99999C3.33333 8.18888 3.26944 8.34721 3.14167 8.47499C3.01389 8.60277 2.85556 8.66666 2.66667 8.66666ZM2.66667 11.3333C2.47778 11.3333 2.31944 11.2694 2.19167 11.1417C2.06389 11.0139 2 10.8555 2 10.6667C2 10.4778 2.06389 10.3194 2.19167 10.1917C2.31944 10.0639 2.47778 9.99999 2.66667 9.99999C2.85556 9.99999 3.01389 10.0639 3.14167 10.1917C3.26944 10.3194 3.33333 10.4778 3.33333 10.6667C3.33333 10.8555 3.26944 11.0139 3.14167 11.1417C3.01389 11.2694 2.85556 11.3333 2.66667 11.3333Z" fill="#212121"/>
</g>
</svg>
