<svg width="16" height="16" viewBox="0 0 16 16" fill="none" xmlns="http://www.w3.org/2000/svg">
<mask id="mask0_4066_938" style="mask-type:alpha" maskUnits="userSpaceOnUse" x="0" y="0" width="16" height="16">
<rect width="16" height="16" fill="#D9D9D9"/>
</mask>
<g mask="url(#mask0_4066_938)">
<path d="M8.00004 11.3333C8.92226 11.3333 9.70837 11.0083 10.3584 10.3583C11.0084 9.70834 11.3334 8.92223 11.3334 8.00001C11.3334 7.07779 11.0084 6.29168 10.3584 5.64168C9.70837 4.99168 8.92226 4.66668 8.00004 4.66668C7.07782 4.66668 6.29171 4.99168 5.64171 5.64168C4.99171 6.29168 4.66671 7.07779 4.66671 8.00001C4.66671 8.92223 4.99171 9.70834 5.64171 10.3583C6.29171 11.0083 7.07782 11.3333 8.00004 11.3333ZM8.00004 14.6667C7.07782 14.6667 6.21115 14.4917 5.40004 14.1417C4.58893 13.7917 3.88337 13.3167 3.28337 12.7167C2.68337 12.1167 2.20837 11.4111 1.85837 10.6C1.50837 9.7889 1.33337 8.92223 1.33337 8.00001C1.33337 7.07779 1.50837 6.21112 1.85837 5.40001C2.20837 4.5889 2.68337 3.88334 3.28337 3.28334C3.88337 2.68334 4.58893 2.20834 5.40004 1.85834C6.21115 1.50834 7.07782 1.33334 8.00004 1.33334C8.92226 1.33334 9.78893 1.50834 10.6 1.85834C11.4112 2.20834 12.1167 2.68334 12.7167 3.28334C13.3167 3.88334 13.7917 4.5889 14.1417 5.40001C14.4917 6.21112 14.6667 7.07779 14.6667 8.00001C14.6667 8.92223 14.4917 9.7889 14.1417 10.6C13.7917 11.4111 13.3167 12.1167 12.7167 12.7167C12.1167 13.3167 11.4112 13.7917 10.6 14.1417C9.78893 14.4917 8.92226 14.6667 8.00004 14.6667ZM8.00004 13.3333C9.48893 13.3333 10.75 12.8167 11.7834 11.7833C12.8167 10.75 13.3334 9.4889 13.3334 8.00001C13.3334 6.51112 12.8167 5.25001 11.7834 4.21668C10.75 3.18334 9.48893 2.66668 8.00004 2.66668C6.51115 2.66668 5.25004 3.18334 4.21671 4.21668C3.18337 5.25001 2.66671 6.51112 2.66671 8.00001C2.66671 9.4889 3.18337 10.75 4.21671 11.7833C5.25004 12.8167 6.51115 13.3333 8.00004 13.3333Z" fill="#212121"/>
</g>
</svg>
