<svg width="20" height="20" viewBox="0 0 20 20" fill="none" xmlns="http://www.w3.org/2000/svg">
<path d="M9.99996 17.4792L9.14579 16.7083C6.8819 14.6389 5.0694 12.8333 3.70829 11.2917C2.34718 9.75001 1.66663 8.18751 1.66663 6.60418C1.66663 5.35418 2.08676 4.30904 2.92704 3.46876C3.76732 2.62848 4.80551 2.20834 6.04163 2.20834C6.74996 2.20834 7.45135 2.37848 8.14579 2.71876C8.84024 3.05904 9.45829 3.61807 9.99996 4.39584C10.6111 3.61807 11.243 3.05904 11.8958 2.71876C12.5486 2.37848 13.2361 2.20834 13.9583 2.20834C15.1944 2.20834 16.2326 2.62848 17.0729 3.46876C17.9132 4.30904 18.3333 5.35418 18.3333 6.60418C18.3333 8.18751 17.6527 9.75001 16.2916 11.2917C14.9305 12.8333 13.118 14.6389 10.8541 16.7083L9.99996 17.4792ZM9.99996 15.8333C12.1111 13.8889 13.8194 12.2014 15.125 10.7708C16.4305 9.34029 17.0833 7.9514 17.0833 6.60418C17.0833 5.68751 16.7882 4.93404 16.1979 4.34376C15.6076 3.75348 14.8611 3.45834 13.9583 3.45834C13.2638 3.45834 12.6111 3.67362 12 4.10418C11.3888 4.53473 10.8888 5.15279 10.5 5.95834H9.47913C9.10413 5.15279 8.6076 4.53473 7.98954 4.10418C7.37149 3.67362 6.72218 3.45834 6.04163 3.45834C5.12496 3.45834 4.37496 3.75348 3.79163 4.34376C3.20829 4.93404 2.91663 5.68751 2.91663 6.60418C2.91663 7.9514 3.5694 9.34029 4.87496 10.7708C6.18051 12.2014 7.88885 13.8889 9.99996 15.8333Z" fill="#212121"/>
</svg>
