<svg width="24" height="24" viewBox="0 0 24 24" fill="none" xmlns="http://www.w3.org/2000/svg">
<mask id="mask0_4066_447" style="mask-type:alpha" maskUnits="userSpaceOnUse" x="0" y="0" width="24" height="24">
<rect width="24" height="24" fill="#D9D9D9"/>
</mask>
<g mask="url(#mask0_4066_447)">
<path d="M12 8C11.8087 8 11.6293 8.02545 11.4619 8.07634C11.2945 8.12723 11.139 8.21374 10.9955 8.33588L4.39462 13.9542C4.13154 14.1781 4 14.4631 4 14.8092C4 15.1552 4.13154 15.4402 4.39462 15.6641C4.6577 15.888 4.99253 16 5.3991 16C5.80568 16 6.14051 15.888 6.40359 15.6641L12 10.9008L17.5964 15.6641C17.8595 15.888 18.1943 16 18.6009 16C19.0075 16 19.3423 15.888 19.6054 15.6641C19.8685 15.4402 20 15.1552 20 14.8092C20 14.4631 19.8685 14.1781 19.6054 13.9542L13.0045 8.33588C12.861 8.21374 12.7055 8.12723 12.5381 8.07634C12.3707 8.02545 12.1913 8 12 8Z" fill="#212121"/>
</g>
</svg>
