<svg width="16" height="16" viewBox="0 0 16 16" fill="none" xmlns="http://www.w3.org/2000/svg">
<mask id="mask0_4066_941" style="mask-type:alpha" maskUnits="userSpaceOnUse" x="0" y="0" width="16" height="16">
<rect width="16" height="16" fill="#D9D9D9"/>
</mask>
<g mask="url(#mask0_4066_941)">
<path d="M8.01665 14C7.82776 14 7.66942 13.9361 7.54165 13.8083C7.41387 13.6806 7.34998 13.5222 7.34998 13.3333V12.5667C6.84998 12.4556 6.41109 12.2611 6.03331 11.9833C5.65554 11.7056 5.34998 11.3167 5.11665 10.8167C5.03887 10.6611 5.03609 10.4972 5.10831 10.325C5.18054 10.1528 5.31109 10.0278 5.49998 9.95C5.65554 9.88333 5.81665 9.88611 5.98331 9.95833C6.14998 10.0306 6.27776 10.15 6.36665 10.3167C6.55554 10.65 6.79442 10.9028 7.08331 11.075C7.3722 11.2472 7.72776 11.3333 8.14998 11.3333C8.60554 11.3333 8.99165 11.2306 9.30831 11.025C9.62498 10.8194 9.78331 10.5 9.78331 10.0667C9.78331 9.67778 9.66109 9.36945 9.41665 9.14167C9.1722 8.91389 8.60554 8.65556 7.71665 8.36667C6.76109 8.06667 6.10554 7.70833 5.74998 7.29167C5.39442 6.875 5.21665 6.36667 5.21665 5.76667C5.21665 5.04444 5.44998 4.48333 5.91665 4.08333C6.38331 3.68333 6.86109 3.45556 7.34998 3.4V2.66667C7.34998 2.47778 7.41387 2.31944 7.54165 2.19167C7.66942 2.06389 7.82776 2 8.01665 2C8.20554 2 8.36387 2.06389 8.49165 2.19167C8.61942 2.31944 8.68331 2.47778 8.68331 2.66667V3.4C9.10554 3.46667 9.4722 3.60278 9.78331 3.80833C10.0944 4.01389 10.35 4.26667 10.55 4.56667C10.65 4.71111 10.6694 4.87222 10.6083 5.05C10.5472 5.22778 10.4222 5.35556 10.2333 5.43333C10.0778 5.5 9.91665 5.50278 9.74998 5.44167C9.58331 5.38056 9.42776 5.27222 9.28331 5.11667C9.13887 4.96111 8.96942 4.84167 8.77498 4.75833C8.58054 4.675 8.33887 4.63333 8.04998 4.63333C7.56109 4.63333 7.18887 4.74167 6.93331 4.95833C6.67776 5.175 6.54998 5.44444 6.54998 5.76667C6.54998 6.13333 6.71665 6.42222 7.04998 6.63333C7.38331 6.84444 7.96109 7.06667 8.78331 7.3C9.54998 7.52222 10.1305 7.875 10.525 8.35833C10.9194 8.84167 11.1166 9.4 11.1166 10.0333C11.1166 10.8222 10.8833 11.4222 10.4166 11.8333C9.94998 12.2444 9.3722 12.5 8.68331 12.6V13.3333C8.68331 13.5222 8.61942 13.6806 8.49165 13.8083C8.36387 13.9361 8.20554 14 8.01665 14Z" fill="#212121"/>
</g>
</svg>
