<svg width="24" height="24" viewBox="0 0 24 24" fill="none" xmlns="http://www.w3.org/2000/svg">
<mask id="mask0_4066_416" style="mask-type:alpha" maskUnits="userSpaceOnUse" x="0" y="0" width="24" height="24">
<rect width="24" height="24" fill="#D9D9D9"/>
</mask>
<g mask="url(#mask0_4066_416)">
<mask id="path-2-inside-1_4066_416" fill="white">
<path d="M12 4C11.8565 4 11.722 4.01908 11.5964 4.05725C11.4709 4.09542 11.3543 4.16031 11.2466 4.25191L6.29596 8.46565C6.09865 8.63359 6 8.84733 6 9.10687C6 9.36641 6.09865 9.58015 6.29596 9.74809C6.49327 9.91603 6.74439 10 7.04933 10C7.35426 10 7.60538 9.91603 7.80269 9.74809L12 6.17557L16.1973 9.74809C16.3946 9.91603 16.6457 10 16.9507 10C17.2556 10 17.5067 9.91603 17.704 9.74809C17.9013 9.58015 18 9.36641 18 9.10687C18 8.84733 17.9013 8.63359 17.704 8.46565L12.7534 4.25191C12.6457 4.16031 12.5291 4.09542 12.4036 4.05725C12.278 4.01908 12.1435 4 12 4Z"/>
</mask>
<path d="M11.2466 4.25191L9.95033 2.72889L11.2466 4.25191ZM6.29596 8.46565L7.59227 9.98867L6.29596 8.46565ZM7.80269 9.74809L6.50638 8.22507L7.80269 9.74809ZM12 6.17557L10.7037 4.65255L12 3.54921L13.2963 4.65255L12 6.17557ZM16.1973 9.74809L14.901 11.2711V11.2711L16.1973 9.74809ZM17.704 8.46565L16.4077 9.98867L17.704 8.46565ZM12.7534 4.25191L14.0497 2.72889L12.7534 4.25191ZM12 4V6C12.0353 6 12.0983 5.99504 12.1781 5.9708L11.5964 4.05725L11.0147 2.14371C11.3456 2.04313 11.6777 2 12 2V4ZM11.5964 4.05725L12.1781 5.9708C12.3347 5.92319 12.4579 5.84728 12.5429 5.77493L11.2466 4.25191L9.95033 2.72889C10.2506 2.47333 10.607 2.26765 11.0147 2.14371L11.5964 4.05725ZM11.2466 4.25191L12.5429 5.77493L7.59227 9.98867L6.29596 8.46565L4.99966 6.94263L9.95033 2.72889L11.2466 4.25191ZM6.29596 8.46565L7.59227 9.98867C7.69196 9.90381 7.80594 9.77195 7.88989 9.59006C7.97381 9.40826 8 9.23656 8 9.10687H6H4C4 8.2622 4.35502 7.49131 4.99966 6.94263L6.29596 8.46565ZM6 9.10687H8C8 8.97718 7.97381 8.80548 7.88989 8.62368C7.80594 8.44179 7.69196 8.30993 7.59227 8.22507L6.29596 9.74809L4.99966 11.2711C4.35502 10.7224 4 9.95154 4 9.10687H6ZM6.29596 9.74809L7.59227 8.22507C7.49184 8.13959 7.37808 8.07755 7.26653 8.04025C7.15927 8.00439 7.08038 8 7.04933 8V10V12C6.35772 12 5.62075 11.7997 4.99966 11.2711L6.29596 9.74809ZM7.04933 10V8C7.01827 8 6.93938 8.00439 6.83213 8.04025C6.72057 8.07755 6.60681 8.13959 6.50638 8.22507L7.80269 9.74809L9.099 11.2711C8.47791 11.7997 7.74093 12 7.04933 12V10ZM7.80269 9.74809L6.50638 8.22507L10.7037 4.65255L12 6.17557L13.2963 7.69859L9.099 11.2711L7.80269 9.74809ZM12 6.17557L13.2963 4.65255L17.4936 8.22507L16.1973 9.74809L14.901 11.2711L10.7037 7.69859L12 6.17557ZM16.1973 9.74809L17.4936 8.22507C17.3932 8.13959 17.2794 8.07755 17.1679 8.04025C17.0606 8.00439 16.9817 8 16.9507 8V10V12C16.2591 12 15.5221 11.7997 14.901 11.2711L16.1973 9.74809ZM16.9507 10V8C16.9196 8 16.8407 8.00439 16.7335 8.04025C16.6219 8.07755 16.5082 8.13959 16.4077 8.22507L17.704 9.74809L19.0003 11.2711C18.3793 11.7997 17.6423 12 16.9507 12V10ZM17.704 9.74809L16.4077 8.22507C16.308 8.30992 16.1941 8.44178 16.1101 8.62368C16.0262 8.80548 16 8.97718 16 9.10687H18H20C20 9.95154 19.645 10.7224 19.0003 11.2711L17.704 9.74809ZM18 9.10687H16C16 9.23656 16.0262 9.40826 16.1101 9.59006C16.1941 9.77196 16.308 9.90382 16.4077 9.98867L17.704 8.46565L19.0003 6.94263C19.645 7.49131 20 8.2622 20 9.10687H18ZM17.704 8.46565L16.4077 9.98867L11.4571 5.77493L12.7534 4.25191L14.0497 2.72889L19.0003 6.94263L17.704 8.46565ZM12.7534 4.25191L11.4571 5.77493C11.5421 5.84728 11.6653 5.92319 11.8219 5.9708L12.4036 4.05725L12.9853 2.14371C13.393 2.26765 13.7494 2.47333 14.0497 2.72889L12.7534 4.25191ZM12.4036 4.05725L11.8219 5.9708C11.9017 5.99504 11.9647 6 12 6V4V2C12.3223 2 12.6544 2.04313 12.9853 2.14371L12.4036 4.05725Z" fill="#212121" mask="url(#path-2-inside-1_4066_416)"/>
<mask id="path-4-inside-2_4066_416" fill="white">
<path d="M12 20C11.8565 20 11.722 19.9809 11.5964 19.9427C11.4709 19.9046 11.3543 19.8397 11.2466 19.7481L6.29596 15.5344C6.09865 15.3664 6 15.1527 6 14.8931C6 14.6336 6.09865 14.4198 6.29596 14.2519C6.49327 14.084 6.74439 14 7.04933 14C7.35426 14 7.60538 14.084 7.80269 14.2519L12 17.8244L16.1973 14.2519C16.3946 14.084 16.6457 14 16.9507 14C17.2556 14 17.5067 14.084 17.704 14.2519C17.9013 14.4198 18 14.6336 18 14.8931C18 15.1527 17.9013 15.3664 17.704 15.5344L12.7534 19.7481C12.6457 19.8397 12.5291 19.9046 12.4036 19.9427C12.278 19.9809 12.1435 20 12 20Z"/>
</mask>
<path d="M11.2466 19.7481L9.95033 21.2711L11.2466 19.7481ZM6.29596 15.5344L7.59227 14.0113L6.29596 15.5344ZM7.80269 14.2519L6.50638 15.7749L7.80269 14.2519ZM12 17.8244L10.7037 19.3474L12 20.4508L13.2963 19.3474L12 17.8244ZM16.1973 14.2519L14.901 12.7289V12.7289L16.1973 14.2519ZM17.704 15.5344L16.4077 14.0113L17.704 15.5344ZM12.7534 19.7481L14.0497 21.2711L12.7534 19.7481ZM12 20V18C12.0353 18 12.0983 18.005 12.1781 18.0292L11.5964 19.9427L11.0147 21.8563C11.3456 21.9569 11.6777 22 12 22V20ZM11.5964 19.9427L12.1781 18.0292C12.3347 18.0768 12.4579 18.1527 12.5429 18.2251L11.2466 19.7481L9.95033 21.2711C10.2506 21.5267 10.607 21.7323 11.0147 21.8563L11.5964 19.9427ZM11.2466 19.7481L12.5429 18.2251L7.59227 14.0113L6.29596 15.5344L4.99966 17.0574L9.95033 21.2711L11.2466 19.7481ZM6.29596 15.5344L7.59227 14.0113C7.69196 14.0962 7.80594 14.228 7.88989 14.4099C7.97381 14.5917 8 14.7634 8 14.8931H6H4C4 15.7378 4.35502 16.5087 4.99966 17.0574L6.29596 15.5344ZM6 14.8931H8C8 15.0228 7.97381 15.1945 7.88989 15.3763C7.80594 15.5582 7.69196 15.6901 7.59227 15.7749L6.29596 14.2519L4.99966 12.7289C4.35502 13.2776 4 14.0485 4 14.8931H6ZM6.29596 14.2519L7.59227 15.7749C7.49184 15.8604 7.37808 15.9224 7.26653 15.9597C7.15927 15.9956 7.08038 16 7.04933 16V14V12C6.35772 12 5.62075 12.2003 4.99966 12.7289L6.29596 14.2519ZM7.04933 14V16C7.01827 16 6.93938 15.9956 6.83213 15.9597C6.72057 15.9224 6.60681 15.8604 6.50638 15.7749L7.80269 14.2519L9.099 12.7289C8.47791 12.2003 7.74093 12 7.04933 12V14ZM7.80269 14.2519L6.50638 15.7749L10.7037 19.3474L12 17.8244L13.2963 16.3014L9.099 12.7289L7.80269 14.2519ZM12 17.8244L13.2963 19.3474L17.4936 15.7749L16.1973 14.2519L14.901 12.7289L10.7037 16.3014L12 17.8244ZM16.1973 14.2519L17.4936 15.7749C17.3932 15.8604 17.2794 15.9224 17.1679 15.9597C17.0606 15.9956 16.9817 16 16.9507 16V14V12C16.2591 12 15.5221 12.2003 14.901 12.7289L16.1973 14.2519ZM16.9507 14V16C16.9196 16 16.8407 15.9956 16.7335 15.9597C16.6219 15.9224 16.5082 15.8604 16.4077 15.7749L17.704 14.2519L19.0003 12.7289C18.3793 12.2003 17.6423 12 16.9507 12V14ZM17.704 14.2519L16.4077 15.7749C16.308 15.6901 16.1941 15.5582 16.1101 15.3763C16.0262 15.1945 16 15.0228 16 14.8931H18H20C20 14.0485 19.645 13.2776 19.0003 12.7289L17.704 14.2519ZM18 14.8931H16C16 14.7634 16.0262 14.5917 16.1101 14.4099C16.1941 14.228 16.308 14.0962 16.4077 14.0113L17.704 15.5344L19.0003 17.0574C19.645 16.5087 20 15.7378 20 14.8931H18ZM17.704 15.5344L16.4077 14.0113L11.4571 18.2251L12.7534 19.7481L14.0497 21.2711L19.0003 17.0574L17.704 15.5344ZM12.7534 19.7481L11.4571 18.2251C11.5421 18.1527 11.6653 18.0768 11.8219 18.0292L12.4036 19.9427L12.9853 21.8563C13.393 21.7323 13.7494 21.5267 14.0497 21.2711L12.7534 19.7481ZM12.4036 19.9427L11.8219 18.0292C11.9017 18.005 11.9647 18 12 18V20V22C12.3223 22 12.6544 21.9569 12.9853 21.8563L12.4036 19.9427Z" fill="#212121" mask="url(#path-4-inside-2_4066_416)"/>
</g>
</svg>
