<svg width="20" height="20" viewBox="0 0 20 20" fill="none" xmlns="http://www.w3.org/2000/svg">
<mask id="mask0_4066_782" style="mask-type:alpha" maskUnits="userSpaceOnUse" x="0" y="0" width="20" height="20">
<rect width="20" height="20" fill="#D9D9D9"/>
</mask>
<g mask="url(#mask0_4066_782)">
<path d="M9.16663 11.8333V4.99999C9.16663 4.76388 9.24649 4.56596 9.40621 4.40624C9.56593 4.24652 9.76385 4.16666 9.99996 4.16666C10.2361 4.16666 10.434 4.24652 10.5937 4.40624C10.7534 4.56596 10.8333 4.76388 10.8333 4.99999V11.8333L13.25 9.41666C13.4027 9.26388 13.5972 9.18749 13.8333 9.18749C14.0694 9.18749 14.2638 9.26388 14.4166 9.41666C14.5694 9.56943 14.6458 9.76388 14.6458 9.99999C14.6458 10.2361 14.5694 10.4305 14.4166 10.5833L10.5833 14.4167C10.4166 14.5833 10.2222 14.6667 9.99996 14.6667C9.77774 14.6667 9.58329 14.5833 9.41663 14.4167L5.58329 10.5833C5.43051 10.4305 5.35413 10.2361 5.35413 9.99999C5.35413 9.76388 5.43051 9.56943 5.58329 9.41666C5.73607 9.26388 5.93051 9.18749 6.16663 9.18749C6.40274 9.18749 6.59718 9.26388 6.74996 9.41666L9.16663 11.8333Z" fill="#212121"/>
</g>
</svg>
