<svg width="16" height="16" viewBox="0 0 16 16" fill="none" xmlns="http://www.w3.org/2000/svg">
<mask id="mask0_4066_943" style="mask-type:alpha" maskUnits="userSpaceOnUse" x="0" y="0" width="16" height="16">
<rect width="16" height="16" fill="#D9D9D9"/>
</mask>
<g mask="url(#mask0_4066_943)">
<path d="M3.33333 14.6667C2.96667 14.6667 2.65278 14.5361 2.39167 14.275C2.13056 14.0139 2 13.7 2 13.3333V4.00001C2 3.63334 2.13056 3.31945 2.39167 3.05834C2.65278 2.79723 2.96667 2.66668 3.33333 2.66668H4V2.00001C4 1.81112 4.06389 1.65279 4.19167 1.52501C4.31944 1.39723 4.47778 1.33334 4.66667 1.33334C4.85556 1.33334 5.01389 1.39723 5.14167 1.52501C5.26944 1.65279 5.33333 1.81112 5.33333 2.00001V2.66668H10.6667V2.00001C10.6667 1.81112 10.7306 1.65279 10.8583 1.52501C10.9861 1.39723 11.1444 1.33334 11.3333 1.33334C11.5222 1.33334 11.6806 1.39723 11.8083 1.52501C11.9361 1.65279 12 1.81112 12 2.00001V2.66668H12.6667C13.0333 2.66668 13.3472 2.79723 13.6083 3.05834C13.8694 3.31945 14 3.63334 14 4.00001V13.3333C14 13.7 13.8694 14.0139 13.6083 14.275C13.3472 14.5361 13.0333 14.6667 12.6667 14.6667H3.33333ZM3.33333 13.3333H12.6667V6.66668H3.33333V13.3333ZM3.33333 5.33334H12.6667V4.00001H3.33333V5.33334ZM8 9.33334C7.81111 9.33334 7.65278 9.26945 7.525 9.14168C7.39722 9.0139 7.33333 8.85557 7.33333 8.66668C7.33333 8.47779 7.39722 8.31945 7.525 8.19168C7.65278 8.0639 7.81111 8.00001 8 8.00001C8.18889 8.00001 8.34722 8.0639 8.475 8.19168C8.60278 8.31945 8.66667 8.47779 8.66667 8.66668C8.66667 8.85557 8.60278 9.0139 8.475 9.14168C8.34722 9.26945 8.18889 9.33334 8 9.33334ZM5.33333 9.33334C5.14444 9.33334 4.98611 9.26945 4.85833 9.14168C4.73056 9.0139 4.66667 8.85557 4.66667 8.66668C4.66667 8.47779 4.73056 8.31945 4.85833 8.19168C4.98611 8.0639 5.14444 8.00001 5.33333 8.00001C5.52222 8.00001 5.68056 8.0639 5.80833 8.19168C5.93611 8.31945 6 8.47779 6 8.66668C6 8.85557 5.93611 9.0139 5.80833 9.14168C5.68056 9.26945 5.52222 9.33334 5.33333 9.33334ZM10.6667 9.33334C10.4778 9.33334 10.3194 9.26945 10.1917 9.14168C10.0639 9.0139 10 8.85557 10 8.66668C10 8.47779 10.0639 8.31945 10.1917 8.19168C10.3194 8.0639 10.4778 8.00001 10.6667 8.00001C10.8556 8.00001 11.0139 8.0639 11.1417 8.19168C11.2694 8.31945 11.3333 8.47779 11.3333 8.66668C11.3333 8.85557 11.2694 9.0139 11.1417 9.14168C11.0139 9.26945 10.8556 9.33334 10.6667 9.33334ZM8 12C7.81111 12 7.65278 11.9361 7.525 11.8083C7.39722 11.6806 7.33333 11.5222 7.33333 11.3333C7.33333 11.1445 7.39722 10.9861 7.525 10.8583C7.65278 10.7306 7.81111 10.6667 8 10.6667C8.18889 10.6667 8.34722 10.7306 8.475 10.8583C8.60278 10.9861 8.66667 11.1445 8.66667 11.3333C8.66667 11.5222 8.60278 11.6806 8.475 11.8083C8.34722 11.9361 8.18889 12 8 12ZM5.33333 12C5.14444 12 4.98611 11.9361 4.85833 11.8083C4.73056 11.6806 4.66667 11.5222 4.66667 11.3333C4.66667 11.1445 4.73056 10.9861 4.85833 10.8583C4.98611 10.7306 5.14444 10.6667 5.33333 10.6667C5.52222 10.6667 5.68056 10.7306 5.80833 10.8583C5.93611 10.9861 6 11.1445 6 11.3333C6 11.5222 5.93611 11.6806 5.80833 11.8083C5.68056 11.9361 5.52222 12 5.33333 12ZM10.6667 12C10.4778 12 10.3194 11.9361 10.1917 11.8083C10.0639 11.6806 10 11.5222 10 11.3333C10 11.1445 10.0639 10.9861 10.1917 10.8583C10.3194 10.7306 10.4778 10.6667 10.6667 10.6667C10.8556 10.6667 11.0139 10.7306 11.1417 10.8583C11.2694 10.9861 11.3333 11.1445 11.3333 11.3333C11.3333 11.5222 11.2694 11.6806 11.1417 11.8083C11.0139 11.9361 10.8556 12 10.6667 12Z" fill="#212121"/>
</g>
</svg>
