<svg width="16" height="16" viewBox="0 0 16 16" fill="none" xmlns="http://www.w3.org/2000/svg">
<mask id="mask0_4066_954" style="mask-type:alpha" maskUnits="userSpaceOnUse" x="0" y="0" width="16" height="16">
<rect width="16" height="16" fill="#D9D9D9"/>
</mask>
<g mask="url(#mask0_4066_954)">
<path d="M7.99996 10.6667C7.87241 10.6667 7.75282 10.6497 7.64121 10.6158C7.52961 10.5819 7.42597 10.5242 7.3303 10.4428L2.92971 6.69721C2.75432 6.54793 2.66663 6.35794 2.66663 6.12724C2.66663 5.89653 2.75432 5.70654 2.92971 5.55726C3.10509 5.40798 3.32831 5.33334 3.59936 5.33334C3.87041 5.33334 4.09363 5.40798 4.26902 5.55726L7.99996 8.73283L11.7309 5.55726C11.9063 5.40798 12.1295 5.33334 12.4006 5.33334C12.6716 5.33334 12.8948 5.40798 13.0702 5.55726C13.2456 5.70654 13.3333 5.89653 13.3333 6.12724C13.3333 6.35794 13.2456 6.54793 13.0702 6.69721L8.66962 10.4428C8.57395 10.5242 8.47031 10.5819 8.3587 10.6158C8.24709 10.6497 8.12751 10.6667 7.99996 10.6667Z" fill="#212121"/>
</g>
</svg>
