<svg width="20" height="20" viewBox="0 0 20 20" fill="none" xmlns="http://www.w3.org/2000/svg">
<mask id="mask0_4066_804" style="mask-type:alpha" maskUnits="userSpaceOnUse" x="0" y="0" width="20" height="20">
<rect width="20" height="20" fill="#D9D9D9"/>
</mask>
<g mask="url(#mask0_4066_804)">
<path d="M10 13.3333C9.8406 13.3333 9.69112 13.3121 9.55161 13.2697C9.4121 13.2273 9.28255 13.1552 9.16297 13.0534L3.66222 8.37149C3.44299 8.18489 3.33337 7.9474 3.33337 7.65902C3.33337 7.37064 3.44299 7.13315 3.66222 6.94655C3.88146 6.75996 4.16048 6.66666 4.49929 6.66666C4.83811 6.66666 5.11713 6.75996 5.33636 6.94655L10 10.916L14.6637 6.94655C14.883 6.75996 15.162 6.66666 15.5008 6.66666C15.8396 6.66666 16.1186 6.75996 16.3379 6.94655C16.5571 7.13315 16.6667 7.37064 16.6667 7.65902C16.6667 7.9474 16.5571 8.18489 16.3379 8.37149L10.8371 13.0534C10.7175 13.1552 10.588 13.2273 10.4485 13.2697C10.309 13.3121 10.1595 13.3333 10 13.3333Z" fill="#212121"/>
</g>
</svg>
