<svg width="20" height="20" viewBox="0 0 20 20" fill="none" xmlns="http://www.w3.org/2000/svg">
<mask id="mask0_4066_785" style="mask-type:alpha" maskUnits="userSpaceOnUse" x="0" y="0" width="20" height="20">
<rect width="20" height="20" fill="#D9D9D9"/>
</mask>
<g mask="url(#mask0_4066_785)">
<path d="M6.66667 7.50001C6.43056 7.50001 6.23264 7.42015 6.07292 7.26043C5.91319 7.1007 5.83333 6.90279 5.83333 6.66668C5.83333 6.43057 5.91319 6.23265 6.07292 6.07293C6.23264 5.9132 6.43056 5.83334 6.66667 5.83334H16.6667C16.9028 5.83334 17.1007 5.9132 17.2604 6.07293C17.4201 6.23265 17.5 6.43057 17.5 6.66668C17.5 6.90279 17.4201 7.1007 17.2604 7.26043C17.1007 7.42015 16.9028 7.50001 16.6667 7.50001H6.66667ZM6.66667 10.8333C6.43056 10.8333 6.23264 10.7535 6.07292 10.5938C5.91319 10.434 5.83333 10.2361 5.83333 10C5.83333 9.7639 5.91319 9.56598 6.07292 9.40626C6.23264 9.24654 6.43056 9.16668 6.66667 9.16668H16.6667C16.9028 9.16668 17.1007 9.24654 17.2604 9.40626C17.4201 9.56598 17.5 9.7639 17.5 10C17.5 10.2361 17.4201 10.434 17.2604 10.5938C17.1007 10.7535 16.9028 10.8333 16.6667 10.8333H6.66667ZM6.66667 14.1667C6.43056 14.1667 6.23264 14.0868 6.07292 13.9271C5.91319 13.7674 5.83333 13.5695 5.83333 13.3333C5.83333 13.0972 5.91319 12.8993 6.07292 12.7396C6.23264 12.5799 6.43056 12.5 6.66667 12.5H16.6667C16.9028 12.5 17.1007 12.5799 17.2604 12.7396C17.4201 12.8993 17.5 13.0972 17.5 13.3333C17.5 13.5695 17.4201 13.7674 17.2604 13.9271C17.1007 14.0868 16.9028 14.1667 16.6667 14.1667H6.66667ZM3.33333 7.50001C3.09722 7.50001 2.89931 7.42015 2.73958 7.26043C2.57986 7.1007 2.5 6.90279 2.5 6.66668C2.5 6.43057 2.57986 6.23265 2.73958 6.07293C2.89931 5.9132 3.09722 5.83334 3.33333 5.83334C3.56944 5.83334 3.76736 5.9132 3.92708 6.07293C4.08681 6.23265 4.16667 6.43057 4.16667 6.66668C4.16667 6.90279 4.08681 7.1007 3.92708 7.26043C3.76736 7.42015 3.56944 7.50001 3.33333 7.50001ZM3.33333 10.8333C3.09722 10.8333 2.89931 10.7535 2.73958 10.5938C2.57986 10.434 2.5 10.2361 2.5 10C2.5 9.7639 2.57986 9.56598 2.73958 9.40626C2.89931 9.24654 3.09722 9.16668 3.33333 9.16668C3.56944 9.16668 3.76736 9.24654 3.92708 9.40626C4.08681 9.56598 4.16667 9.7639 4.16667 10C4.16667 10.2361 4.08681 10.434 3.92708 10.5938C3.76736 10.7535 3.56944 10.8333 3.33333 10.8333ZM3.33333 14.1667C3.09722 14.1667 2.89931 14.0868 2.73958 13.9271C2.57986 13.7674 2.5 13.5695 2.5 13.3333C2.5 13.0972 2.57986 12.8993 2.73958 12.7396C2.89931 12.5799 3.09722 12.5 3.33333 12.5C3.56944 12.5 3.76736 12.5799 3.92708 12.7396C4.08681 12.8993 4.16667 13.0972 4.16667 13.3333C4.16667 13.5695 4.08681 13.7674 3.92708 13.9271C3.76736 14.0868 3.56944 14.1667 3.33333 14.1667Z" fill="#212121"/>
</g>
</svg>
