<svg width="20" height="20" viewBox="0 0 20 20" fill="none" xmlns="http://www.w3.org/2000/svg">
<mask id="mask0_4066_805" style="mask-type:alpha" maskUnits="userSpaceOnUse" x="0" y="0" width="20" height="20">
<rect width="20" height="20" fill="#D9D9D9"/>
</mask>
<g mask="url(#mask0_4066_805)">
<path d="M10 6.66668C9.8406 6.66668 9.69112 6.68788 9.55161 6.73029C9.4121 6.7727 9.28255 6.84479 9.16297 6.94658L3.66222 11.6285C3.44299 11.8151 3.33337 12.0526 3.33337 12.341C3.33337 12.6294 3.44299 12.8668 3.66222 13.0534C3.88146 13.24 4.16048 13.3333 4.49929 13.3333C4.83811 13.3333 5.11713 13.24 5.33636 13.0534L10 9.08398L14.6637 13.0534C14.883 13.24 15.162 13.3333 15.5008 13.3333C15.8396 13.3333 16.1186 13.24 16.3379 13.0534C16.5571 12.8668 16.6667 12.6294 16.6667 12.341C16.6667 12.0526 16.5571 11.8151 16.3379 11.6285L10.8371 6.94658C10.7175 6.84479 10.588 6.7727 10.4485 6.73029C10.309 6.68788 10.1595 6.66668 10 6.66668Z" fill="#212121"/>
</g>
</svg>
