<svg width="20" height="20" viewBox="0 0 20 20" fill="none" xmlns="http://www.w3.org/2000/svg">
<path d="M10 13.2C11.0494 13.2 11.9415 13.8735 12.2676 14.8119L12.3067 14.8054L12.4 14.8H17.2C17.6419 14.8 18 15.1581 18 15.6C18 16.0103 17.6912 16.3484 17.2933 16.3946L17.2 16.4H12.4C12.3548 16.4 12.3104 16.3962 12.2672 16.389C11.9415 17.3264 11.0495 18 10 18C8.95054 18 8.05849 17.3264 7.73237 16.388L7.69331 16.3946L7.60001 16.4H2.80001C2.35815 16.4 2.00001 16.0418 2.00001 15.6C2.00001 15.1897 2.30883 14.8516 2.70669 14.8054L2.79999 14.8H7.59999C7.64519 14.8 7.68961 14.8038 7.73281 14.8109C8.05846 13.8735 8.95055 13.2 10 13.2ZM10 14.8C9.55815 14.8 9.20001 15.1581 9.20001 15.6C9.20001 16.0419 9.55815 16.4 10 16.4C10.4419 16.4 10.8 16.0419 10.8 15.6C10.8 15.1581 10.4419 14.8 10 14.8ZM4.40001 7.6C5.44943 7.6 6.34152 8.27354 6.66763 9.21194L6.7067 9.20536L6.8 9.2H17.2C17.6419 9.2 18 9.55814 18 10C18 10.4103 17.6912 10.7484 17.2933 10.7946L17.2 10.8H6.80001C6.75481 10.8 6.71039 10.7962 6.6672 10.789C6.34154 11.7264 5.44946 12.4 4.4 12.4C3.07454 12.4 2 11.3254 2 9.99999C2 8.67454 3.07455 7.6 4.40001 7.6ZM4.40001 9.2C3.95815 9.2 3.60001 9.55814 3.60001 10C3.60001 10.4419 3.95815 10.8 4.40001 10.8C4.84186 10.8 5.20001 10.4419 5.20001 10C5.20001 9.55814 4.84186 9.2 4.40001 9.2ZM13.2 2C14.2494 2 15.1415 2.67354 15.4676 3.61194L15.5067 3.60536L15.6 3.6H17.2C17.6419 3.6 18 3.95814 18 4.4C18 4.81026 17.6912 5.14843 17.2933 5.19463L17.2 5.19999H15.6C15.5548 5.19999 15.5104 5.19619 15.4672 5.18905C15.1415 6.12645 14.2495 6.79999 13.2 6.79999C12.1505 6.79999 11.2585 6.12645 10.9324 5.18805L10.8933 5.19463L10.8 5.19999H2.80001C2.35815 5.19999 2.00001 4.84185 2.00001 4.39999C2.00001 3.98973 2.30883 3.65156 2.70669 3.60536L2.79999 3.60001H10.8C10.8452 3.60001 10.8896 3.6038 10.9328 3.61094C11.2585 2.67354 12.1505 2 13.2 2ZM13.2 3.6C12.7581 3.6 12.4 3.95814 12.4 4.4C12.4 4.84186 12.7581 5.2 13.2 5.2C13.6419 5.2 14 4.84186 14 4.4C14 3.95814 13.6419 3.6 13.2 3.6Z" fill="#212121"/>
</svg>
