<svg width="36" height="36" viewBox="0 0 36 36" fill="none" xmlns="http://www.w3.org/2000/svg">
<mask id="mask0_4066_256" style="mask-type:alpha" maskUnits="userSpaceOnUse" x="0" y="0" width="36" height="36">
<rect width="36" height="36" fill="#D9D9D9"/>
</mask>
<g mask="url(#mask0_4066_256)">
<path d="M6 30C5.175 30 4.46875 29.7063 3.88125 29.1188C3.29375 28.5313 3 27.825 3 27V9C3 8.175 3.29375 7.46875 3.88125 6.88125C4.46875 6.29375 5.175 6 6 6H30C30.825 6 31.5313 6.29375 32.1188 6.88125C32.7063 7.46875 33 8.175 33 9V27C33 27.825 32.7063 28.5313 32.1188 29.1188C31.5313 29.7063 30.825 30 30 30H6ZM18 19.2375C18.125 19.2375 18.2562 19.2188 18.3937 19.1813C18.5312 19.1438 18.6625 19.0875 18.7875 19.0125L29.4 12.375C29.6 12.25 29.75 12.0938 29.85 11.9062C29.95 11.7188 30 11.5125 30 11.2875C30 10.7875 29.7875 10.4125 29.3625 10.1625C28.9375 9.9125 28.5 9.925 28.05 10.2L18 16.5L7.95 10.2C7.5 9.925 7.0625 9.91875 6.6375 10.1813C6.2125 10.4438 6 10.8125 6 11.2875C6 11.5375 6.05 11.7563 6.15 11.9438C6.25 12.1313 6.4 12.275 6.6 12.375L17.2125 19.0125C17.3375 19.0875 17.4688 19.1438 17.6063 19.1813C17.7438 19.2188 17.875 19.2375 18 19.2375Z" fill="#212121"/>
</g>
</svg>
