<svg width="20" height="20" viewBox="0 0 20 20" fill="none" xmlns="http://www.w3.org/2000/svg">
<mask id="mask0_4066_772" style="mask-type:alpha" maskUnits="userSpaceOnUse" x="0" y="0" width="20" height="20">
<rect width="20" height="20" fill="#D9D9D9"/>
</mask>
<g mask="url(#mask0_4066_772)">
<path d="M3.33329 16.6667C2.87496 16.6667 2.4826 16.5035 2.15621 16.1771C1.82982 15.8507 1.66663 15.4583 1.66663 15V5.00001C1.66663 4.54168 1.82982 4.14932 2.15621 3.82293C2.4826 3.49654 2.87496 3.33334 3.33329 3.33334H16.6666C17.125 3.33334 17.5173 3.49654 17.8437 3.82293C18.1701 4.14932 18.3333 4.54168 18.3333 5.00001V15C18.3333 15.4583 18.1701 15.8507 17.8437 16.1771C17.5173 16.5035 17.125 16.6667 16.6666 16.6667H3.33329ZM9.99996 10.6875C10.0694 10.6875 10.1423 10.6771 10.2187 10.6563C10.2951 10.6354 10.368 10.6042 10.4375 10.5625L16.3333 6.87501C16.4444 6.80557 16.5277 6.71876 16.5833 6.61459C16.6388 6.51043 16.6666 6.39584 16.6666 6.27084C16.6666 5.99307 16.5486 5.78473 16.3125 5.64584C16.0763 5.50695 15.8333 5.5139 15.5833 5.66668L9.99996 9.16668L4.41663 5.66668C4.16663 5.5139 3.92357 5.51043 3.68746 5.65626C3.45135 5.80209 3.33329 6.00695 3.33329 6.27084C3.33329 6.40973 3.36107 6.53126 3.41663 6.63543C3.47218 6.73959 3.55551 6.81945 3.66663 6.87501L9.56246 10.5625C9.6319 10.6042 9.70482 10.6354 9.78121 10.6563C9.8576 10.6771 9.93051 10.6875 9.99996 10.6875Z" fill="#212121"/>
</g>
</svg>
