<svg width="20" height="20" viewBox="0 0 20 20" fill="none" xmlns="http://www.w3.org/2000/svg">
<mask id="mask0_4066_776" style="mask-type:alpha" maskUnits="userSpaceOnUse" x="0" y="0" width="20" height="20">
<rect width="20" height="20" fill="#D9D9D9"/>
</mask>
<g mask="url(#mask0_4066_776)">
<path d="M6.54175 10.8333L8.91675 13.2083C9.08341 13.375 9.16328 13.5694 9.15633 13.7917C9.14939 14.0139 9.06953 14.2083 8.91675 14.375C8.75008 14.5417 8.55216 14.6285 8.323 14.6354C8.09383 14.6424 7.89591 14.5625 7.72925 14.3958L3.91675 10.5833C3.75008 10.4167 3.66675 10.2222 3.66675 10C3.66675 9.77778 3.75008 9.58333 3.91675 9.41667L7.72925 5.60417C7.89591 5.4375 8.09383 5.35764 8.323 5.36458C8.55216 5.37153 8.75008 5.45833 8.91675 5.625C9.06953 5.79167 9.14939 5.98611 9.15633 6.20833C9.16328 6.43056 9.08341 6.625 8.91675 6.79167L6.54175 9.16667H15.8334C16.0695 9.16667 16.2674 9.24653 16.4272 9.40625C16.5869 9.56597 16.6667 9.76389 16.6667 10C16.6667 10.2361 16.5869 10.434 16.4272 10.5938C16.2674 10.7535 16.0695 10.8333 15.8334 10.8333H6.54175Z" fill="#212121"/>
</g>
</svg>
