<svg width="20" height="20" viewBox="0 0 20 20" fill="none" xmlns="http://www.w3.org/2000/svg">
<mask id="mask0_4066_803" style="mask-type:alpha" maskUnits="userSpaceOnUse" x="0" y="0" width="20" height="20">
<rect width="20" height="20" fill="#D9D9D9"/>
</mask>
<g mask="url(#mask0_4066_803)">
<path d="M7.5925 11.2037C8.25728 11.2037 8.7962 10.6648 8.7962 10C8.7962 9.33524 8.25728 8.79633 7.5925 8.79633C6.92771 8.79633 6.38879 9.33524 6.38879 10C6.38879 10.6648 6.92771 11.2037 7.5925 11.2037Z" fill="#212121"/>
<path d="M12.4073 11.2037C13.0721 11.2037 13.611 10.6648 13.611 10C13.611 9.33524 13.0721 8.79633 12.4073 8.79633C11.7425 8.79633 11.2036 9.33524 11.2036 10C11.2036 10.6648 11.7425 11.2037 12.4073 11.2037Z" fill="#212121"/>
<path d="M7.5925 6.38888C8.25728 6.38888 8.7962 5.84997 8.7962 5.18518C8.7962 4.52039 8.25728 3.98148 7.5925 3.98148C6.92771 3.98148 6.38879 4.52039 6.38879 5.18518C6.38879 5.84997 6.92771 6.38888 7.5925 6.38888Z" fill="#212121"/>
<path d="M12.4073 6.38888C13.0721 6.38888 13.611 5.84997 13.611 5.18518C13.611 4.52039 13.0721 3.98148 12.4073 3.98148C11.7425 3.98148 11.2036 4.52039 11.2036 5.18518C11.2036 5.84997 11.7425 6.38888 12.4073 6.38888Z" fill="#212121"/>
<path d="M7.5925 16.0185C8.25728 16.0185 8.7962 15.4796 8.7962 14.8148C8.7962 14.15 8.25728 13.6111 7.5925 13.6111C6.92771 13.6111 6.38879 14.15 6.38879 14.8148C6.38879 15.4796 6.92771 16.0185 7.5925 16.0185Z" fill="#212121"/>
<path d="M12.4073 16.0185C13.0721 16.0185 13.611 15.4796 13.611 14.8148C13.611 14.15 13.0721 13.6111 12.4073 13.6111C11.7425 13.6111 11.2036 14.15 11.2036 14.8148C11.2036 15.4796 11.7425 16.0185 12.4073 16.0185Z" fill="#212121"/>
</g>
</svg>
