<svg width="24" height="24" viewBox="0 0 24 24" fill="none" xmlns="http://www.w3.org/2000/svg">
<mask id="mask0_4066_443" style="mask-type:alpha" maskUnits="userSpaceOnUse" x="0" y="0" width="24" height="24">
<rect width="24" height="24" fill="#D9D9D9"/>
</mask>
<g mask="url(#mask0_4066_443)">
<path d="M20.4095 7.24433C20.8941 6.7598 21.1665 6.10259 21.1665 5.41728C21.1666 4.73196 20.8945 4.07468 20.4099 3.59003C19.9254 3.10539 19.2682 2.83306 18.5829 2.83298C17.8976 2.83289 17.2403 3.10505 16.7556 3.58958L4.52181 15.8262C4.30898 16.0384 4.15158 16.2996 4.06348 16.587L2.85256 20.5763C2.82887 20.6556 2.82708 20.7398 2.84739 20.82C2.86769 20.9002 2.90932 20.9735 2.96788 21.0319C3.02643 21.0904 3.09972 21.1319 3.17996 21.1521C3.2602 21.1722 3.34441 21.1703 3.42365 21.1465L7.4139 19.9365C7.70097 19.8492 7.96222 19.6927 8.17473 19.4809L20.4095 7.24433Z" stroke="#212121" stroke-width="2" stroke-linecap="round" stroke-linejoin="round"/>
</g>
</svg>
