<svg width="16" height="16" viewBox="0 0 16 16" fill="none" xmlns="http://www.w3.org/2000/svg">
<path d="M8.00004 13.9833L7.31671 13.3667C5.5056 11.7111 4.0556 10.2667 2.96671 9.03333C1.87782 7.8 1.33337 6.55 1.33337 5.28333C1.33337 4.28333 1.66949 3.44722 2.34171 2.775C3.01393 2.10277 3.84448 1.76666 4.83337 1.76666C5.40004 1.76666 5.96115 1.90277 6.51671 2.175C7.07226 2.44722 7.56671 2.89444 8.00004 3.51666C8.48893 2.89444 8.99448 2.44722 9.51671 2.175C10.0389 1.90277 10.5889 1.76666 11.1667 1.76666C12.1556 1.76666 12.9862 2.10277 13.6584 2.775C14.3306 3.44722 14.6667 4.28333 14.6667 5.28333C14.6667 6.55 14.1223 7.8 13.0334 9.03333C11.9445 10.2667 10.4945 11.7111 8.68337 13.3667L8.00004 13.9833ZM8.00004 12.6667C9.68893 11.1111 11.0556 9.76111 12.1 8.61666C13.1445 7.47222 13.6667 6.36111 13.6667 5.28333C13.6667 4.55 13.4306 3.94722 12.9584 3.475C12.4862 3.00277 11.8889 2.76666 11.1667 2.76666C10.6112 2.76666 10.0889 2.93888 9.60004 3.28333C9.11115 3.62777 8.71115 4.12222 8.40004 4.76666H7.58337C7.28337 4.12222 6.88615 3.62777 6.39171 3.28333C5.89726 2.93888 5.37782 2.76666 4.83337 2.76666C4.10004 2.76666 3.50004 3.00277 3.03337 3.475C2.56671 3.94722 2.33337 4.55 2.33337 5.28333C2.33337 6.36111 2.8556 7.47222 3.90004 8.61666C4.94448 9.76111 6.31115 11.1111 8.00004 12.6667Z" fill="#212121"/>
</svg>
