<svg width="24" height="24" viewBox="0 0 24 24" fill="none" xmlns="http://www.w3.org/2000/svg">
<mask id="mask0_4066_448" style="mask-type:alpha" maskUnits="userSpaceOnUse" x="0" y="0" width="24" height="24">
<rect width="24" height="24" fill="#D9D9D9"/>
</mask>
<g mask="url(#mask0_4066_448)">
<path d="M10.9008 12L15.6641 17.5964C15.888 17.8595 16 18.1943 16 18.6009C16 19.0075 15.888 19.3423 15.6641 19.6054C15.4402 19.8685 15.1552 20 14.8092 20C14.4631 20 14.1781 19.8685 13.9542 19.6054L8.33588 13.0045C8.21374 12.861 8.12723 12.7055 8.07634 12.5381C8.02545 12.3707 8 12.1913 8 12C8 11.8087 8.02545 11.6293 8.07634 11.4619C8.12723 11.2945 8.21374 11.139 8.33588 10.9955L13.9542 4.39462C14.1781 4.13154 14.4631 4 14.8092 4C15.1552 4 15.4402 4.13154 15.6641 4.39462C15.888 4.6577 16 4.99253 16 5.3991C16 5.80568 15.888 6.14051 15.6641 6.40359L10.9008 12Z" fill="#212121"/>
</g>
</svg>
