<svg width="20" height="20" viewBox="0 0 20 20" fill="none" xmlns="http://www.w3.org/2000/svg">
<mask id="mask0_4066_791" style="mask-type:alpha" maskUnits="userSpaceOnUse" x="0" y="0" width="20" height="20">
<rect width="20" height="20" fill="#D9D9D9"/>
</mask>
<g mask="url(#mask0_4066_791)">
<path d="M10.0208 17.5C9.7847 17.5 9.58678 17.4201 9.42706 17.2604C9.26734 17.1007 9.18747 16.9028 9.18747 16.6667V15.7083C8.56247 15.5694 8.01386 15.3264 7.54164 14.9792C7.06942 14.6319 6.68747 14.1458 6.39581 13.5208C6.29859 13.3264 6.29511 13.1215 6.38539 12.9062C6.47567 12.691 6.63886 12.5347 6.87497 12.4375C7.06942 12.3542 7.27081 12.3576 7.47914 12.4479C7.68747 12.5382 7.8472 12.6875 7.95831 12.8958C8.19442 13.3125 8.49303 13.6285 8.85414 13.8437C9.21525 14.059 9.6597 14.1667 10.1875 14.1667C10.7569 14.1667 11.2396 14.0382 11.6354 13.7813C12.0312 13.5243 12.2291 13.125 12.2291 12.5833C12.2291 12.0972 12.0764 11.7118 11.7708 11.4271C11.4653 11.1424 10.7569 10.8194 9.64581 10.4583C8.45136 10.0833 7.63192 9.63542 7.18747 9.11458C6.74303 8.59375 6.52081 7.95833 6.52081 7.20833C6.52081 6.30556 6.81247 5.60417 7.39581 5.10417C7.97914 4.60417 8.57636 4.31944 9.18747 4.25V3.33333C9.18747 3.09722 9.26734 2.89931 9.42706 2.73958C9.58678 2.57986 9.7847 2.5 10.0208 2.5C10.2569 2.5 10.4548 2.57986 10.6146 2.73958C10.7743 2.89931 10.8541 3.09722 10.8541 3.33333V4.25C11.3819 4.33333 11.8403 4.50347 12.2291 4.76042C12.618 5.01736 12.9375 5.33333 13.1875 5.70833C13.3125 5.88889 13.3368 6.09028 13.2604 6.3125C13.184 6.53472 13.0278 6.69444 12.7916 6.79167C12.5972 6.875 12.3958 6.87847 12.1875 6.80208C11.9791 6.72569 11.7847 6.59028 11.6041 6.39583C11.4236 6.20139 11.2118 6.05208 10.9687 5.94792C10.7257 5.84375 10.4236 5.79167 10.0625 5.79167C9.45136 5.79167 8.98609 5.92708 8.66664 6.19792C8.3472 6.46875 8.18747 6.80556 8.18747 7.20833C8.18747 7.66667 8.39581 8.02778 8.81247 8.29167C9.22914 8.55556 9.95136 8.83333 10.9791 9.125C11.9375 9.40278 12.6632 9.84375 13.1562 10.4479C13.6493 11.0521 13.8958 11.75 13.8958 12.5417C13.8958 13.5278 13.6041 14.2778 13.0208 14.7917C12.4375 15.3056 11.7153 15.625 10.8541 15.75V16.6667C10.8541 16.9028 10.7743 17.1007 10.6146 17.2604C10.4548 17.4201 10.2569 17.5 10.0208 17.5Z" fill="#212121"/>
</g>
</svg>
