<svg width="16" height="16" viewBox="0 0 16 16" fill="none" xmlns="http://www.w3.org/2000/svg">
<path d="M4.80033 13.3332H2.13367V5.33316H4.80033V13.3332ZM3.46753 4.26649C2.72993 4.26649 2.13367 3.66862 2.13367 2.93262C2.13367 2.19662 2.731 1.59982 3.46753 1.59982C4.20247 1.59982 4.80033 2.19769 4.80033 2.93262C4.80033 3.66862 4.20247 4.26649 3.46753 4.26649ZM14.4003 13.3332H11.8366V9.43982C11.8366 8.51129 11.819 7.31716 10.5038 7.31716C9.16887 7.31716 8.96353 8.32836 8.96353 9.37262V13.3332H6.40033V5.32729H8.86113V6.42116H8.8958C9.2382 5.79182 10.075 5.12836 11.323 5.12836C13.9203 5.12836 14.4003 6.78649 14.4003 8.94222C14.4003 8.94222 14.4003 13.3332 14.4003 13.3332Z" fill="#212121"/>
</svg>
