<svg width="20" height="20" viewBox="0 0 20 20" fill="none" xmlns="http://www.w3.org/2000/svg">
<mask id="mask0_4066_788" style="mask-type:alpha" maskUnits="userSpaceOnUse" x="0" y="0" width="20" height="20">
<rect width="20" height="20" fill="#D9D9D9"/>
</mask>
<g mask="url(#mask0_4066_788)">
<path d="M9.99996 14.1667C11.1527 14.1667 12.1354 13.7604 12.9479 12.9479C13.7604 12.1354 14.1666 11.1528 14.1666 9.99999C14.1666 8.84721 13.7604 7.86457 12.9479 7.05207C12.1354 6.23957 11.1527 5.83332 9.99996 5.83332C8.84718 5.83332 7.86454 6.23957 7.05204 7.05207C6.23954 7.86457 5.83329 8.84721 5.83329 9.99999C5.83329 11.1528 6.23954 12.1354 7.05204 12.9479C7.86454 13.7604 8.84718 14.1667 9.99996 14.1667ZM9.99996 18.3333C8.84718 18.3333 7.76385 18.1146 6.74996 17.6771C5.73607 17.2396 4.85413 16.6458 4.10413 15.8958C3.35413 15.1458 2.76038 14.2639 2.32288 13.25C1.88538 12.2361 1.66663 11.1528 1.66663 9.99999C1.66663 8.84721 1.88538 7.76388 2.32288 6.74999C2.76038 5.7361 3.35413 4.85416 4.10413 4.10416C4.85413 3.35416 5.73607 2.76041 6.74996 2.32291C7.76385 1.88541 8.84718 1.66666 9.99996 1.66666C11.1527 1.66666 12.2361 1.88541 13.25 2.32291C14.2638 2.76041 15.1458 3.35416 15.8958 4.10416C16.6458 4.85416 17.2395 5.7361 17.677 6.74999C18.1145 7.76388 18.3333 8.84721 18.3333 9.99999C18.3333 11.1528 18.1145 12.2361 17.677 13.25C17.2395 14.2639 16.6458 15.1458 15.8958 15.8958C15.1458 16.6458 14.2638 17.2396 13.25 17.6771C12.2361 18.1146 11.1527 18.3333 9.99996 18.3333ZM9.99996 16.6667C11.8611 16.6667 13.4375 16.0208 14.7291 14.7292C16.0208 13.4375 16.6666 11.8611 16.6666 9.99999C16.6666 8.13888 16.0208 6.56249 14.7291 5.27082C13.4375 3.97916 11.8611 3.33332 9.99996 3.33332C8.13885 3.33332 6.56246 3.97916 5.27079 5.27082C3.97913 6.56249 3.33329 8.13888 3.33329 9.99999C3.33329 11.8611 3.97913 13.4375 5.27079 14.7292C6.56246 16.0208 8.13885 16.6667 9.99996 16.6667Z" fill="#212121"/>
</g>
</svg>
