<svg width="24" height="24" viewBox="0 0 24 24" fill="none" xmlns="http://www.w3.org/2000/svg">
<path d="M16.75 2.65039C18.2333 2.65039 19.479 3.15475 20.4873 4.16309C21.4956 5.17142 22 6.42578 22 7.92578C21.9999 9.82565 21.183 11.7009 19.5498 13.5508C17.9165 15.4007 15.7419 17.5676 13.0254 20.0508L12 20.9756L10.9746 20.0508C8.25811 17.5676 6.08349 15.4007 4.4502 13.5508C2.81697 11.7009 2.00011 9.82565 2 7.92578C2 6.42578 2.50436 5.17142 3.5127 4.16309C4.52103 3.15475 5.76667 2.65039 7.25 2.65039C8.1 2.65039 8.94206 2.85436 9.77539 3.2627C10.6086 3.67104 11.3501 4.34215 12 5.27539C12.7333 4.34206 13.4921 3.67103 14.2754 3.2627C15.0586 2.8545 15.8835 2.65039 16.75 2.65039Z" fill="#212121"/>
</svg>
