<svg width="20" height="20" viewBox="0 0 20 20" fill="none" xmlns="http://www.w3.org/2000/svg">
<mask id="mask0_4066_793" style="mask-type:alpha" maskUnits="userSpaceOnUse" x="0" y="0" width="20" height="20">
<rect width="20" height="20" fill="#D9D9D9"/>
</mask>
<g mask="url(#mask0_4066_793)">
<path d="M4.16667 18.3333C3.70833 18.3333 3.31597 18.1701 2.98958 17.8437C2.66319 17.5174 2.5 17.125 2.5 16.6667V4.99999C2.5 4.54166 2.66319 4.1493 2.98958 3.82291C3.31597 3.49652 3.70833 3.33332 4.16667 3.33332H5V2.49999C5 2.26388 5.07986 2.06596 5.23958 1.90624C5.39931 1.74652 5.59722 1.66666 5.83333 1.66666C6.06944 1.66666 6.26736 1.74652 6.42708 1.90624C6.58681 2.06596 6.66667 2.26388 6.66667 2.49999V3.33332H13.3333V2.49999C13.3333 2.26388 13.4132 2.06596 13.5729 1.90624C13.7326 1.74652 13.9306 1.66666 14.1667 1.66666C14.4028 1.66666 14.6007 1.74652 14.7604 1.90624C14.9201 2.06596 15 2.26388 15 2.49999V3.33332H15.8333C16.2917 3.33332 16.684 3.49652 17.0104 3.82291C17.3368 4.1493 17.5 4.54166 17.5 4.99999V16.6667C17.5 17.125 17.3368 17.5174 17.0104 17.8437C16.684 18.1701 16.2917 18.3333 15.8333 18.3333H4.16667ZM4.16667 16.6667H15.8333V8.33332H4.16667V16.6667ZM4.16667 6.66666H15.8333V4.99999H4.16667V6.66666ZM10 11.6667C9.76389 11.6667 9.56597 11.5868 9.40625 11.4271C9.24653 11.2674 9.16667 11.0694 9.16667 10.8333C9.16667 10.5972 9.24653 10.3993 9.40625 10.2396C9.56597 10.0799 9.76389 9.99999 10 9.99999C10.2361 9.99999 10.434 10.0799 10.5938 10.2396C10.7535 10.3993 10.8333 10.5972 10.8333 10.8333C10.8333 11.0694 10.7535 11.2674 10.5938 11.4271C10.434 11.5868 10.2361 11.6667 10 11.6667ZM6.66667 11.6667C6.43056 11.6667 6.23264 11.5868 6.07292 11.4271C5.91319 11.2674 5.83333 11.0694 5.83333 10.8333C5.83333 10.5972 5.91319 10.3993 6.07292 10.2396C6.23264 10.0799 6.43056 9.99999 6.66667 9.99999C6.90278 9.99999 7.10069 10.0799 7.26042 10.2396C7.42014 10.3993 7.5 10.5972 7.5 10.8333C7.5 11.0694 7.42014 11.2674 7.26042 11.4271C7.10069 11.5868 6.90278 11.6667 6.66667 11.6667ZM13.3333 11.6667C13.0972 11.6667 12.8993 11.5868 12.7396 11.4271C12.5799 11.2674 12.5 11.0694 12.5 10.8333C12.5 10.5972 12.5799 10.3993 12.7396 10.2396C12.8993 10.0799 13.0972 9.99999 13.3333 9.99999C13.5694 9.99999 13.7674 10.0799 13.9271 10.2396C14.0868 10.3993 14.1667 10.5972 14.1667 10.8333C14.1667 11.0694 14.0868 11.2674 13.9271 11.4271C13.7674 11.5868 13.5694 11.6667 13.3333 11.6667ZM10 15C9.76389 15 9.56597 14.9201 9.40625 14.7604C9.24653 14.6007 9.16667 14.4028 9.16667 14.1667C9.16667 13.9305 9.24653 13.7326 9.40625 13.5729C9.56597 13.4132 9.76389 13.3333 10 13.3333C10.2361 13.3333 10.434 13.4132 10.5938 13.5729C10.7535 13.7326 10.8333 13.9305 10.8333 14.1667C10.8333 14.4028 10.7535 14.6007 10.5938 14.7604C10.434 14.9201 10.2361 15 10 15ZM6.66667 15C6.43056 15 6.23264 14.9201 6.07292 14.7604C5.91319 14.6007 5.83333 14.4028 5.83333 14.1667C5.83333 13.9305 5.91319 13.7326 6.07292 13.5729C6.23264 13.4132 6.43056 13.3333 6.66667 13.3333C6.90278 13.3333 7.10069 13.4132 7.26042 13.5729C7.42014 13.7326 7.5 13.9305 7.5 14.1667C7.5 14.4028 7.42014 14.6007 7.26042 14.7604C7.10069 14.9201 6.90278 15 6.66667 15ZM13.3333 15C13.0972 15 12.8993 14.9201 12.7396 14.7604C12.5799 14.6007 12.5 14.4028 12.5 14.1667C12.5 13.9305 12.5799 13.7326 12.7396 13.5729C12.8993 13.4132 13.0972 13.3333 13.3333 13.3333C13.5694 13.3333 13.7674 13.4132 13.9271 13.5729C14.0868 13.7326 14.1667 13.9305 14.1667 14.1667C14.1667 14.4028 14.0868 14.6007 13.9271 14.7604C13.7674 14.9201 13.5694 15 13.3333 15Z" fill="#212121"/>
</g>
</svg>
