<svg width="24" height="24" viewBox="0 0 24 24" fill="none" xmlns="http://www.w3.org/2000/svg">
<path fill-rule="evenodd" clip-rule="evenodd" d="M11.998 5C12.0553 5.00001 18.2638 5.00245 19.8213 5.42871C20.6776 5.65935 21.3534 6.33405 21.584 7.19043C22.0122 8.75514 21.9951 12.0166 21.9951 12.0166C21.9951 12.0403 21.9942 15.2672 21.584 16.8262C21.3534 17.6825 20.6776 18.3573 19.8213 18.5879C18.2638 18.9978 12.0553 19 11.998 19C11.998 19 5.755 18.9995 4.17383 18.5713C3.31762 18.3406 2.64272 17.6658 2.41211 16.8096C2.00034 15.2613 2 12 2 12C2 12 2.00041 8.7549 2.41211 7.19043C2.64273 6.33419 3.33407 5.64277 4.17383 5.41211C5.73853 5.00034 11.998 5 11.998 5ZM10.0049 14.998L15.209 12L10.0049 9.00195V14.998Z" fill="#212121"/>
</svg>
