<svg width="16" height="16" viewBox="0 0 16 16" fill="none" xmlns="http://www.w3.org/2000/svg">
<mask id="mask0_4066_933" style="mask-type:alpha" maskUnits="userSpaceOnUse" x="0" y="0" width="16" height="16">
<rect width="16" height="16" fill="#D9D9D9"/>
</mask>
<g mask="url(#mask0_4066_933)">
<path d="M7.33333 5.86667L5.39999 7.80001C5.27777 7.92223 5.12221 7.98334 4.93333 7.98334C4.74444 7.98334 4.58888 7.92223 4.46666 7.80001C4.34444 7.67778 4.28333 7.52223 4.28333 7.33334C4.28333 7.14445 4.34444 6.98889 4.46666 6.86667L7.53333 3.80001C7.66666 3.66667 7.82221 3.60001 7.99999 3.60001C8.17777 3.60001 8.33333 3.66667 8.46666 3.80001L11.5333 6.86667C11.6555 6.98889 11.7167 7.14445 11.7167 7.33334C11.7167 7.52223 11.6555 7.67778 11.5333 7.80001C11.4111 7.92223 11.2555 7.98334 11.0667 7.98334C10.8778 7.98334 10.7222 7.92223 10.6 7.80001L8.66666 5.86667V11.3333C8.66666 11.5222 8.60277 11.6806 8.47499 11.8083C8.34721 11.9361 8.18888 12 7.99999 12C7.8111 12 7.65277 11.9361 7.52499 11.8083C7.39721 11.6806 7.33333 11.5222 7.33333 11.3333V5.86667Z" fill="#212121"/>
</g>
</svg>
