<svg width="36" height="36" viewBox="0 0 36 36" fill="none" xmlns="http://www.w3.org/2000/svg">
<mask id="mask0_4066_261" style="mask-type:alpha" maskUnits="userSpaceOnUse" x="0" y="0" width="36" height="36">
<rect width="36" height="36" fill="#D9D9D9"/>
</mask>
<g mask="url(#mask0_4066_261)">
<path d="M18 12C17.713 12 17.4439 12.0382 17.1928 12.1145C16.9417 12.1908 16.7085 12.3206 16.4933 12.5038L6.59193 20.9313C6.19731 21.2672 6 21.6947 6 22.2137C6 22.7328 6.19731 23.1603 6.59193 23.4962C6.98655 23.8321 7.48879 24 8.09865 24C8.70852 24 9.21076 23.8321 9.60538 23.4962L18 16.3511L26.3946 23.4962C26.7892 23.8321 27.2915 24 27.9013 24C28.5112 24 29.0135 23.8321 29.4081 23.4962C29.8027 23.1603 30 22.7328 30 22.2137C30 21.6947 29.8027 21.2672 29.4081 20.9313L19.5067 12.5038C19.2915 12.3206 19.0583 12.1908 18.8072 12.1145C18.5561 12.0382 18.287 12 18 12Z" fill="#212121"/>
</g>
</svg>
