<svg width="36" height="36" viewBox="0 0 36 36" fill="none" xmlns="http://www.w3.org/2000/svg">
<mask id="mask0_4066_280" style="mask-type:alpha" maskUnits="userSpaceOnUse" x="0" y="0" width="36" height="36">
<rect width="36" height="36" fill="#D9D9D9"/>
</mask>
<g mask="url(#mask0_4066_280)">
<path d="M11.25 16.5C9.8 16.5 8.5625 15.9875 7.5375 14.9625C6.5125 13.9375 6 12.7 6 11.25C6 9.8 6.5125 8.5625 7.5375 7.5375C8.5625 6.5125 9.8 6 11.25 6C12.7 6 13.9375 6.5125 14.9625 7.5375C15.9875 8.5625 16.5 9.8 16.5 11.25C16.5 12.7 15.9875 13.9375 14.9625 14.9625C13.9375 15.9875 12.7 16.5 11.25 16.5ZM11.25 13.5C11.875 13.5 12.4062 13.2813 12.8438 12.8438C13.2813 12.4062 13.5 11.875 13.5 11.25C13.5 10.625 13.2813 10.0938 12.8438 9.65625C12.4062 9.21875 11.875 9 11.25 9C10.625 9 10.0938 9.21875 9.65625 9.65625C9.21875 10.0938 9 10.625 9 11.25C9 11.875 9.21875 12.4062 9.65625 12.8438C10.0938 13.2813 10.625 13.5 11.25 13.5ZM24.75 30C23.3 30 22.0625 29.4875 21.0375 28.4625C20.0125 27.4375 19.5 26.2 19.5 24.75C19.5 23.3 20.0125 22.0625 21.0375 21.0375C22.0625 20.0125 23.3 19.5 24.75 19.5C26.2 19.5 27.4375 20.0125 28.4625 21.0375C29.4875 22.0625 30 23.3 30 24.75C30 26.2 29.4875 27.4375 28.4625 28.4625C27.4375 29.4875 26.2 30 24.75 30ZM24.75 27C25.375 27 25.9062 26.7813 26.3438 26.3438C26.7813 25.9062 27 25.375 27 24.75C27 24.125 26.7813 23.5938 26.3438 23.1562C25.9062 22.7187 25.375 22.5 24.75 22.5C24.125 22.5 23.5938 22.7187 23.1562 23.1562C22.7187 23.5938 22.5 24.125 22.5 24.75C22.5 25.375 22.7187 25.9062 23.1562 26.3438C23.5938 26.7813 24.125 27 24.75 27ZM7.05 28.95C6.775 28.675 6.6375 28.325 6.6375 27.9C6.6375 27.475 6.775 27.125 7.05 26.85L26.85 7.05C27.125 6.775 27.475 6.6375 27.9 6.6375C28.325 6.6375 28.675 6.775 28.95 7.05C29.225 7.325 29.3625 7.675 29.3625 8.1C29.3625 8.525 29.225 8.875 28.95 9.15L9.15 28.95C8.875 29.225 8.525 29.3625 8.1 29.3625C7.675 29.3625 7.325 29.225 7.05 28.95Z" fill="#212121"/>
</g>
</svg>
