<svg width="16" height="16" viewBox="0 0 16 16" fill="none" xmlns="http://www.w3.org/2000/svg">
<mask id="mask0_4066_921" style="mask-type:alpha" maskUnits="userSpaceOnUse" x="0" y="0" width="16" height="16">
<rect width="16" height="16" fill="#D9D9D9"/>
</mask>
<g mask="url(#mask0_4066_921)">
<path d="M2.66671 13.3333C2.30004 13.3333 1.98615 13.2028 1.72504 12.9417C1.46393 12.6805 1.33337 12.3667 1.33337 12V3.99999C1.33337 3.63332 1.46393 3.31943 1.72504 3.05832C1.98615 2.79721 2.30004 2.66666 2.66671 2.66666H13.3334C13.7 2.66666 14.0139 2.79721 14.275 3.05832C14.5362 3.31943 14.6667 3.63332 14.6667 3.99999V12C14.6667 12.3667 14.5362 12.6805 14.275 12.9417C14.0139 13.2028 13.7 13.3333 13.3334 13.3333H2.66671ZM13.3334 5.33332L8.35004 8.44999C8.29449 8.48332 8.23615 8.50832 8.17504 8.52499C8.11393 8.54166 8.0556 8.54999 8.00004 8.54999C7.94448 8.54999 7.88615 8.54166 7.82504 8.52499C7.76393 8.50832 7.7056 8.48332 7.65004 8.44999L2.66671 5.33332V12H13.3334V5.33332ZM8.00004 7.33332L13.3334 3.99999H2.66671L8.00004 7.33332ZM2.66671 5.49999V4.51666V4.53332V4.52499V5.49999Z" fill="#212121"/>
</g>
</svg>
