<svg width="36" height="36" viewBox="0 0 36 36" fill="none" xmlns="http://www.w3.org/2000/svg">
<mask id="mask0_4066_268" style="mask-type:alpha" maskUnits="userSpaceOnUse" x="0" y="0" width="36" height="36">
<rect width="36" height="36" fill="#D9D9D9"/>
</mask>
<g mask="url(#mask0_4066_268)">
<path d="M16.5 21.3V9C16.5 8.575 16.6438 8.21875 16.9313 7.93125C17.2188 7.64375 17.575 7.5 18 7.5C18.425 7.5 18.7813 7.64375 19.0688 7.93125C19.3563 8.21875 19.5 8.575 19.5 9V21.3L23.85 16.95C24.125 16.675 24.475 16.5375 24.9 16.5375C25.325 16.5375 25.675 16.675 25.95 16.95C26.225 17.225 26.3625 17.575 26.3625 18C26.3625 18.425 26.225 18.775 25.95 19.05L19.05 25.95C18.75 26.25 18.4 26.4 18 26.4C17.6 26.4 17.25 26.25 16.95 25.95L10.05 19.05C9.77501 18.775 9.63751 18.425 9.63751 18C9.63751 17.575 9.77501 17.225 10.05 16.95C10.325 16.675 10.675 16.5375 11.1 16.5375C11.525 16.5375 11.875 16.675 12.15 16.95L16.5 21.3Z" fill="#212121"/>
</g>
</svg>
