<svg width="36" height="36" viewBox="0 0 36 36" fill="none" xmlns="http://www.w3.org/2000/svg">
<mask id="mask0_4066_291" style="mask-type:alpha" maskUnits="userSpaceOnUse" x="0" y="0" width="36" height="36">
<rect width="36" height="36" fill="#D9D9D9"/>
</mask>
<g mask="url(#mask0_4066_291)">
<path d="M13.6667 20.1667C14.8633 20.1667 15.8333 19.1966 15.8333 18C15.8333 16.8034 14.8633 15.8333 13.6667 15.8333C12.47 15.8333 11.5 16.8034 11.5 18C11.5 19.1966 12.47 20.1667 13.6667 20.1667Z" fill="#212121"/>
<path d="M22.3333 20.1667C23.5299 20.1667 24.5 19.1966 24.5 18C24.5 16.8034 23.5299 15.8333 22.3333 15.8333C21.1367 15.8333 20.1667 16.8034 20.1667 18C20.1667 19.1966 21.1367 20.1667 22.3333 20.1667Z" fill="#212121"/>
<path d="M13.6667 11.5C14.8633 11.5 15.8333 10.5299 15.8333 9.33332C15.8333 8.13671 14.8633 7.16666 13.6667 7.16666C12.47 7.16666 11.5 8.13671 11.5 9.33332C11.5 10.5299 12.47 11.5 13.6667 11.5Z" fill="#212121"/>
<path d="M22.3333 11.5C23.5299 11.5 24.5 10.5299 24.5 9.33332C24.5 8.13671 23.5299 7.16666 22.3333 7.16666C21.1367 7.16666 20.1667 8.13671 20.1667 9.33332C20.1667 10.5299 21.1367 11.5 22.3333 11.5Z" fill="#212121"/>
<path d="M13.6667 28.8333C14.8633 28.8333 15.8333 27.8633 15.8333 26.6667C15.8333 25.47 14.8633 24.5 13.6667 24.5C12.47 24.5 11.5 25.47 11.5 26.6667C11.5 27.8633 12.47 28.8333 13.6667 28.8333Z" fill="#212121"/>
<path d="M22.3333 28.8333C23.5299 28.8333 24.5 27.8633 24.5 26.6667C24.5 25.47 23.5299 24.5 22.3333 24.5C21.1367 24.5 20.1667 25.47 20.1667 26.6667C20.1667 27.8633 21.1367 28.8333 22.3333 28.8333Z" fill="#212121"/>
</g>
</svg>
