<svg width="36" height="36" viewBox="0 0 36 36" fill="none" xmlns="http://www.w3.org/2000/svg">
<mask id="mask0_4066_270" style="mask-type:alpha" maskUnits="userSpaceOnUse" x="0" y="0" width="36" height="36">
<rect width="36" height="36" fill="#D9D9D9"/>
</mask>
<g mask="url(#mask0_4066_270)">
<path d="M16.3511 18L23.4962 26.3946C23.8321 26.7892 24 27.2915 24 27.9013C24 28.5112 23.8321 29.0135 23.4962 29.4081C23.1603 29.8027 22.7328 30 22.2137 30C21.6947 30 21.2672 29.8027 20.9313 29.4081L12.5038 19.5067C12.3206 19.2915 12.1908 19.0583 12.1145 18.8072C12.0382 18.5561 12 18.287 12 18C12 17.713 12.0382 17.4439 12.1145 17.1928C12.1908 16.9417 12.3206 16.7085 12.5038 16.4933L20.9313 6.59193C21.2672 6.19731 21.6947 6 22.2137 6C22.7328 6 23.1603 6.19731 23.4962 6.59193C23.8321 6.98655 24 7.48879 24 8.09865C24 8.70852 23.8321 9.21076 23.4962 9.60538L16.3511 18Z" fill="#212121"/>
</g>
</svg>
