<svg width="24" height="24" viewBox="0 0 24 24" fill="none" xmlns="http://www.w3.org/2000/svg">
<mask id="mask0_4066_425" style="mask-type:alpha" maskUnits="userSpaceOnUse" x="0" y="0" width="24" height="24">
<rect width="24" height="24" fill="#D9D9D9"/>
</mask>
<g mask="url(#mask0_4066_425)">
<path d="M11 8.79999L8.09999 11.7C7.91665 11.8833 7.68332 11.975 7.39999 11.975C7.11665 11.975 6.88332 11.8833 6.69999 11.7C6.51665 11.5167 6.42499 11.2833 6.42499 11C6.42499 10.7167 6.51665 10.4833 6.69999 10.3L11.3 5.69999C11.5 5.49999 11.7333 5.39999 12 5.39999C12.2667 5.39999 12.5 5.49999 12.7 5.69999L17.3 10.3C17.4833 10.4833 17.575 10.7167 17.575 11C17.575 11.2833 17.4833 11.5167 17.3 11.7C17.1167 11.8833 16.8833 11.975 16.6 11.975C16.3167 11.975 16.0833 11.8833 15.9 11.7L13 8.79999V17C13 17.2833 12.9042 17.5208 12.7125 17.7125C12.5208 17.9042 12.2833 18 12 18C11.7167 18 11.4792 17.9042 11.2875 17.7125C11.0958 17.5208 11 17.2833 11 17V8.79999Z" fill="#212121"/>
</g>
</svg>
