<svg width="36" height="36" viewBox="0 0 36 36" fill="none" xmlns="http://www.w3.org/2000/svg">
<mask id="mask0_4066_253" style="mask-type:alpha" maskUnits="userSpaceOnUse" x="0" y="0" width="36" height="36">
<rect width="36" height="36" fill="#D9D9D9"/>
</mask>
<g mask="url(#mask0_4066_253)">
<path d="M9.01969 27.75H13.5197V20.25C13.5197 19.825 13.6634 19.4688 13.9509 19.1813C14.2384 18.8938 14.5947 18.75 15.0197 18.75H21.0197C21.4447 18.75 21.8009 18.8938 22.0884 19.1813C22.3759 19.4688 22.5197 19.825 22.5197 20.25V27.75H27.0197V14.25L18.0197 7.5L9.01969 14.25V27.75ZM6.01969 27.75V14.25C6.01969 13.775 6.12594 13.325 6.33844 12.9C6.55094 12.475 6.84469 12.125 7.21969 11.85L16.2197 5.1C16.7447 4.7 17.3447 4.5 18.0197 4.5C18.6947 4.5 19.2947 4.7 19.8197 5.1L28.8197 11.85C29.1947 12.125 29.4884 12.475 29.7009 12.9C29.9134 13.325 30.0197 13.775 30.0197 14.25V27.75C30.0197 28.575 29.7259 29.2813 29.1384 29.8688C28.5509 30.4563 27.8447 30.75 27.0197 30.75H21.0197C20.5947 30.75 20.2384 30.6062 19.9509 30.3187C19.6634 30.0312 19.5197 29.675 19.5197 29.25V21.75H16.5197V29.25C16.5197 29.675 16.3759 30.0312 16.0884 30.3187C15.8009 30.6062 15.4447 30.75 15.0197 30.75H9.01969C8.19469 30.75 7.48844 30.4563 6.90094 29.8688C6.31344 29.2813 6.01969 28.575 6.01969 27.75Z" fill="#212121"/>
<path d="M12.6975 7.74113C13.3615 7.24361 14.3031 7.37857 14.8006 8.04258C15.2981 8.70659 15.1632 9.64819 14.4992 10.1457L3.90326 18.0849C3.23926 18.5824 2.29765 18.4474 1.80013 17.7834C1.30261 17.1194 1.43758 16.1778 2.10159 15.6803L12.6975 7.74113Z" fill="#212121"/>
<path d="M21.5872 10.1776C20.924 9.6791 20.7905 8.73741 21.289 8.07422C21.7874 7.41104 22.7291 7.27749 23.3923 7.77595L33.8275 15.6191C34.4907 16.1176 34.6242 17.0592 34.1258 17.7224C33.6273 18.3856 32.6856 18.5192 32.0224 18.0207L21.5872 10.1776Z" fill="#212121"/>
</g>
</svg>
