<svg width="20" height="20" viewBox="0 0 20 20" fill="none" xmlns="http://www.w3.org/2000/svg">
<mask id="mask0_4066_801" style="mask-type:alpha" maskUnits="userSpaceOnUse" x="0" y="0" width="20" height="20">
<rect width="20" height="20" fill="#D9D9D9"/>
</mask>
<g mask="url(#mask0_4066_801)">
<path d="M17.008 6.03696C17.4118 5.63319 17.6388 5.08552 17.6388 4.51442C17.6389 3.94333 17.4121 3.3956 17.0083 2.99172C16.6046 2.58785 16.0569 2.36091 15.4858 2.36084C14.9147 2.36077 14.367 2.58757 13.9631 2.99134L3.76824 13.1885C3.59088 13.3653 3.45972 13.5831 3.38629 13.8225L2.3772 17.147C2.35746 17.213 2.35596 17.2832 2.37288 17.35C2.3898 17.4169 2.4245 17.4779 2.47329 17.5266C2.52209 17.5753 2.58316 17.6099 2.65003 17.6267C2.7169 17.6436 2.78707 17.642 2.8531 17.6221L6.17831 16.6138C6.41754 16.541 6.63525 16.4106 6.81234 16.2341L17.008 6.03696Z" stroke="#212121" stroke-width="1.66667" stroke-linecap="round" stroke-linejoin="round"/>
</g>
</svg>
