<svg width="24" height="24" viewBox="0 0 24 24" fill="none" xmlns="http://www.w3.org/2000/svg">
<path d="M7.2005 19.9998H3.2005V7.99975H7.2005V19.9998ZM5.2013 6.39975C4.0949 6.39975 3.2005 5.50295 3.2005 4.39895C3.2005 3.29495 4.0965 2.39975 5.2013 2.39975C6.3037 2.39975 7.2005 3.29655 7.2005 4.39895C7.2005 5.50295 6.3037 6.39975 5.2013 6.39975ZM21.6005 19.9998H17.7549V14.1598C17.7549 12.767 17.7285 10.9758 15.7557 10.9758C13.7533 10.9758 13.4453 12.4925 13.4453 14.0589V19.9998H9.6005V7.99095H13.2917V9.63175H13.3437C13.8573 8.68775 15.1125 7.69255 16.9845 7.69255C20.8805 7.69255 21.6005 10.1798 21.6005 13.4134C21.6005 13.4134 21.6005 19.9998 21.6005 19.9998Z" fill="#212121"/>
</svg>
