<svg width="24" height="24" viewBox="0 0 24 24" fill="none" xmlns="http://www.w3.org/2000/svg">
<mask id="mask0_4066_449" style="mask-type:alpha" maskUnits="userSpaceOnUse" x="0" y="0" width="24" height="24">
<rect width="24" height="24" fill="#D9D9D9"/>
</mask>
<g mask="url(#mask0_4066_449)">
<path d="M13.0992 12L8.33588 6.40359C8.11196 6.14051 8 5.80568 8 5.3991C8 4.99253 8.11196 4.6577 8.33588 4.39462C8.5598 4.13154 8.84478 4 9.19084 4C9.5369 4 9.82188 4.13154 10.0458 4.39462L15.6641 10.9955C15.7863 11.139 15.8728 11.2945 15.9237 11.4619C15.9746 11.6293 16 11.8087 16 12C16 12.1913 15.9746 12.3707 15.9237 12.5381C15.8728 12.7055 15.7863 12.861 15.6641 13.0045L10.0458 19.6054C9.82188 19.8685 9.5369 20 9.19084 20C8.84478 20 8.5598 19.8685 8.33588 19.6054C8.11196 19.3423 8 19.0075 8 18.6009C8 18.1943 8.11196 17.8595 8.33588 17.5964L13.0992 12Z" fill="#212121"/>
</g>
</svg>
