<svg width="20" height="20" viewBox="0 0 20 20" fill="none" xmlns="http://www.w3.org/2000/svg">
<path d="M10 13.3333C11.0417 13.3333 11.9271 12.9688 12.6563 12.2396C13.3855 11.5104 13.75 10.625 13.75 9.58334C13.75 8.54168 13.3855 7.65626 12.6563 6.92709C11.9271 6.19793 11.0417 5.83334 10 5.83334C8.95837 5.83334 8.07296 6.19793 7.34379 6.92709C6.61462 7.65626 6.25004 8.54168 6.25004 9.58334C6.25004 10.625 6.61462 11.5104 7.34379 12.2396C8.07296 12.9688 8.95837 13.3333 10 13.3333ZM10 11.8333C9.37504 11.8333 8.84379 11.6146 8.40629 11.1771C7.96879 10.7396 7.75004 10.2083 7.75004 9.58334C7.75004 8.95834 7.96879 8.42709 8.40629 7.98959C8.84379 7.55209 9.37504 7.33334 10 7.33334C10.625 7.33334 11.1563 7.55209 11.5938 7.98959C12.0313 8.42709 12.25 8.95834 12.25 9.58334C12.25 10.2083 12.0313 10.7396 11.5938 11.1771C11.1563 11.6146 10.625 11.8333 10 11.8333ZM10 15.8333C7.97226 15.8333 6.12504 15.2674 4.45837 14.1354C2.79171 13.0035 1.58337 11.4861 0.833374 9.58334C1.58337 7.68057 2.79171 6.1632 4.45837 5.03126C6.12504 3.89932 7.97226 3.33334 10 3.33334C12.0278 3.33334 13.875 3.89932 15.5417 5.03126C17.2084 6.1632 18.4167 7.68057 19.1667 9.58334C18.4167 11.4861 17.2084 13.0035 15.5417 14.1354C13.875 15.2674 12.0278 15.8333 10 15.8333ZM10 14.1667C11.5695 14.1667 13.0105 13.7535 14.323 12.9271C15.6355 12.1007 16.6389 10.9861 17.3334 9.58334C16.6389 8.18057 15.6355 7.06598 14.323 6.23959C13.0105 5.4132 11.5695 5.00001 10 5.00001C8.4306 5.00001 6.98962 5.4132 5.67712 6.23959C4.36462 7.06598 3.36115 8.18057 2.66671 9.58334C3.36115 10.9861 4.36462 12.1007 5.67712 12.9271C6.98962 13.7535 8.4306 14.1667 10 14.1667Z" fill="#212121"/>
</svg>
