<svg width="20" height="20" viewBox="0 0 20 20" fill="none" xmlns="http://www.w3.org/2000/svg">
<mask id="mask0_4066_807" style="mask-type:alpha" maskUnits="userSpaceOnUse" x="0" y="0" width="20" height="20">
<rect width="20" height="20" fill="#D9D9D9"/>
</mask>
<g mask="url(#mask0_4066_807)">
<path d="M10.916 10L6.94652 5.33633C6.75993 5.1171 6.66663 4.83808 6.66663 4.49926C6.66663 4.16045 6.75993 3.88143 6.94652 3.66219C7.13312 3.44296 7.37061 3.33334 7.65899 3.33334C7.94737 3.33334 8.18486 3.44296 8.37146 3.66219L13.0534 9.16294C13.1552 9.28252 13.2273 9.41207 13.2697 9.55158C13.3121 9.69109 13.3333 9.84057 13.3333 10C13.3333 10.1595 13.3121 10.3089 13.2697 10.4484C13.2273 10.588 13.1552 10.7175 13.0534 10.8371L8.37146 16.3378C8.18486 16.5571 7.94737 16.6667 7.65899 16.6667C7.37061 16.6667 7.13312 16.5571 6.94652 16.3378C6.75993 16.1186 6.66663 15.8396 6.66663 15.5008C6.66663 15.1619 6.75993 14.8829 6.94652 14.6637L10.916 10Z" fill="#212121"/>
</g>
</svg>
