<svg width="20" height="20" viewBox="0 0 20 20" fill="none" xmlns="http://www.w3.org/2000/svg">
<path d="M6.00045 16.6665H2.66711V6.66645H6.00045V16.6665ZM4.33445 5.33312C3.41245 5.33312 2.66711 4.58579 2.66711 3.66579C2.66711 2.74579 3.41378 1.99979 4.33445 1.99979C5.25311 1.99979 6.00045 2.74712 6.00045 3.66579C6.00045 4.58579 5.25311 5.33312 4.33445 5.33312ZM18.0004 16.6665H14.7958V11.7998C14.7958 10.6391 14.7738 9.14645 13.1298 9.14645C11.4611 9.14645 11.2044 10.4105 11.2044 11.7158V16.6665H8.00045V6.65912H11.0764V8.02645H11.1198C11.5478 7.23979 12.5938 6.41045 14.1538 6.41045C17.4004 6.41045 18.0004 8.48312 18.0004 11.1778C18.0004 11.1778 18.0004 16.6665 18.0004 16.6665Z" fill="#212121"/>
</svg>
