<svg width="16" height="16" viewBox="0 0 16 16" fill="none" xmlns="http://www.w3.org/2000/svg">
<mask id="mask0_4066_927" style="mask-type:alpha" maskUnits="userSpaceOnUse" x="0" y="0" width="16" height="16">
<rect width="16" height="16" fill="#D9D9D9"/>
</mask>
<g mask="url(#mask0_4066_927)">
<path d="M10.7666 8.66665H3.33329C3.1444 8.66665 2.98607 8.60277 2.85829 8.47499C2.73051 8.34721 2.66663 8.18888 2.66663 7.99999C2.66663 7.8111 2.73051 7.65277 2.85829 7.52499C2.98607 7.39721 3.1444 7.33332 3.33329 7.33332H10.7666L8.86663 5.43332C8.73329 5.29999 8.6694 5.14443 8.67496 4.96665C8.68051 4.78888 8.7444 4.63332 8.86663 4.49999C8.99996 4.36665 9.15829 4.29721 9.34163 4.29165C9.52496 4.2861 9.68329 4.34999 9.81663 4.48332L12.8666 7.53332C12.9333 7.59999 12.9805 7.67221 13.0083 7.74999C13.0361 7.82777 13.05 7.9111 13.05 7.99999C13.05 8.08888 13.0361 8.17221 13.0083 8.24999C12.9805 8.32777 12.9333 8.39999 12.8666 8.46665L9.81663 11.5167C9.68329 11.65 9.52496 11.7139 9.34163 11.7083C9.15829 11.7028 8.99996 11.6333 8.86663 11.5C8.7444 11.3667 8.68051 11.2111 8.67496 11.0333C8.6694 10.8555 8.73329 10.7 8.86663 10.5667L10.7666 8.66665Z" fill="#212121"/>
</g>
</svg>
