<svg width="16" height="16" viewBox="0 0 16 16" fill="none" xmlns="http://www.w3.org/2000/svg">
<mask id="mask0_4066_919" style="mask-type:alpha" maskUnits="userSpaceOnUse" x="0" y="0" width="16" height="16">
<rect width="16" height="16" fill="#D9D9D9"/>
</mask>
<g mask="url(#mask0_4066_919)">
<path d="M4.00871 12.3333H6.00871V9C6.00871 8.81111 6.0726 8.65278 6.20037 8.525C6.32815 8.39722 6.48649 8.33333 6.67537 8.33333H9.34204C9.53093 8.33333 9.68926 8.39722 9.81704 8.525C9.94482 8.65278 10.0087 8.81111 10.0087 9V12.3333H12.0087V6.33333L8.00871 3.33333L4.00871 6.33333V12.3333ZM2.67538 12.3333V6.33333C2.67538 6.12222 2.7226 5.92222 2.81704 5.73333C2.91149 5.54444 3.04204 5.38889 3.20871 5.26667L7.20871 2.26667C7.44204 2.08889 7.70871 2 8.00871 2C8.30871 2 8.57537 2.08889 8.80871 2.26667L12.8087 5.26667C12.9754 5.38889 13.1059 5.54444 13.2004 5.73333C13.2948 5.92222 13.342 6.12222 13.342 6.33333V12.3333C13.342 12.7 13.2115 13.0139 12.9504 13.275C12.6893 13.5361 12.3754 13.6667 12.0087 13.6667H9.34204C9.15315 13.6667 8.99482 13.6028 8.86704 13.475C8.73926 13.3472 8.67537 13.1889 8.67537 13V9.66667H7.34204V13C7.34204 13.1889 7.27815 13.3472 7.15037 13.475C7.0226 13.6028 6.86426 13.6667 6.67537 13.6667H4.00871C3.64204 13.6667 3.32815 13.5361 3.06704 13.275C2.80593 13.0139 2.67538 12.7 2.67538 12.3333Z" fill="#212121"/>
<path d="M5.64329 3.4405C5.93841 3.21938 6.3569 3.27937 6.57802 3.57448C6.79913 3.8696 6.73915 4.28809 6.44403 4.50921L1.73474 8.03772C1.43963 8.25884 1.02114 8.19885 0.800018 7.90374C0.578899 7.60862 0.638884 7.19013 0.933999 6.96901L5.64329 3.4405Z" fill="#212121"/>
<path d="M9.59428 4.52336C9.29953 4.30182 9.24018 3.88329 9.46172 3.58854C9.68325 3.29379 10.1018 3.23444 10.3965 3.45598L15.0344 6.94182C15.3292 7.16336 15.3885 7.58189 15.167 7.87664C14.9454 8.17139 14.5269 8.23074 14.2322 8.0092L9.59428 4.52336Z" fill="#212121"/>
</g>
</svg>
