<svg width="20" height="20" viewBox="0 0 20 20" fill="none" xmlns="http://www.w3.org/2000/svg">
<path d="M10.0001 3.62417C12.0767 3.62417 12.323 3.63195 13.1436 3.66954C15.2514 3.76547 16.2359 4.76556 16.3318 6.85778C16.3694 7.67769 16.3765 7.92399 16.3765 10.0007C16.3765 12.078 16.3688 12.3236 16.3318 13.1435C16.2353 15.2338 15.2533 16.2358 13.1436 16.3318C12.323 16.3694 12.078 16.3771 10.0001 16.3771C7.9234 16.3771 7.6771 16.3694 6.8572 16.3318C4.74423 16.2352 3.76488 15.2306 3.66896 13.1429C3.63136 12.323 3.62359 12.0773 3.62359 10C3.62359 7.92334 3.63201 7.67769 3.66896 6.85714C3.76553 4.76556 4.74748 3.76482 6.8572 3.6689C7.67775 3.63195 7.9234 3.62417 10.0001 3.62417ZM10.0001 2.22223C7.88775 2.22223 7.62331 2.2313 6.79368 2.2689C3.96905 2.39853 2.39923 3.96575 2.2696 6.79297C2.23136 7.62325 2.22229 7.88769 2.22229 10C2.22229 12.1123 2.23136 12.3774 2.26896 13.207C2.39859 16.0317 3.96581 17.6015 6.79303 17.7311C7.62331 17.7687 7.88775 17.7778 10.0001 17.7778C12.1124 17.7778 12.3775 17.7687 13.2071 17.7311C16.0291 17.6015 17.6028 16.0343 17.7305 13.207C17.7688 12.3774 17.7778 12.1123 17.7778 10C17.7778 7.88769 17.7688 7.62325 17.7312 6.79362C17.6041 3.97158 16.035 2.39917 13.2078 2.26954C12.3775 2.2313 12.1124 2.22223 10.0001 2.22223ZM10.0001 6.00612C7.79442 6.00612 6.00618 7.79436 6.00618 10C6.00618 12.2057 7.79442 13.9945 10.0001 13.9945C12.2057 13.9945 13.994 12.2063 13.994 10C13.994 7.79436 12.2057 6.00612 10.0001 6.00612ZM10.0001 12.5926C8.56831 12.5926 7.40747 11.4324 7.40747 10C7.40747 8.56825 8.56831 7.40741 10.0001 7.40741C11.4318 7.40741 12.5927 8.56825 12.5927 10C12.5927 11.4324 11.4318 12.5926 10.0001 12.5926ZM14.1521 4.91528C13.6362 4.91528 13.2181 5.33334 13.2181 5.84862C13.2181 6.3639 13.6362 6.78195 14.1521 6.78195C14.6674 6.78195 15.0848 6.3639 15.0848 5.84862C15.0848 5.33334 14.6674 4.91528 14.1521 4.91528Z" fill="#212121"/>
</svg>
