<svg width="16" height="16" viewBox="0 0 16 16" fill="none" xmlns="http://www.w3.org/2000/svg">
<path d="M11.1664 1.76694C12.1553 1.76694 12.9863 2.1035 13.6586 2.77573C14.3306 3.44788 14.6664 4.28373 14.6664 5.28354C14.6664 6.55016 14.1224 7.80025 13.0336 9.03354C11.9447 10.2669 10.4941 11.711 8.68298 13.3665L8.00037 13.9837L7.31677 13.3665C5.50583 11.7111 4.056 10.2668 2.96716 9.03354C1.87827 7.80021 1.33337 6.55021 1.33337 5.28354C1.33339 4.28357 1.66996 3.44793 2.34216 2.77573C3.01439 2.1035 3.84449 1.76694 4.83337 1.76694C5.40004 1.76694 5.96141 1.90292 6.51697 2.17514C7.07246 2.44737 7.56707 2.89477 8.00037 3.51694C8.48922 2.8948 8.99479 2.44734 9.51697 2.17514C10.039 1.90306 10.5888 1.76699 11.1664 1.76694Z" fill="#212121"/>
</svg>
