<svg width="20" height="20" viewBox="0 0 20 20" fill="none" xmlns="http://www.w3.org/2000/svg">
<path d="M13.9586 2.20865C15.1946 2.20872 16.2327 2.62919 17.0729 3.46939C17.913 4.30957 18.3335 5.35438 18.3336 6.60416C18.3336 8.18743 17.6526 9.75005 16.2916 11.2917C14.9305 12.8333 13.118 14.6392 10.8541 16.7086L9.99963 17.4792L9.14612 16.7086C6.88223 14.6392 5.06973 12.8333 3.70862 11.2917C2.34752 9.75 1.66663 8.18748 1.66663 6.60416C1.6667 5.3543 2.08716 4.3096 2.92737 3.46939C3.76765 2.62911 4.80551 2.20865 6.04163 2.20865C6.74996 2.20865 7.45167 2.37911 8.14612 2.71939C8.84036 3.05966 9.45809 3.6186 9.99963 4.39615C10.6107 3.61837 11.2433 3.05967 11.8961 2.71939C12.5489 2.37916 13.2364 2.20865 13.9586 2.20865Z" fill="#212121"/>
</svg>
