<svg width="36" height="36" viewBox="0 0 36 36" fill="none" xmlns="http://www.w3.org/2000/svg">
<mask id="mask0_4066_290" style="mask-type:alpha" maskUnits="userSpaceOnUse" x="0" y="0" width="36" height="36">
<rect width="36" height="36" fill="#D9D9D9"/>
</mask>
<g mask="url(#mask0_4066_290)">
<path d="M30.6143 10.8665C31.3412 10.1397 31.7497 9.15387 31.7498 8.1259C31.75 7.09793 31.3417 6.11201 30.6149 5.38504C29.8881 4.65806 28.9023 4.24958 27.8744 4.24945C26.8464 4.24932 25.8605 4.65756 25.1335 5.38435L6.78275 23.7392C6.4635 24.0575 6.22741 24.4495 6.09525 24.8805L4.27888 30.8645C4.24334 30.9834 4.24066 31.1097 4.27111 31.23C4.30156 31.3503 4.36402 31.4602 4.45185 31.5479C4.53968 31.6355 4.6496 31.6978 4.76997 31.7281C4.89033 31.7583 5.01665 31.7555 5.1355 31.7197L11.1209 29.9047C11.5515 29.7738 11.9434 29.5391 12.2621 29.2213L30.6143 10.8665Z" stroke="#212121" stroke-width="3" stroke-linecap="round" stroke-linejoin="round"/>
</g>
</svg>
