<svg width="36" height="36" viewBox="0 0 36 36" fill="none" xmlns="http://www.w3.org/2000/svg">
<mask id="mask0_4066_282" style="mask-type:alpha" maskUnits="userSpaceOnUse" x="0" y="0" width="36" height="36">
<rect width="36" height="36" fill="#D9D9D9"/>
</mask>
<g mask="url(#mask0_4066_282)">
<path d="M7.5 33C6.675 33 5.96875 32.7063 5.38125 32.1188C4.79375 31.5313 4.5 30.825 4.5 30V9C4.5 8.175 4.79375 7.46875 5.38125 6.88125C5.96875 6.29375 6.675 6 7.5 6H9V4.5C9 4.075 9.14375 3.71875 9.43125 3.43125C9.71875 3.14375 10.075 3 10.5 3C10.925 3 11.2813 3.14375 11.5688 3.43125C11.8563 3.71875 12 4.075 12 4.5V6H24V4.5C24 4.075 24.1438 3.71875 24.4313 3.43125C24.7188 3.14375 25.075 3 25.5 3C25.925 3 26.2813 3.14375 26.5688 3.43125C26.8563 3.71875 27 4.075 27 4.5V6H28.5C29.325 6 30.0313 6.29375 30.6188 6.88125C31.2063 7.46875 31.5 8.175 31.5 9V30C31.5 30.825 31.2063 31.5313 30.6188 32.1188C30.0313 32.7063 29.325 33 28.5 33H7.5ZM7.5 30H28.5V15H7.5V30ZM7.5 12H28.5V9H7.5V12Z" fill="#212121"/>
</g>
</svg>
