<svg width="36" height="36" viewBox="0 0 36 36" fill="none" xmlns="http://www.w3.org/2000/svg">
<mask id="mask0_4066_255" style="mask-type:alpha" maskUnits="userSpaceOnUse" x="0" y="0" width="36" height="36">
<rect width="36" height="36" fill="#D9D9D9"/>
</mask>
<g mask="url(#mask0_4066_255)">
<path d="M6 30C5.175 30 4.46875 29.7063 3.88125 29.1188C3.29375 28.5313 3 27.825 3 27V9C3 8.175 3.29375 7.46875 3.88125 6.88125C4.46875 6.29375 5.175 6 6 6H30C30.825 6 31.5313 6.29375 32.1188 6.88125C32.7063 7.46875 33 8.175 33 9V27C33 27.825 32.7063 28.5313 32.1188 29.1188C31.5313 29.7063 30.825 30 30 30H6ZM30 12L18.7875 19.0125C18.6625 19.0875 18.5312 19.1438 18.3937 19.1813C18.2562 19.2188 18.125 19.2375 18 19.2375C17.875 19.2375 17.7438 19.2188 17.6063 19.1813C17.4688 19.1438 17.3375 19.0875 17.2125 19.0125L6 12V27H30V12ZM18 16.5L30 9H6L18 16.5ZM6 12.375V10.1625V10.2V10.1813V12.375Z" fill="#212121"/>
</g>
</svg>
