<svg width="16" height="16" viewBox="0 0 16 16" fill="none" xmlns="http://www.w3.org/2000/svg">
<mask id="mask0_4066_946" style="mask-type:alpha" maskUnits="userSpaceOnUse" x="0" y="0" width="16" height="16">
<rect width="16" height="16" fill="#D9D9D9"/>
</mask>
<g mask="url(#mask0_4066_946)">
<path d="M5.60004 11.3333L8.00004 8.93334L10.4 11.3333L11.3334 10.4L8.93337 8.00001L11.3334 5.60001L10.4 4.66668L8.00004 7.06668L5.60004 4.66668L4.66671 5.60001L7.06671 8.00001L4.66671 10.4L5.60004 11.3333ZM8.00004 14.6667C7.07782 14.6667 6.21115 14.4917 5.40004 14.1417C4.58893 13.7917 3.88337 13.3167 3.28337 12.7167C2.68337 12.1167 2.20837 11.4111 1.85837 10.6C1.50837 9.7889 1.33337 8.92223 1.33337 8.00001C1.33337 7.07779 1.50837 6.21112 1.85837 5.40001C2.20837 4.5889 2.68337 3.88334 3.28337 3.28334C3.88337 2.68334 4.58893 2.20834 5.40004 1.85834C6.21115 1.50834 7.07782 1.33334 8.00004 1.33334C8.92226 1.33334 9.78893 1.50834 10.6 1.85834C11.4112 2.20834 12.1167 2.68334 12.7167 3.28334C13.3167 3.88334 13.7917 4.5889 14.1417 5.40001C14.4917 6.21112 14.6667 7.07779 14.6667 8.00001C14.6667 8.92223 14.4917 9.7889 14.1417 10.6C13.7917 11.4111 13.3167 12.1167 12.7167 12.7167C12.1167 13.3167 11.4112 13.7917 10.6 14.1417C9.78893 14.4917 8.92226 14.6667 8.00004 14.6667Z" fill="#212121"/>
</g>
</svg>
