<svg width="16" height="16" viewBox="0 0 16 16" fill="none" xmlns="http://www.w3.org/2000/svg">
<path d="M7.99998 10.56C8.83952 10.56 9.55319 11.0988 9.81408 11.8496L9.84533 11.8443L9.91998 11.84H13.76C14.1135 11.84 14.4 12.1265 14.4 12.48C14.4 12.8082 14.1529 13.0788 13.8346 13.1157L13.76 13.12H9.91999C9.88383 13.12 9.84829 13.117 9.81374 13.1112C9.55321 13.8612 8.83954 14.4 7.99998 14.4C7.16041 14.4 6.44676 13.8612 6.18587 13.1104L6.15462 13.1157L6.07998 13.12H2.23998C1.88649 13.12 1.59998 12.8335 1.59998 12.48C1.59998 12.1518 1.84704 11.8813 2.16533 11.8443L2.23997 11.84H6.07997C6.11613 11.84 6.15167 11.843 6.18622 11.8488C6.44675 11.0988 7.16041 10.56 7.99998 10.56ZM7.99998 11.84C7.64649 11.84 7.35998 12.1265 7.35998 12.48C7.35998 12.8335 7.64649 13.12 7.99998 13.12C8.35347 13.12 8.63998 12.8335 8.63998 12.48C8.63998 12.1265 8.35347 11.84 7.99998 11.84ZM3.51998 6.08001C4.35952 6.08001 5.07319 6.61884 5.33408 7.36956L5.36533 7.36429L5.43998 7.36001H13.76C14.1135 7.36001 14.4 7.64652 14.4 8.00001C14.4 8.32821 14.1529 8.59875 13.8346 8.63571L13.76 8.64H5.43998C5.40382 8.64 5.36829 8.63696 5.33374 8.63125C5.07321 9.38117 4.35954 9.92 3.51998 9.92C2.45961 9.92 1.59998 9.06037 1.59998 8C1.59998 6.93963 2.45961 6.08001 3.51998 6.08001ZM3.51998 7.36001C3.16649 7.36001 2.87998 7.64652 2.87998 8.00001C2.87998 8.35349 3.16649 8.64001 3.51998 8.64001C3.87347 8.64001 4.15998 8.35349 4.15998 8.00001C4.15998 7.64652 3.87347 7.36001 3.51998 7.36001ZM10.56 1.60001C11.3995 1.60001 12.1132 2.13884 12.3741 2.88956L12.4053 2.88429L12.48 2.88001H13.76C14.1135 2.88001 14.4 3.16652 14.4 3.52001C14.4 3.84821 14.1529 4.11875 13.8346 4.15571L13.76 4.16H12.48C12.4438 4.16 12.4083 4.15696 12.3737 4.15125C12.1132 4.90117 11.3995 5.44 10.56 5.44C9.72041 5.44 9.00676 4.90117 8.74587 4.15045L8.71462 4.15571L8.63998 4.16H2.23998C1.88649 4.16 1.59998 3.87348 1.59998 3.52C1.59998 3.19179 1.84704 2.92126 2.16533 2.8843L2.23997 2.88001H8.63997C8.67613 2.88001 8.71167 2.88305 8.74622 2.88876C9.00675 2.13884 9.72041 1.60001 10.56 1.60001ZM10.56 2.88001C10.2065 2.88001 9.91998 3.16652 9.91998 3.52001C9.91998 3.87349 10.2065 4.16001 10.56 4.16001C10.9135 4.16001 11.2 3.87349 11.2 3.52001C11.2 3.16652 10.9135 2.88001 10.56 2.88001Z" fill="#212121"/>
</svg>
