<svg width="24" height="24" viewBox="0 0 24 24" fill="none" xmlns="http://www.w3.org/2000/svg">
<mask id="mask0_4066_446" style="mask-type:alpha" maskUnits="userSpaceOnUse" x="0" y="0" width="24" height="24">
<rect width="24" height="24" fill="#D9D9D9"/>
</mask>
<g mask="url(#mask0_4066_446)">
<path d="M12 16C11.8087 16 11.6293 15.9746 11.4619 15.9237C11.2945 15.8728 11.139 15.7863 10.9955 15.6641L4.39462 10.0458C4.13154 9.82188 4 9.5369 4 9.19084C4 8.84478 4.13154 8.5598 4.39462 8.33588C4.6577 8.11196 4.99253 8 5.3991 8C5.80568 8 6.14051 8.11196 6.40359 8.33588L12 13.0992L17.5964 8.33588C17.8595 8.11196 18.1943 8 18.6009 8C19.0075 8 19.3423 8.11196 19.6054 8.33588C19.8685 8.5598 20 8.84478 20 9.19084C20 9.5369 19.8685 9.82188 19.6054 10.0458L13.0045 15.6641C12.861 15.7863 12.7055 15.8728 12.5381 15.9237C12.3707 15.9746 12.1913 16 12 16Z" fill="#212121"/>
</g>
</svg>
