<svg width="36" height="36" viewBox="0 0 36 36" fill="none" xmlns="http://www.w3.org/2000/svg">
<mask id="mask0_4066_258" style="mask-type:alpha" maskUnits="userSpaceOnUse" x="0" y="0" width="36" height="36">
<rect width="36" height="36" fill="#D9D9D9"/>
</mask>
<g mask="url(#mask0_4066_258)">
<path d="M18 24C17.713 24 17.4439 23.9618 17.1928 23.8855C16.9417 23.8092 16.7085 23.6794 16.4933 23.4962L6.59193 15.0687C6.19731 14.7328 6 14.3053 6 13.7863C6 13.2672 6.19731 12.8397 6.59193 12.5038C6.98655 12.1679 7.48879 12 8.09865 12C8.70852 12 9.21076 12.1679 9.60538 12.5038L18 19.6489L26.3946 12.5038C26.7892 12.1679 27.2915 12 27.9013 12C28.5112 12 29.0135 12.1679 29.4081 12.5038C29.8027 12.8397 30 13.2672 30 13.7863C30 14.3053 29.8027 14.7328 29.4081 15.0687L19.5067 23.4962C19.2915 23.6794 19.0583 23.8092 18.8072 23.8855C18.5561 23.9618 18.287 24 18 24Z" fill="#212121"/>
</g>
</svg>
