<svg width="36" height="36" viewBox="0 0 36 36" fill="none" xmlns="http://www.w3.org/2000/svg">
<mask id="mask0_4066_271" style="mask-type:alpha" maskUnits="userSpaceOnUse" x="0" y="0" width="36" height="36">
<rect width="36" height="36" fill="#D9D9D9"/>
</mask>
<g mask="url(#mask0_4066_271)">
<path d="M19.6489 18L12.5038 9.60538C12.1679 9.21076 12 8.70852 12 8.09865C12 7.48879 12.1679 6.98655 12.5038 6.59193C12.8397 6.19731 13.2672 6 13.7863 6C14.3053 6 14.7328 6.19731 15.0687 6.59193L23.4962 16.4933C23.6794 16.7085 23.8092 16.9417 23.8855 17.1928C23.9618 17.4439 24 17.713 24 18C24 18.287 23.9618 18.5561 23.8855 18.8072C23.8092 19.0583 23.6794 19.2915 23.4962 19.5067L15.0687 29.4081C14.7328 29.8027 14.3053 30 13.7863 30C13.2672 30 12.8397 29.8027 12.5038 29.4081C12.1679 29.0135 12 28.5112 12 27.9013C12 27.2915 12.1679 26.7892 12.5038 26.3946L19.6489 18Z" fill="#212121"/>
</g>
</svg>
