<svg width="20" height="20" viewBox="0 0 20 20" fill="none" xmlns="http://www.w3.org/2000/svg">
<path fill-rule="evenodd" clip-rule="evenodd" d="M10 3C10.0169 3 15.6365 3.00082 17.043 3.38574C17.8137 3.59335 18.4213 4.20094 18.6289 4.97168C19.0144 6.38024 19 9.31641 19 9.31641C19 9.33828 18.9981 12.2422 18.6289 13.6455C18.4213 14.4165 17.8139 15.0248 17.043 15.2324C15.6365 15.6025 10.0169 15.6025 10 15.6025C10 15.6025 4.38042 15.6033 2.95703 15.2178C2.18606 15.0102 1.57868 14.4018 1.37109 13.6309C1.0026 12.2453 1.00001 9.33587 1 9.30176C1 9.30176 1.00042 6.38024 1.37109 4.97168C1.57876 4.20093 2.20109 3.5787 2.95703 3.37109C4.36559 3.00042 10 3 10 3ZM8.20605 12L12.8916 9.30176L8.20605 6.60254V12Z" fill="#212121"/>
</svg>
