<svg width="16" height="16" viewBox="0 0 16 16" fill="none" xmlns="http://www.w3.org/2000/svg">
<mask id="mask0_4066_957" style="mask-type:alpha" maskUnits="userSpaceOnUse" x="0" y="0" width="16" height="16">
<rect width="16" height="16" fill="#D9D9D9"/>
</mask>
<g mask="url(#mask0_4066_957)">
<path d="M8.73286 7.99999L5.55729 4.26905C5.40801 4.09366 5.33337 3.87044 5.33337 3.59939C5.33337 3.32834 5.40801 3.10512 5.55729 2.92974C5.70657 2.75435 5.89656 2.66666 6.12727 2.66666C6.35797 2.66666 6.54796 2.75435 6.69724 2.92974L10.4428 7.33033C10.5242 7.426 10.5819 7.52964 10.6158 7.64125C10.6497 7.75285 10.6667 7.87244 10.6667 7.99999C10.6667 8.12754 10.6497 8.24712 10.6158 8.35873C10.5819 8.47034 10.5242 8.57398 10.4428 8.66965L6.69724 13.0702C6.54796 13.2456 6.35797 13.3333 6.12727 13.3333C5.89656 13.3333 5.70657 13.2456 5.55729 13.0702C5.40801 12.8949 5.33337 12.6716 5.33337 12.4006C5.33337 12.1295 5.40801 11.9063 5.55729 11.7309L8.73286 7.99999Z" fill="#212121"/>
</g>
</svg>
