<svg width="20" height="20" viewBox="0 0 20 20" fill="none" xmlns="http://www.w3.org/2000/svg">
<path d="M9.99996 18.3333C8.83329 18.3333 7.74301 18.1146 6.72913 17.6771C5.71524 17.2396 4.83329 16.6458 4.08329 15.8958C3.33329 15.1458 2.74301 14.2604 2.31246 13.2396C1.8819 12.2187 1.66663 11.125 1.66663 9.95832C1.66663 8.79166 1.8819 7.70485 2.31246 6.69791C2.74301 5.69096 3.33329 4.81249 4.08329 4.06249C4.83329 3.31249 5.71524 2.72568 6.72913 2.30207C7.74301 1.87846 8.83329 1.66666 9.99996 1.66666C11.1666 1.66666 12.2569 1.87846 13.2708 2.30207C14.2847 2.72568 15.1666 3.31249 15.9166 4.06249C16.6666 4.81249 17.2569 5.69096 17.6875 6.69791C18.118 7.70485 18.3333 8.79166 18.3333 9.95832C18.3333 11.125 18.118 12.2187 17.6875 13.2396C17.2569 14.2604 16.6666 15.1458 15.9166 15.8958C15.1666 16.6458 14.2847 17.2396 13.2708 17.6771C12.2569 18.1146 11.1666 18.3333 9.99996 18.3333ZM13.2916 6.87499H16.4166C15.9583 5.91666 15.3298 5.11805 14.5312 4.47916C13.7326 3.84027 12.8125 3.38888 11.7708 3.12499C12.118 3.63888 12.4132 4.19443 12.6562 4.79166C12.8993 5.38888 13.1111 6.08332 13.2916 6.87499ZM7.99996 6.87499H12.0416C11.8888 6.13888 11.6319 5.42707 11.2708 4.73957C10.9097 4.05207 10.4861 3.44443 9.99996 2.91666C9.55551 3.29166 9.18051 3.78471 8.87496 4.39582C8.5694 5.00693 8.27774 5.83332 7.99996 6.87499ZM3.16663 11.8542H6.47913C6.43746 11.4792 6.41315 11.1424 6.40621 10.8437C6.39926 10.5451 6.39579 10.25 6.39579 9.95832C6.39579 9.6111 6.40274 9.30207 6.41663 9.03124C6.43051 8.76041 6.45829 8.45832 6.49996 8.12499H3.16663C3.0694 8.45832 3.00343 8.75693 2.96871 9.02082C2.93399 9.28471 2.91663 9.59721 2.91663 9.95832C2.91663 10.3194 2.93399 10.6424 2.96871 10.9271C3.00343 11.2118 3.0694 11.5208 3.16663 11.8542ZM8.22913 16.875C7.8819 16.3472 7.58329 15.7778 7.33329 15.1667C7.08329 14.5555 6.87496 13.868 6.70829 13.1042H3.58329C4.11107 14.0903 4.72218 14.8646 5.41663 15.4271C6.11107 15.9896 7.04857 16.4722 8.22913 16.875ZM3.58329 6.87499H6.72913C6.8819 6.12499 7.07635 5.45485 7.31246 4.86457C7.54857 4.2743 7.84718 3.70138 8.20829 3.14582C7.16663 3.40971 6.2569 3.85416 5.47913 4.47916C4.70135 5.10416 4.0694 5.90277 3.58329 6.87499ZM9.99996 17.125C10.4861 16.625 10.8923 16.0521 11.2187 15.4062C11.5451 14.7604 11.8125 13.993 12.0208 13.1042H7.99996C8.1944 13.9375 8.45482 14.6875 8.78121 15.3542C9.1076 16.0208 9.51385 16.6111 9.99996 17.125ZM7.77079 11.8542H12.25C12.3055 11.4236 12.3402 11.0729 12.3541 10.8021C12.368 10.5312 12.375 10.25 12.375 9.95832C12.375 9.68055 12.368 9.41318 12.3541 9.15624C12.3402 8.8993 12.3055 8.55555 12.25 8.12499H7.77079C7.71524 8.55555 7.68051 8.8993 7.66663 9.15624C7.65274 9.41318 7.64579 9.68055 7.64579 9.95832C7.64579 10.25 7.65274 10.5312 7.66663 10.8021C7.68051 11.0729 7.71524 11.4236 7.77079 11.8542ZM11.7916 16.8542C12.7916 16.5347 13.6909 16.0555 14.4895 15.4167C15.2882 14.7778 15.9305 14.0069 16.4166 13.1042H13.3125C13.1319 13.8542 12.9201 14.5347 12.677 15.1458C12.434 15.7569 12.1388 16.3264 11.7916 16.8542ZM13.5 11.8542H16.8333C16.9305 11.5208 16.9965 11.2118 17.0312 10.9271C17.0659 10.6424 17.0833 10.3194 17.0833 9.95832C17.0833 9.59721 17.0659 9.28471 17.0312 9.02082C16.9965 8.75693 16.9305 8.45832 16.8333 8.12499H13.5208C13.5625 8.6111 13.5902 8.98263 13.6041 9.23957C13.618 9.49652 13.625 9.7361 13.625 9.95832C13.625 10.2639 13.6145 10.5521 13.5937 10.8229C13.5729 11.0937 13.5416 11.4375 13.5 11.8542Z" fill="#212121"/>
</svg>
