<svg width="16" height="16" viewBox="0 0 16 16" fill="none" xmlns="http://www.w3.org/2000/svg">
<mask id="mask0_4066_932" style="mask-type:alpha" maskUnits="userSpaceOnUse" x="0" y="0" width="16" height="16">
<rect width="16" height="16" fill="#D9D9D9"/>
</mask>
<g mask="url(#mask0_4066_932)">
<path d="M7.33333 9.46668V4.00001C7.33333 3.81112 7.39721 3.65279 7.52499 3.52501C7.65277 3.39723 7.8111 3.33334 7.99999 3.33334C8.18888 3.33334 8.34721 3.39723 8.47499 3.52501C8.60277 3.65279 8.66666 3.81112 8.66666 4.00001V9.46668L10.6 7.53334C10.7222 7.41112 10.8778 7.35001 11.0667 7.35001C11.2555 7.35001 11.4111 7.41112 11.5333 7.53334C11.6555 7.65557 11.7167 7.81112 11.7167 8.00001C11.7167 8.1889 11.6555 8.34445 11.5333 8.46668L8.46666 11.5333C8.33333 11.6667 8.17777 11.7333 7.99999 11.7333C7.82221 11.7333 7.66666 11.6667 7.53333 11.5333L4.46666 8.46668C4.34444 8.34445 4.28333 8.1889 4.28333 8.00001C4.28333 7.81112 4.34444 7.65557 4.46666 7.53334C4.58888 7.41112 4.74444 7.35001 4.93333 7.35001C5.12221 7.35001 5.27777 7.41112 5.39999 7.53334L7.33333 9.46668Z" fill="#212121"/>
</g>
</svg>
