<svg width="20" height="20" viewBox="0 0 20 20" fill="none" xmlns="http://www.w3.org/2000/svg">
<mask id="mask0_4066_792" style="mask-type:alpha" maskUnits="userSpaceOnUse" x="0" y="0" width="20" height="20">
<rect width="20" height="20" fill="#D9D9D9"/>
</mask>
<g mask="url(#mask0_4066_792)">
<path d="M6.25004 9.16668C5.44449 9.16668 4.75699 8.88195 4.18754 8.31251C3.6181 7.74307 3.33337 7.05557 3.33337 6.25001C3.33337 5.44445 3.6181 4.75695 4.18754 4.18751C4.75699 3.61807 5.44449 3.33334 6.25004 3.33334C7.0556 3.33334 7.7431 3.61807 8.31254 4.18751C8.88198 4.75695 9.16671 5.44445 9.16671 6.25001C9.16671 7.05557 8.88198 7.74307 8.31254 8.31251C7.7431 8.88195 7.0556 9.16668 6.25004 9.16668ZM6.25004 7.50001C6.59726 7.50001 6.8924 7.37848 7.13546 7.13543C7.37851 6.89237 7.50004 6.59723 7.50004 6.25001C7.50004 5.90279 7.37851 5.60765 7.13546 5.36459C6.8924 5.12154 6.59726 5.00001 6.25004 5.00001C5.90282 5.00001 5.60768 5.12154 5.36462 5.36459C5.12157 5.60765 5.00004 5.90279 5.00004 6.25001C5.00004 6.59723 5.12157 6.89237 5.36462 7.13543C5.60768 7.37848 5.90282 7.50001 6.25004 7.50001ZM13.75 16.6667C12.9445 16.6667 12.257 16.382 11.6875 15.8125C11.1181 15.2431 10.8334 14.5556 10.8334 13.75C10.8334 12.9445 11.1181 12.257 11.6875 11.6875C12.257 11.1181 12.9445 10.8333 13.75 10.8333C14.5556 10.8333 15.2431 11.1181 15.8125 11.6875C16.382 12.257 16.6667 12.9445 16.6667 13.75C16.6667 14.5556 16.382 15.2431 15.8125 15.8125C15.2431 16.382 14.5556 16.6667 13.75 16.6667ZM13.75 15C14.0973 15 14.3924 14.8785 14.6355 14.6354C14.8785 14.3924 15 14.0972 15 13.75C15 13.4028 14.8785 13.1076 14.6355 12.8646C14.3924 12.6215 14.0973 12.5 13.75 12.5C13.4028 12.5 13.1077 12.6215 12.8646 12.8646C12.6216 13.1076 12.5 13.4028 12.5 13.75C12.5 14.0972 12.6216 14.3924 12.8646 14.6354C13.1077 14.8785 13.4028 15 13.75 15ZM3.91671 16.0833C3.76393 15.9306 3.68754 15.7361 3.68754 15.5C3.68754 15.2639 3.76393 15.0695 3.91671 14.9167L14.9167 3.91668C15.0695 3.7639 15.2639 3.68751 15.5 3.68751C15.7362 3.68751 15.9306 3.7639 16.0834 3.91668C16.2362 4.06945 16.3125 4.2639 16.3125 4.50001C16.3125 4.73612 16.2362 4.93057 16.0834 5.08334L5.08337 16.0833C4.9306 16.2361 4.73615 16.3125 4.50004 16.3125C4.26393 16.3125 4.06949 16.2361 3.91671 16.0833Z" fill="#212121"/>
</g>
</svg>
