<svg width="16" height="16" viewBox="0 0 16 16" fill="none" xmlns="http://www.w3.org/2000/svg">
<mask id="mask0_4066_951" style="mask-type:alpha" maskUnits="userSpaceOnUse" x="0" y="0" width="16" height="16">
<rect width="16" height="16" fill="#D9D9D9"/>
</mask>
<g mask="url(#mask0_4066_951)">
<path d="M13.6063 4.82954C13.9294 4.50652 14.111 4.06838 14.111 3.61151C14.1111 3.15463 13.9296 2.71645 13.6066 2.39335C13.2836 2.07025 12.8455 1.8887 12.3886 1.88864C11.9317 1.88858 11.4935 2.07002 11.1704 2.39304L3.01454 10.5508C2.87265 10.6922 2.76772 10.8664 2.70899 11.058L1.90171 13.7175C1.88592 13.7704 1.88472 13.8265 1.89826 13.88C1.91179 13.9335 1.93955 13.9823 1.97858 14.0213C2.01762 14.0602 2.06648 14.0879 2.11997 14.1014C2.17347 14.1148 2.22961 14.1135 2.28243 14.0977L4.9426 13.291C5.13398 13.2328 5.30815 13.1285 5.44982 12.9873L13.6063 4.82954Z" stroke="#212121" stroke-width="1.33333" stroke-linecap="round" stroke-linejoin="round"/>
</g>
</svg>
