<svg width="36" height="36" viewBox="0 0 36 36" fill="none" xmlns="http://www.w3.org/2000/svg">
<path fill-rule="evenodd" clip-rule="evenodd" d="M18 7C18.0301 7 28.0202 7.00125 30.5205 7.68555C31.8911 8.0546 32.9718 9.13522 33.3408 10.5059C34.0225 12.9968 34.0003 18.1741 34 18.2285C34 18.2285 33.9998 23.4217 33.3408 25.9258C32.9718 27.2964 31.8911 28.3771 30.5205 28.7461C28.0202 29.4041 18.0301 29.4053 18 29.4053C18 29.4053 8.01006 29.405 5.47949 28.7197C4.10884 28.3507 3.02822 27.2701 2.65918 25.8994C2.0002 23.4217 2 18.2021 2 18.2021C2.00002 18.1474 2.00372 12.9967 2.65918 10.5059C3.02821 9.13519 4.13518 8.02821 5.47949 7.65918C7.98367 7.00022 18 7 18 7ZM14.8105 23L23.1396 18.2021L14.8105 13.4053V23Z" fill="#212121"/>
</svg>
