<svg width="36" height="36" viewBox="0 0 36 36" fill="none" xmlns="http://www.w3.org/2000/svg">
<path d="M18 23.76C19.889 23.76 21.4947 24.9724 22.0817 26.6615L22.152 26.6497L22.32 26.64H30.96C31.7553 26.64 32.4 27.2847 32.4 28.08C32.4 28.8185 31.8441 29.4272 31.128 29.5103L30.96 29.52H22.32C22.2387 29.52 22.1587 29.5132 22.081 29.5003C21.4948 31.1876 19.889 32.4 18 32.4C16.111 32.4 14.5053 31.1876 13.9183 29.4985L13.8479 29.5103L13.68 29.52H5.04C4.24466 29.52 3.6 28.8753 3.6 28.08C3.6 27.3415 4.15589 26.7328 4.87204 26.6497L5.03998 26.64H13.68C13.7613 26.64 13.8413 26.6468 13.919 26.6597C14.5052 24.9724 16.111 23.76 18 23.76ZM18 26.64C17.2047 26.64 16.56 27.2847 16.56 28.08C16.56 28.8753 17.2047 29.52 18 29.52C18.7953 29.52 19.44 28.8753 19.44 28.08C19.44 27.2847 18.7953 26.64 18 26.64ZM7.92 13.68C9.80897 13.68 11.4147 14.8924 12.0017 16.5815L12.072 16.5697L12.24 16.56H30.96C31.7553 16.56 32.4 17.2047 32.4 18C32.4 18.7385 31.8441 19.3472 31.128 19.4303L30.96 19.44H12.24C12.1587 19.44 12.0787 19.4332 12.001 19.4203C11.4148 21.1076 9.80901 22.32 7.91999 22.32C5.53417 22.32 3.59999 20.3858 3.59999 18C3.59999 15.6142 5.53418 13.68 7.92 13.68ZM7.92 16.56C7.12466 16.56 6.48 17.2047 6.48 18C6.48 18.7953 7.12466 19.44 7.92 19.44C8.71534 19.44 9.36 18.7953 9.36 18C9.36 17.2047 8.71534 16.56 7.92 16.56ZM23.76 3.60001C25.649 3.60001 27.2547 4.81238 27.8417 6.5015L27.912 6.48965L28.08 6.48001H30.96C31.7553 6.48001 32.4 7.12466 32.4 7.92001C32.4 8.65847 31.8441 9.26718 31.128 9.35034L30.96 9.35998H28.08C27.9987 9.35998 27.9187 9.35315 27.841 9.34029C27.2548 11.0276 25.649 12.24 23.76 12.24C21.871 12.24 20.2653 11.0276 19.6783 9.33849L19.6079 9.35035L19.44 9.35999H5.04C4.24466 9.35999 3.6 8.71533 3.6 7.91999C3.6 7.18153 4.15589 6.57282 4.87204 6.48966L5.03998 6.48002H19.44C19.5213 6.48002 19.6013 6.48685 19.679 6.4997C20.2652 4.81238 21.871 3.60001 23.76 3.60001ZM23.76 6.48001C22.9647 6.48001 22.32 7.12466 22.32 7.92001C22.32 8.71535 22.9647 9.36001 23.76 9.36001C24.5553 9.36001 25.2 8.71535 25.2 7.92001C25.2 7.12466 24.5553 6.48001 23.76 6.48001Z" fill="#212121"/>
</svg>
