<svg width="36" height="36" viewBox="0 0 36 36" fill="none" xmlns="http://www.w3.org/2000/svg">
<mask id="mask0_4066_279" style="mask-type:alpha" maskUnits="userSpaceOnUse" x="0" y="0" width="36" height="36">
<rect width="36" height="36" fill="#D9D9D9"/>
</mask>
<g mask="url(#mask0_4066_279)">
<path d="M18.0375 31.5C17.6125 31.5 17.2563 31.3562 16.9688 31.0687C16.6813 30.7812 16.5375 30.425 16.5375 30V28.275C15.4125 28.025 14.425 27.5875 13.575 26.9625C12.725 26.3375 12.0375 25.4625 11.5125 24.3375C11.3375 23.9875 11.3313 23.6188 11.4938 23.2313C11.6563 22.8438 11.95 22.5625 12.375 22.3875C12.725 22.2375 13.0875 22.2437 13.4625 22.4062C13.8375 22.5688 14.125 22.8375 14.325 23.2125C14.75 23.9625 15.2875 24.5313 15.9375 24.9188C16.5875 25.3063 17.3875 25.5 18.3375 25.5C19.3625 25.5 20.2313 25.2688 20.9438 24.8063C21.6563 24.3438 22.0125 23.625 22.0125 22.65C22.0125 21.775 21.7375 21.0813 21.1875 20.5688C20.6375 20.0563 19.3625 19.475 17.3625 18.825C15.2125 18.15 13.7375 17.3438 12.9375 16.4062C12.1375 15.4688 11.7375 14.325 11.7375 12.975C11.7375 11.35 12.2625 10.0875 13.3125 9.1875C14.3625 8.2875 15.4375 7.775 16.5375 7.65V6C16.5375 5.575 16.6813 5.21875 16.9688 4.93125C17.2563 4.64375 17.6125 4.5 18.0375 4.5C18.4625 4.5 18.8188 4.64375 19.1063 4.93125C19.3938 5.21875 19.5375 5.575 19.5375 6V7.65C20.4875 7.8 21.3125 8.10625 22.0125 8.56875C22.7125 9.03125 23.2875 9.6 23.7375 10.275C23.9625 10.6 24.0063 10.9625 23.8688 11.3625C23.7313 11.7625 23.45 12.05 23.025 12.225C22.675 12.375 22.3125 12.3812 21.9375 12.2437C21.5625 12.1062 21.2125 11.8625 20.8875 11.5125C20.5625 11.1625 20.1813 10.8938 19.7438 10.7063C19.3063 10.5188 18.7625 10.425 18.1125 10.425C17.0125 10.425 16.175 10.6687 15.6 11.1562C15.025 11.6438 14.7375 12.25 14.7375 12.975C14.7375 13.8 15.1125 14.45 15.8625 14.925C16.6125 15.4 17.9125 15.9 19.7625 16.425C21.4875 16.925 22.7938 17.7188 23.6813 18.8063C24.5688 19.8938 25.0125 21.15 25.0125 22.575C25.0125 24.35 24.4875 25.7 23.4375 26.625C22.3875 27.55 21.0875 28.125 19.5375 28.35V30C19.5375 30.425 19.3938 30.7812 19.1063 31.0687C18.8188 31.3562 18.4625 31.5 18.0375 31.5Z" fill="#212121"/>
</g>
</svg>
