<svg width="36" height="36" viewBox="0 0 36 36" fill="none" xmlns="http://www.w3.org/2000/svg">
<mask id="mask0_4066_262" style="mask-type:alpha" maskUnits="userSpaceOnUse" x="0" y="0" width="36" height="36">
<rect width="36" height="36" fill="#D9D9D9"/>
</mask>
<g mask="url(#mask0_4066_262)">
<path d="M11.775 19.5L16.05 23.775C16.35 24.075 16.4937 24.425 16.4812 24.825C16.4687 25.225 16.325 25.575 16.05 25.875C15.75 26.175 15.3937 26.3312 14.9812 26.3437C14.5687 26.3562 14.2125 26.2125 13.9125 25.9125L7.04999 19.05C6.74999 18.75 6.59999 18.4 6.59999 18C6.59999 17.6 6.74999 17.25 7.04999 16.95L13.9125 10.0875C14.2125 9.78749 14.5687 9.64374 14.9812 9.65624C15.3937 9.66874 15.75 9.82499 16.05 10.125C16.325 10.425 16.4687 10.775 16.4812 11.175C16.4937 11.575 16.35 11.925 16.05 12.225L11.775 16.5H28.5C28.925 16.5 29.2812 16.6437 29.5687 16.9312C29.8562 17.2187 30 17.575 30 18C30 18.425 29.8562 18.7812 29.5687 19.0687C29.2812 19.3562 28.925 19.5 28.5 19.5H11.775Z" fill="#212121"/>
</g>
</svg>
