<svg width="16" height="16" viewBox="0 0 16 16" fill="none" xmlns="http://www.w3.org/2000/svg">
<mask id="mask0_4066_926" style="mask-type:alpha" maskUnits="userSpaceOnUse" x="0" y="0" width="16" height="16">
<rect width="16" height="16" fill="#D9D9D9"/>
</mask>
<g mask="url(#mask0_4066_926)">
<path d="M5.23335 8.66665L7.13335 10.5667C7.26668 10.7 7.33057 10.8555 7.32502 11.0333C7.31946 11.2111 7.25557 11.3667 7.13335 11.5C7.00002 11.6333 6.84168 11.7028 6.65835 11.7083C6.47502 11.7139 6.31668 11.65 6.18335 11.5167L3.13335 8.46665C3.00002 8.33332 2.93335 8.17777 2.93335 7.99999C2.93335 7.82221 3.00002 7.66665 3.13335 7.53332L6.18335 4.48332C6.31668 4.34999 6.47502 4.2861 6.65835 4.29165C6.84168 4.29721 7.00002 4.36665 7.13335 4.49999C7.25557 4.63332 7.31946 4.78888 7.32502 4.96665C7.33057 5.14443 7.26668 5.29999 7.13335 5.43332L5.23335 7.33332H12.6667C12.8556 7.33332 13.0139 7.39721 13.1417 7.52499C13.2695 7.65277 13.3333 7.8111 13.3333 7.99999C13.3333 8.18888 13.2695 8.34721 13.1417 8.47499C13.0139 8.60277 12.8556 8.66665 12.6667 8.66665H5.23335Z" fill="#212121"/>
</g>
</svg>
