<svg width="24" height="24" viewBox="0 0 24 24" fill="none" xmlns="http://www.w3.org/2000/svg">
<path d="M12 4.34899C14.492 4.34899 14.7876 4.35832 15.7722 4.40343C18.3016 4.51855 19.483 5.71866 19.5981 8.22932C19.6432 9.21321 19.6518 9.50877 19.6518 12.0008C19.6518 14.4935 19.6425 14.7883 19.5981 15.7722C19.4822 18.2805 18.3039 19.483 15.7722 19.5981C14.7876 19.6432 14.4936 19.6525 12 19.6525C9.50802 19.6525 9.21246 19.6432 8.22858 19.5981C5.69302 19.4822 4.5178 18.2767 4.40269 15.7714C4.35758 14.7875 4.34824 14.4928 4.34824 12C4.34824 9.50799 4.35835 9.21321 4.40269 8.22855C4.51858 5.71866 5.69691 4.51777 8.22858 4.40266C9.21324 4.35832 9.50802 4.34899 12 4.34899ZM12 2.66666C9.46524 2.66666 9.14791 2.67755 8.15235 2.72266C4.7628 2.87821 2.87902 4.75888 2.72346 8.15155C2.67758 9.14788 2.66669 9.46521 2.66669 12C2.66669 14.5348 2.67758 14.8529 2.72269 15.8484C2.87824 19.238 4.75891 21.1218 8.15158 21.2773C9.14791 21.3224 9.46524 21.3333 12 21.3333C14.5348 21.3333 14.8529 21.3224 15.8485 21.2773C19.2349 21.1218 21.1234 19.2411 21.2766 15.8484C21.3225 14.8529 21.3334 14.5348 21.3334 12C21.3334 9.46521 21.3225 9.14788 21.2774 8.15232C21.1249 4.76588 19.2419 2.87899 15.8492 2.72343C14.8529 2.67755 14.5348 2.66666 12 2.66666ZM12 7.20732C9.35324 7.20732 7.20735 9.35321 7.20735 12C7.20735 14.6468 9.35324 16.7934 12 16.7934C14.6468 16.7934 16.7927 14.6475 16.7927 12C16.7927 9.35321 14.6468 7.20732 12 7.20732ZM12 15.1111C10.2819 15.1111 8.88891 13.7189 8.88891 12C8.88891 10.2819 10.2819 8.88888 12 8.88888C13.7181 8.88888 15.1111 10.2819 15.1111 12C15.1111 13.7189 13.7181 15.1111 12 15.1111ZM16.9825 5.89832C16.3634 5.89832 15.8617 6.39999 15.8617 7.01832C15.8617 7.63666 16.3634 8.13832 16.9825 8.13832C17.6008 8.13832 18.1017 7.63666 18.1017 7.01832C18.1017 6.39999 17.6008 5.89832 16.9825 5.89832Z" fill="#212121"/>
</svg>
