<svg width="16" height="16" viewBox="0 0 16 16" fill="none" xmlns="http://www.w3.org/2000/svg">
<mask id="mask0_4066_956" style="mask-type:alpha" maskUnits="userSpaceOnUse" x="0" y="0" width="16" height="16">
<rect width="16" height="16" fill="#D9D9D9"/>
</mask>
<g mask="url(#mask0_4066_956)">
<path d="M7.26722 7.99999L10.4428 11.7309C10.5921 11.9063 10.6667 12.1295 10.6667 12.4006C10.6667 12.6716 10.5921 12.8949 10.4428 13.0702C10.2935 13.2456 10.1035 13.3333 9.87281 13.3333C9.64211 13.3333 9.45212 13.2456 9.30284 13.0702L5.55729 8.66965C5.47587 8.57398 5.41819 8.47034 5.38426 8.35873C5.35034 8.24712 5.33337 8.12754 5.33337 7.99999C5.33337 7.87244 5.35034 7.75285 5.38426 7.64125C5.41819 7.52964 5.47587 7.426 5.55729 7.33033L9.30284 2.92974C9.45212 2.75435 9.64211 2.66666 9.87281 2.66666C10.1035 2.66666 10.2935 2.75435 10.4428 2.92974C10.5921 3.10512 10.6667 3.32834 10.6667 3.59939C10.6667 3.87044 10.5921 4.09366 10.4428 4.26905L7.26722 7.99999Z" fill="#212121"/>
</g>
</svg>
