<svg width="36" height="36" viewBox="0 0 36 36" fill="none" xmlns="http://www.w3.org/2000/svg">
<mask id="mask0_4066_263" style="mask-type:alpha" maskUnits="userSpaceOnUse" x="0" y="0" width="36" height="36">
<rect width="36" height="36" fill="#D9D9D9"/>
</mask>
<g mask="url(#mask0_4066_263)">
<path d="M24.225 19.5H7.5C7.075 19.5 6.71875 19.3562 6.43125 19.0687C6.14375 18.7812 6 18.425 6 18C6 17.575 6.14375 17.2187 6.43125 16.9312C6.71875 16.6437 7.075 16.5 7.5 16.5H24.225L19.95 12.225C19.65 11.925 19.5062 11.575 19.5187 11.175C19.5312 10.775 19.675 10.425 19.95 10.125C20.25 9.82499 20.6062 9.66874 21.0187 9.65624C21.4312 9.64374 21.7875 9.78749 22.0875 10.0875L28.95 16.95C29.1 17.1 29.2062 17.2625 29.2687 17.4375C29.3312 17.6125 29.3625 17.8 29.3625 18C29.3625 18.2 29.3312 18.3875 29.2687 18.5625C29.2062 18.7375 29.1 18.9 28.95 19.05L22.0875 25.9125C21.7875 26.2125 21.4312 26.3562 21.0187 26.3437C20.6062 26.3312 20.25 26.175 19.95 25.875C19.675 25.575 19.5312 25.225 19.5187 24.825C19.5062 24.425 19.65 24.075 19.95 23.775L24.225 19.5Z" fill="#212121"/>
</g>
</svg>
