<svg width="16" height="16" viewBox="0 0 16 16" fill="none" xmlns="http://www.w3.org/2000/svg">
<mask id="mask0_4066_953" style="mask-type:alpha" maskUnits="userSpaceOnUse" x="0" y="0" width="16" height="16">
<rect width="16" height="16" fill="#D9D9D9"/>
</mask>
<g mask="url(#mask0_4066_953)">
<path d="M6.07405 8.96297C6.60588 8.96297 7.03701 8.53184 7.03701 8.00001C7.03701 7.46818 6.60588 7.03705 6.07405 7.03705C5.54222 7.03705 5.11108 7.46818 5.11108 8.00001C5.11108 8.53184 5.54222 8.96297 6.07405 8.96297Z" fill="#212121"/>
<path d="M9.92585 8.96297C10.4577 8.96297 10.8888 8.53184 10.8888 8.00001C10.8888 7.46818 10.4577 7.03705 9.92585 7.03705C9.39402 7.03705 8.96289 7.46818 8.96289 8.00001C8.96289 8.53184 9.39402 8.96297 9.92585 8.96297Z" fill="#212121"/>
<path d="M6.07405 5.11111C6.60588 5.11111 7.03701 4.67997 7.03701 4.14814C7.03701 3.61631 6.60588 3.18518 6.07405 3.18518C5.54222 3.18518 5.11108 3.61631 5.11108 4.14814C5.11108 4.67997 5.54222 5.11111 6.07405 5.11111Z" fill="#212121"/>
<path d="M9.92585 5.11111C10.4577 5.11111 10.8888 4.67997 10.8888 4.14814C10.8888 3.61631 10.4577 3.18518 9.92585 3.18518C9.39402 3.18518 8.96289 3.61631 8.96289 4.14814C8.96289 4.67997 9.39402 5.11111 9.92585 5.11111Z" fill="#212121"/>
<path d="M6.07405 12.8148C6.60588 12.8148 7.03701 12.3837 7.03701 11.8518C7.03701 11.32 6.60588 10.8889 6.07405 10.8889C5.54222 10.8889 5.11108 11.32 5.11108 11.8518C5.11108 12.3837 5.54222 12.8148 6.07405 12.8148Z" fill="#212121"/>
<path d="M9.92585 12.8148C10.4577 12.8148 10.8888 12.3837 10.8888 11.8518C10.8888 11.32 10.4577 10.8889 9.92585 10.8889C9.39402 10.8889 8.96289 11.32 8.96289 11.8518C8.96289 12.3837 9.39402 12.8148 9.92585 12.8148Z" fill="#212121"/>
</g>
</svg>
