<svg width="20" height="20" viewBox="0 0 20 20" fill="none" xmlns="http://www.w3.org/2000/svg">
<mask id="mask0_4066_777" style="mask-type:alpha" maskUnits="userSpaceOnUse" x="0" y="0" width="20" height="20">
<rect width="20" height="20" fill="#D9D9D9"/>
</mask>
<g mask="url(#mask0_4066_777)">
<path d="M13.4584 10.8333H4.16671C3.9306 10.8333 3.73268 10.7535 3.57296 10.5938C3.41324 10.434 3.33337 10.2361 3.33337 10C3.33337 9.76389 3.41324 9.56597 3.57296 9.40625C3.73268 9.24653 3.9306 9.16667 4.16671 9.16667H13.4584L11.0834 6.79167C10.9167 6.625 10.8368 6.43056 10.8438 6.20833C10.8507 5.98611 10.9306 5.79167 11.0834 5.625C11.25 5.45833 11.448 5.37153 11.6771 5.36458C11.9063 5.35764 12.1042 5.4375 12.2709 5.60417L16.0834 9.41667C16.1667 9.5 16.2257 9.59028 16.2605 9.6875C16.2952 9.78472 16.3125 9.88889 16.3125 10C16.3125 10.1111 16.2952 10.2153 16.2605 10.3125C16.2257 10.4097 16.1667 10.5 16.0834 10.5833L12.2709 14.3958C12.1042 14.5625 11.9063 14.6424 11.6771 14.6354C11.448 14.6285 11.25 14.5417 11.0834 14.375C10.9306 14.2083 10.8507 14.0139 10.8438 13.7917C10.8368 13.5694 10.9167 13.375 11.0834 13.2083L13.4584 10.8333Z" fill="#212121"/>
</g>
</svg>
