<svg width="20" height="20" viewBox="0 0 20 20" fill="none" xmlns="http://www.w3.org/2000/svg">
<mask id="mask0_4066_769" style="mask-type:alpha" maskUnits="userSpaceOnUse" x="0" y="0" width="20" height="20">
<rect width="20" height="20" fill="#D9D9D9"/>
</mask>
<g mask="url(#mask0_4066_769)">
<path d="M5.01098 15.4167H7.51098V11.25C7.51098 11.0139 7.59084 10.816 7.75056 10.6563C7.91028 10.4965 8.1082 10.4167 8.34431 10.4167H11.6776C11.9138 10.4167 12.1117 10.4965 12.2714 10.6563C12.4311 10.816 12.511 11.0139 12.511 11.25V15.4167H15.011V7.91667L10.011 4.16667L5.01098 7.91667V15.4167ZM3.34431 15.4167V7.91667C3.34431 7.65278 3.40334 7.40278 3.52139 7.16667C3.63945 6.93056 3.80264 6.73611 4.01098 6.58333L9.01098 2.83333C9.30264 2.61111 9.63598 2.5 10.011 2.5C10.386 2.5 10.7193 2.61111 11.011 2.83333L16.011 6.58333C16.2193 6.73611 16.3825 6.93056 16.5006 7.16667C16.6186 7.40278 16.6776 7.65278 16.6776 7.91667V15.4167C16.6776 15.875 16.5144 16.2674 16.1881 16.5937C15.8617 16.9201 15.4693 17.0833 15.011 17.0833H11.6776C11.4415 17.0833 11.2436 17.0035 11.0839 16.8437C10.9242 16.684 10.8443 16.4861 10.8443 16.25V12.0833H9.17764V16.25C9.17764 16.4861 9.09778 16.684 8.93806 16.8437C8.77834 17.0035 8.58042 17.0833 8.34431 17.0833H5.01098C4.55264 17.0833 4.16028 16.9201 3.83389 16.5937C3.5075 16.2674 3.34431 15.875 3.34431 15.4167Z" fill="#212121"/>
<path d="M7.05421 4.30063C7.4231 4.02423 7.94621 4.09921 8.22261 4.4681C8.49901 4.83699 8.42403 5.36011 8.05514 5.63651L2.16852 10.0471C1.79963 10.3235 1.27651 10.2486 1.00011 9.87967C0.723715 9.51078 0.798697 8.98766 1.16759 8.71126L7.05421 4.30063Z" fill="#212121"/>
<path d="M11.9929 5.6542C11.6245 5.37728 11.5503 4.85411 11.8272 4.48568C12.1042 4.11724 12.6273 4.04305 12.9958 4.31997L18.7931 8.67728C19.1615 8.9542 19.2357 9.47736 18.9588 9.8458C18.6819 10.2142 18.1587 10.2884 17.7903 10.0115L11.9929 5.6542Z" fill="#212121"/>
</g>
</svg>
