<svg width="16" height="16" viewBox="0 0 16 16" fill="none" xmlns="http://www.w3.org/2000/svg">
<path d="M8.00005 2.89933C9.66139 2.89933 9.85842 2.90555 10.5149 2.93562C12.2011 3.01236 12.9887 3.81244 13.0655 5.48622C13.0955 6.14214 13.1012 6.33918 13.1012 8.00051C13.1012 9.66236 13.095 9.85888 13.0655 10.5148C12.9882 12.187 12.2026 12.9887 10.5149 13.0654C9.85842 13.0955 9.66242 13.1017 8.00005 13.1017C6.33872 13.1017 6.14168 13.0955 5.48576 13.0654C3.79539 12.9881 3.01191 12.1844 2.93517 10.5143C2.90509 9.85836 2.89887 9.66184 2.89887 7.99999C2.89887 6.33866 2.90561 6.14214 2.93517 5.4857C3.01242 3.81244 3.79798 3.01185 5.48576 2.9351C6.1422 2.90555 6.33872 2.89933 8.00005 2.89933ZM8.00005 1.77777C6.3102 1.77777 6.09865 1.78503 5.43494 1.8151C3.17524 1.91881 1.91939 3.17259 1.81568 5.43436C1.78509 6.09859 1.77783 6.31014 1.77783 7.99999C1.77783 9.68984 1.78509 9.90192 1.81517 10.5656C1.91887 12.8253 3.17265 14.0812 5.43442 14.1849C6.09865 14.215 6.3102 14.2222 8.00005 14.2222C9.68991 14.2222 9.90198 14.215 10.5657 14.1849C12.8233 14.0812 14.0823 12.8274 14.1844 10.5656C14.215 9.90192 14.2223 9.68984 14.2223 7.99999C14.2223 6.31014 14.215 6.09859 14.1849 5.43488C14.0833 3.17725 12.828 1.91933 10.5662 1.81562C9.90198 1.78503 9.68991 1.77777 8.00005 1.77777ZM8.00005 4.80488C6.23554 4.80488 4.80494 6.23547 4.80494 7.99999C4.80494 9.76451 6.23554 11.1956 8.00005 11.1956C9.76457 11.1956 11.1952 9.76503 11.1952 7.99999C11.1952 6.23547 9.76457 4.80488 8.00005 4.80488ZM8.00005 10.0741C6.85465 10.0741 5.92598 9.14592 5.92598 7.99999C5.92598 6.85459 6.85465 5.92592 8.00005 5.92592C9.14546 5.92592 10.0741 6.85459 10.0741 7.99999C10.0741 9.14592 9.14546 10.0741 8.00005 10.0741ZM11.3217 3.93222C10.9089 3.93222 10.5745 4.26666 10.5745 4.67888C10.5745 5.0911 10.9089 5.42555 11.3217 5.42555C11.7339 5.42555 12.0678 5.0911 12.0678 4.67888C12.0678 4.26666 11.7339 3.93222 11.3217 3.93222Z" fill="#212121"/>
</svg>
