<svg width="24" height="24" viewBox="0 0 24 24" fill="none" xmlns="http://www.w3.org/2000/svg">
<mask id="mask0_4066_411" style="mask-type:alpha" maskUnits="userSpaceOnUse" x="0" y="0" width="24" height="24">
<rect width="24" height="24" fill="#D9D9D9"/>
</mask>
<g mask="url(#mask0_4066_411)">
<path d="M6.01312 18.5H9.01312V13.5C9.01312 13.2167 9.10896 12.9792 9.30062 12.7875C9.49229 12.5958 9.72979 12.5 10.0131 12.5H14.0131C14.2965 12.5 14.534 12.5958 14.7256 12.7875C14.9173 12.9792 15.0131 13.2167 15.0131 13.5V18.5H18.0131V9.5L12.0131 5L6.01312 9.5V18.5ZM4.01312 18.5V9.5C4.01312 9.18333 4.08396 8.88333 4.22562 8.6C4.36729 8.31667 4.56312 8.08333 4.81312 7.9L10.8131 3.4C11.1631 3.13333 11.5631 3 12.0131 3C12.4631 3 12.8631 3.13333 13.2131 3.4L19.2131 7.9C19.4631 8.08333 19.659 8.31667 19.8006 8.6C19.9423 8.88333 20.0131 9.18333 20.0131 9.5V18.5C20.0131 19.05 19.8173 19.5208 19.4256 19.9125C19.034 20.3042 18.5631 20.5 18.0131 20.5H14.0131C13.7298 20.5 13.4923 20.4042 13.3006 20.2125C13.109 20.0208 13.0131 19.7833 13.0131 19.5V14.5H11.0131V19.5C11.0131 19.7833 10.9173 20.0208 10.7256 20.2125C10.534 20.4042 10.2965 20.5 10.0131 20.5H6.01312C5.46312 20.5 4.99229 20.3042 4.60062 19.9125C4.20896 19.5208 4.01312 19.05 4.01312 18.5Z" fill="#212121"/>
<path d="M8.465 5.16075C8.90767 4.82907 9.53541 4.91905 9.86708 5.36172C10.1988 5.80439 10.1088 6.43213 9.66611 6.76381L2.60218 12.0566C2.1595 12.3883 1.53177 12.2983 1.20009 11.8556C0.868409 11.4129 0.958387 10.7852 1.40106 10.4535L8.465 5.16075Z" fill="#212121"/>
<path d="M14.3915 6.78504C13.9494 6.45273 13.8603 5.82494 14.1926 5.38281C14.5249 4.94069 15.1527 4.85166 15.5949 5.18396L22.5517 10.4127C22.9938 10.745 23.0828 11.3728 22.7505 11.815C22.4182 12.2571 21.7904 12.3461 21.3483 12.0138L14.3915 6.78504Z" fill="#212121"/>
</g>
</svg>
