<svg width="16" height="16" viewBox="0 0 16 16" fill="none" xmlns="http://www.w3.org/2000/svg">
<path d="M8.00008 10.6667C8.83342 10.6667 9.54175 10.375 10.1251 9.79166C10.7084 9.20832 11.0001 8.49999 11.0001 7.66666C11.0001 6.83332 10.7084 6.12499 10.1251 5.54166C9.54175 4.95832 8.83342 4.66666 8.00008 4.66666C7.16675 4.66666 6.45842 4.95832 5.87508 5.54166C5.29175 6.12499 5.00008 6.83332 5.00008 7.66666C5.00008 8.49999 5.29175 9.20832 5.87508 9.79166C6.45842 10.375 7.16675 10.6667 8.00008 10.6667ZM8.00008 9.46666C7.50008 9.46666 7.07508 9.29166 6.72508 8.94166C6.37508 8.59166 6.20008 8.16666 6.20008 7.66666C6.20008 7.16666 6.37508 6.74166 6.72508 6.39166C7.07508 6.04166 7.50008 5.86666 8.00008 5.86666C8.50008 5.86666 8.92508 6.04166 9.27508 6.39166C9.62508 6.74166 9.80008 7.16666 9.80008 7.66666C9.80008 8.16666 9.62508 8.59166 9.27508 8.94166C8.92508 9.29166 8.50008 9.46666 8.00008 9.46666ZM8.00008 12.6667C6.37786 12.6667 4.90008 12.2139 3.56675 11.3083C2.23341 10.4028 1.26675 9.18888 0.666748 7.66666C1.26675 6.14443 2.23341 4.93055 3.56675 4.02499C4.90008 3.11943 6.37786 2.66666 8.00008 2.66666C9.6223 2.66666 11.1001 3.11943 12.4334 4.02499C13.7667 4.93055 14.7334 6.14443 15.3334 7.66666C14.7334 9.18888 13.7667 10.4028 12.4334 11.3083C11.1001 12.2139 9.6223 12.6667 8.00008 12.6667ZM8.00008 11.3333C9.25564 11.3333 10.4084 11.0028 11.4584 10.3417C12.5084 9.68055 13.3112 8.78888 13.8667 7.66666C13.3112 6.54443 12.5084 5.65277 11.4584 4.99166C10.4084 4.33055 9.25564 3.99999 8.00008 3.99999C6.74453 3.99999 5.59175 4.33055 4.54175 4.99166C3.49175 5.65277 2.68897 6.54443 2.13341 7.66666C2.68897 8.78888 3.49175 9.68055 4.54175 10.3417C5.59175 11.0028 6.74453 11.3333 8.00008 11.3333Z" fill="#212121"/>
</svg>
