<svg width="36" height="36" viewBox="0 0 36 36" fill="none" xmlns="http://www.w3.org/2000/svg">
<path d="M18.0001 24C19.8751 24 21.4688 23.3438 22.7813 22.0313C24.0938 20.7188 24.7501 19.125 24.7501 17.25C24.7501 15.375 24.0938 13.7813 22.7813 12.4688C21.4688 11.1563 19.8751 10.5 18.0001 10.5C16.1251 10.5 14.5313 11.1563 13.2188 12.4688C11.9063 13.7813 11.2501 15.375 11.2501 17.25C11.2501 19.125 11.9063 20.7188 13.2188 22.0313C14.5313 23.3438 16.1251 24 18.0001 24ZM18.0001 21.3C16.8751 21.3 15.9188 20.9063 15.1313 20.1188C14.3438 19.3313 13.9501 18.375 13.9501 17.25C13.9501 16.125 14.3438 15.1688 15.1313 14.3813C15.9188 13.5938 16.8751 13.2 18.0001 13.2C19.1251 13.2 20.0813 13.5938 20.8688 14.3813C21.6563 15.1688 22.0501 16.125 22.0501 17.25C22.0501 18.375 21.6563 19.3313 20.8688 20.1188C20.0813 20.9063 19.1251 21.3 18.0001 21.3ZM18.0001 28.5C14.3501 28.5 11.0251 27.4813 8.02506 25.4438C5.02506 23.4063 2.85006 20.675 1.50006 17.25C2.85006 13.825 5.02506 11.0938 8.02506 9.05625C11.0251 7.01875 14.3501 6 18.0001 6C21.6501 6 24.9751 7.01875 27.9751 9.05625C30.9751 11.0938 33.1501 13.825 34.5001 17.25C33.1501 20.675 30.9751 23.4063 27.9751 25.4438C24.9751 27.4813 21.6501 28.5 18.0001 28.5ZM18.0001 25.5C20.8251 25.5 23.4188 24.7563 25.7813 23.2688C28.1438 21.7813 29.9501 19.775 31.2001 17.25C29.9501 14.725 28.1438 12.7188 25.7813 11.2313C23.4188 9.74375 20.8251 9 18.0001 9C15.1751 9 12.5813 9.74375 10.2188 11.2313C7.85631 12.7188 6.05006 14.725 4.80006 17.25C6.05006 19.775 7.85631 21.7813 10.2188 23.2688C12.5813 24.7563 15.1751 25.5 18.0001 25.5Z" fill="#212121"/>
</svg>
