<svg width="36" height="36" viewBox="0 0 36 36" fill="none" xmlns="http://www.w3.org/2000/svg">
<mask id="mask0_4066_269" style="mask-type:alpha" maskUnits="userSpaceOnUse" x="0" y="0" width="36" height="36">
<rect width="36" height="36" fill="#D9D9D9"/>
</mask>
<g mask="url(#mask0_4066_269)">
<path d="M16.5 13.2L12.15 17.55C11.875 17.825 11.525 17.9625 11.1 17.9625C10.675 17.9625 10.325 17.825 10.05 17.55C9.77501 17.275 9.63751 16.925 9.63751 16.5C9.63751 16.075 9.77501 15.725 10.05 15.45L16.95 8.55001C17.25 8.25001 17.6 8.10001 18 8.10001C18.4 8.10001 18.75 8.25001 19.05 8.55001L25.95 15.45C26.225 15.725 26.3625 16.075 26.3625 16.5C26.3625 16.925 26.225 17.275 25.95 17.55C25.675 17.825 25.325 17.9625 24.9 17.9625C24.475 17.9625 24.125 17.825 23.85 17.55L19.5 13.2V25.5C19.5 25.925 19.3563 26.2813 19.0688 26.5688C18.7813 26.8563 18.425 27 18 27C17.575 27 17.2188 26.8563 16.9313 26.5688C16.6438 26.2813 16.5 25.925 16.5 25.5V13.2Z" fill="#212121"/>
</g>
</svg>
