<svg width="16" height="16" viewBox="0 0 16 16" fill="none" xmlns="http://www.w3.org/2000/svg">
<path fill-rule="evenodd" clip-rule="evenodd" d="M8 3C8.0131 3 12.3834 3.00046 13.4775 3.2998C14.0772 3.46125 14.5505 3.93451 14.7119 4.53418C15.0116 5.6299 15 7.91309 15 7.91309C15 7.94841 14.9979 10.1934 14.7119 11.2803C14.5504 11.8799 14.0772 12.3522 13.4775 12.5137C12.3835 12.8015 8.01309 12.8027 8 12.8027C8 12.8027 3.62969 12.8018 2.52246 12.502C1.92279 12.3405 1.44954 11.8682 1.28809 11.2686C1.00148 10.1909 1.00001 7.92788 1 7.90137C1 7.90137 0.9999 5.62989 1.28809 4.53418C1.44954 3.93451 1.93433 3.44953 2.52246 3.28809C3.61845 2.99985 8 3 8 3ZM6.60449 10L10.249 7.90137L6.60449 5.80273V10Z" fill="#212121"/>
</svg>
