<svg width="24" height="24" viewBox="0 0 24 24" fill="none" xmlns="http://www.w3.org/2000/svg">
<mask id="mask0_4066_417" style="mask-type:alpha" maskUnits="userSpaceOnUse" x="0" y="0" width="24" height="24">
<rect width="24" height="24" fill="#D9D9D9"/>
</mask>
<g mask="url(#mask0_4066_417)">
<mask id="path-2-inside-1_4066_417" fill="white">
<path d="M12 10C11.8565 10 11.722 9.98092 11.5964 9.94275C11.4709 9.90458 11.3543 9.83969 11.2466 9.74809L6.29596 5.53435C6.09865 5.36641 6 5.15267 6 4.89313C6 4.63359 6.09865 4.41985 6.29596 4.25191C6.49327 4.08397 6.74439 4 7.04933 4C7.35426 4 7.60538 4.08397 7.80269 4.25191L12 7.82443L16.1973 4.25191C16.3946 4.08397 16.6457 4 16.9507 4C17.2556 4 17.5067 4.08397 17.704 4.25191C17.9013 4.41985 18 4.63359 18 4.89313C18 5.15267 17.9013 5.36641 17.704 5.53435L12.7534 9.74809C12.6457 9.83969 12.5291 9.90458 12.4036 9.94275C12.278 9.98092 12.1435 10 12 10Z"/>
</mask>
<path d="M11.2466 9.74809L9.95033 11.2711L11.2466 9.74809ZM6.29596 5.53435L7.59227 4.01133L6.29596 5.53435ZM7.80269 4.25191L6.50638 5.77493L7.80269 4.25191ZM12 7.82443L10.7037 9.34745L12 10.4508L13.2963 9.34745L12 7.82443ZM16.1973 4.25191L14.901 2.72889V2.72889L16.1973 4.25191ZM17.704 5.53435L16.4077 4.01133L17.704 5.53435ZM12.7534 9.74809L14.0497 11.2711L12.7534 9.74809ZM12 10V8C12.0353 8 12.0983 8.00496 12.1781 8.0292L11.5964 9.94275L11.0147 11.8563C11.3456 11.9569 11.6777 12 12 12V10ZM11.5964 9.94275L12.1781 8.0292C12.3347 8.07681 12.4579 8.15272 12.5429 8.22507L11.2466 9.74809L9.95033 11.2711C10.2506 11.5267 10.607 11.7323 11.0147 11.8563L11.5964 9.94275ZM11.2466 9.74809L12.5429 8.22507L7.59227 4.01133L6.29596 5.53435L4.99966 7.05737L9.95033 11.2711L11.2466 9.74809ZM6.29596 5.53435L7.59227 4.01133C7.69196 4.09619 7.80594 4.22805 7.88989 4.40994C7.97381 4.59174 8 4.76344 8 4.89313H6H4C4 5.7378 4.35502 6.50869 4.99966 7.05737L6.29596 5.53435ZM6 4.89313H8C8 5.02282 7.97381 5.19452 7.88989 5.37632C7.80594 5.55821 7.69196 5.69007 7.59227 5.77493L6.29596 4.25191L4.99966 2.72889C4.35502 3.27757 4 4.04846 4 4.89313H6ZM6.29596 4.25191L7.59227 5.77493C7.49184 5.86041 7.37808 5.92245 7.26653 5.95975C7.15927 5.99561 7.08038 6 7.04933 6V4V2C6.35772 2 5.62075 2.20025 4.99966 2.72889L6.29596 4.25191ZM7.04933 4V6C7.01827 6 6.93938 5.99561 6.83213 5.95975C6.72057 5.92245 6.60681 5.86041 6.50638 5.77493L7.80269 4.25191L9.099 2.72889C8.47791 2.20025 7.74093 2 7.04933 2V4ZM7.80269 4.25191L6.50638 5.77493L10.7037 9.34745L12 7.82443L13.2963 6.30141L9.099 2.72889L7.80269 4.25191ZM12 7.82443L13.2963 9.34745L17.4936 5.77493L16.1973 4.25191L14.901 2.72889L10.7037 6.30141L12 7.82443ZM16.1973 4.25191L17.4936 5.77493C17.3932 5.86041 17.2794 5.92245 17.1679 5.95975C17.0606 5.99561 16.9817 6 16.9507 6V4V2C16.2591 2 15.5221 2.20025 14.901 2.72889L16.1973 4.25191ZM16.9507 4V6C16.9196 6 16.8407 5.99561 16.7335 5.95975C16.6219 5.92245 16.5082 5.86041 16.4077 5.77493L17.704 4.25191L19.0003 2.72889C18.3793 2.20025 17.6423 2 16.9507 2V4ZM17.704 4.25191L16.4077 5.77493C16.308 5.69008 16.1941 5.55822 16.1101 5.37632C16.0262 5.19452 16 5.02282 16 4.89313H18H20C20 4.04846 19.645 3.27757 19.0003 2.72889L17.704 4.25191ZM18 4.89313H16C16 4.76344 16.0262 4.59174 16.1101 4.40994C16.1941 4.22804 16.308 4.09618 16.4077 4.01133L17.704 5.53435L19.0003 7.05737C19.645 6.50869 20 5.7378 20 4.89313H18ZM17.704 5.53435L16.4077 4.01133L11.4571 8.22507L12.7534 9.74809L14.0497 11.2711L19.0003 7.05737L17.704 5.53435ZM12.7534 9.74809L11.4571 8.22507C11.5421 8.15272 11.6653 8.07681 11.8219 8.0292L12.4036 9.94275L12.9853 11.8563C13.393 11.7323 13.7494 11.5267 14.0497 11.2711L12.7534 9.74809ZM12.4036 9.94275L11.8219 8.0292C11.9017 8.00496 11.9647 8 12 8V10V12C12.3223 12 12.6544 11.9569 12.9853 11.8563L12.4036 9.94275Z" fill="#212121" mask="url(#path-2-inside-1_4066_417)"/>
<mask id="path-4-inside-2_4066_417" fill="white">
<path d="M12 14C11.8565 14 11.722 14.0191 11.5964 14.0573C11.4709 14.0954 11.3543 14.1603 11.2466 14.2519L6.29596 18.4656C6.09865 18.6336 6 18.8473 6 19.1069C6 19.3664 6.09865 19.5802 6.29596 19.7481C6.49327 19.916 6.74439 20 7.04933 20C7.35426 20 7.60538 19.916 7.80269 19.7481L12 16.1756L16.1973 19.7481C16.3946 19.916 16.6457 20 16.9507 20C17.2556 20 17.5067 19.916 17.704 19.7481C17.9013 19.5802 18 19.3664 18 19.1069C18 18.8473 17.9013 18.6336 17.704 18.4656L12.7534 14.2519C12.6457 14.1603 12.5291 14.0954 12.4036 14.0573C12.278 14.0191 12.1435 14 12 14Z"/>
</mask>
<path d="M11.2466 14.2519L9.95033 12.7289L11.2466 14.2519ZM6.29596 18.4656L7.59227 19.9887L6.29596 18.4656ZM7.80269 19.7481L6.50638 18.2251L7.80269 19.7481ZM12 16.1756L10.7037 14.6526L12 13.5492L13.2963 14.6526L12 16.1756ZM16.1973 19.7481L14.901 21.2711V21.2711L16.1973 19.7481ZM17.704 18.4656L16.4077 19.9887L17.704 18.4656ZM12.7534 14.2519L14.0497 12.7289L12.7534 14.2519ZM12 14V16C12.0353 16 12.0983 15.995 12.1781 15.9708L11.5964 14.0573L11.0147 12.1437C11.3456 12.0431 11.6777 12 12 12V14ZM11.5964 14.0573L12.1781 15.9708C12.3347 15.9232 12.4579 15.8473 12.5429 15.7749L11.2466 14.2519L9.95033 12.7289C10.2506 12.4733 10.607 12.2677 11.0147 12.1437L11.5964 14.0573ZM11.2466 14.2519L12.5429 15.7749L7.59227 19.9887L6.29596 18.4656L4.99966 16.9426L9.95033 12.7289L11.2466 14.2519ZM6.29596 18.4656L7.59227 19.9887C7.69196 19.9038 7.80594 19.772 7.88989 19.5901C7.97381 19.4083 8 19.2366 8 19.1069H6H4C4 18.2622 4.35502 17.4913 4.99966 16.9426L6.29596 18.4656ZM6 19.1069H8C8 18.9772 7.97381 18.8055 7.88989 18.6237C7.80594 18.4418 7.69196 18.3099 7.59227 18.2251L6.29596 19.7481L4.99966 21.2711C4.35502 20.7224 4 19.9515 4 19.1069H6ZM6.29596 19.7481L7.59227 18.2251C7.49184 18.1396 7.37808 18.0776 7.26653 18.0403C7.15927 18.0044 7.08038 18 7.04933 18V20V22C6.35772 22 5.62075 21.7997 4.99966 21.2711L6.29596 19.7481ZM7.04933 20V18C7.01827 18 6.93938 18.0044 6.83213 18.0403C6.72057 18.0776 6.60681 18.1396 6.50638 18.2251L7.80269 19.7481L9.099 21.2711C8.47791 21.7997 7.74093 22 7.04933 22V20ZM7.80269 19.7481L6.50638 18.2251L10.7037 14.6526L12 16.1756L13.2963 17.6986L9.099 21.2711L7.80269 19.7481ZM12 16.1756L13.2963 14.6526L17.4936 18.2251L16.1973 19.7481L14.901 21.2711L10.7037 17.6986L12 16.1756ZM16.1973 19.7481L17.4936 18.2251C17.3932 18.1396 17.2794 18.0776 17.1679 18.0403C17.0606 18.0044 16.9817 18 16.9507 18V20V22C16.2591 22 15.5221 21.7997 14.901 21.2711L16.1973 19.7481ZM16.9507 20V18C16.9196 18 16.8407 18.0044 16.7335 18.0403C16.6219 18.0776 16.5082 18.1396 16.4077 18.2251L17.704 19.7481L19.0003 21.2711C18.3793 21.7997 17.6423 22 16.9507 22V20ZM17.704 19.7481L16.4077 18.2251C16.308 18.3099 16.1941 18.4418 16.1101 18.6237C16.0262 18.8055 16 18.9772 16 19.1069H18H20C20 19.9515 19.645 20.7224 19.0003 21.2711L17.704 19.7481ZM18 19.1069H16C16 19.2366 16.0262 19.4083 16.1101 19.5901C16.1941 19.772 16.308 19.9038 16.4077 19.9887L17.704 18.4656L19.0003 16.9426C19.645 17.4913 20 18.2622 20 19.1069H18ZM17.704 18.4656L16.4077 19.9887L11.4571 15.7749L12.7534 14.2519L14.0497 12.7289L19.0003 16.9426L17.704 18.4656ZM12.7534 14.2519L11.4571 15.7749C11.5421 15.8473 11.6653 15.9232 11.8219 15.9708L12.4036 14.0573L12.9853 12.1437C13.393 12.2677 13.7494 12.4733 14.0497 12.7289L12.7534 14.2519ZM12.4036 14.0573L11.8219 15.9708C11.9017 15.995 11.9647 16 12 16V14V12C12.3223 12 12.6544 12.0431 12.9853 12.1437L12.4036 14.0573Z" fill="#212121" mask="url(#path-4-inside-2_4066_417)"/>
</g>
</svg>
