<svg width="24" height="24" viewBox="0 0 24 24" fill="none" xmlns="http://www.w3.org/2000/svg">
<mask id="mask0_4066_445" style="mask-type:alpha" maskUnits="userSpaceOnUse" x="0" y="0" width="24" height="24">
<rect width="24" height="24" fill="#D9D9D9"/>
</mask>
<g mask="url(#mask0_4066_445)">
<path d="M9.11107 13.4445C9.90882 13.4445 10.5555 12.7978 10.5555 12C10.5555 11.2023 9.90882 10.5556 9.11107 10.5556C8.31333 10.5556 7.66663 11.2023 7.66663 12C7.66663 12.7978 8.31333 13.4445 9.11107 13.4445Z" fill="#212121"/>
<path d="M14.8888 13.4445C15.6866 13.4445 16.3333 12.7978 16.3333 12C16.3333 11.2023 15.6866 10.5556 14.8888 10.5556C14.0911 10.5556 13.4444 11.2023 13.4444 12C13.4444 12.7978 14.0911 13.4445 14.8888 13.4445Z" fill="#212121"/>
<path d="M9.11107 7.66666C9.90882 7.66666 10.5555 7.01996 10.5555 6.22222C10.5555 5.42447 9.90882 4.77777 9.11107 4.77777C8.31333 4.77777 7.66663 5.42447 7.66663 6.22222C7.66663 7.01996 8.31333 7.66666 9.11107 7.66666Z" fill="#212121"/>
<path d="M14.8888 7.66666C15.6866 7.66666 16.3333 7.01996 16.3333 6.22222C16.3333 5.42447 15.6866 4.77777 14.8888 4.77777C14.0911 4.77777 13.4444 5.42447 13.4444 6.22222C13.4444 7.01996 14.0911 7.66666 14.8888 7.66666Z" fill="#212121"/>
<path d="M9.11107 19.2222C9.90882 19.2222 10.5555 18.5755 10.5555 17.7778C10.5555 16.98 9.90882 16.3333 9.11107 16.3333C8.31333 16.3333 7.66663 16.98 7.66663 17.7778C7.66663 18.5755 8.31333 19.2222 9.11107 19.2222Z" fill="#212121"/>
<path d="M14.8888 19.2222C15.6866 19.2222 16.3333 18.5755 16.3333 17.7778C16.3333 16.98 15.6866 16.3333 14.8888 16.3333C14.0911 16.3333 13.4444 16.98 13.4444 17.7778C13.4444 18.5755 14.0911 19.2222 14.8888 19.2222Z" fill="#212121"/>
</g>
</svg>
