<svg width="36" height="36" viewBox="0 0 36 36" fill="none" xmlns="http://www.w3.org/2000/svg">
<mask id="mask0_4066_259" style="mask-type:alpha" maskUnits="userSpaceOnUse" x="0" y="0" width="36" height="36">
<rect width="36" height="36" fill="#D9D9D9"/>
</mask>
<g mask="url(#mask0_4066_259)">
<mask id="path-2-inside-1_4066_259" fill="white">
<path d="M18 6C17.7848 6 17.583 6.02863 17.3946 6.08588C17.2063 6.14313 17.0314 6.24046 16.87 6.37786L9.44395 12.6985C9.14798 12.9504 9 13.271 9 13.6603C9 14.0496 9.14798 14.3702 9.44395 14.6221C9.73991 14.874 10.1166 15 10.574 15C11.0314 15 11.4081 14.874 11.704 14.6221L18 9.26336L24.296 14.6221C24.5919 14.874 24.9686 15 25.426 15C25.8834 15 26.2601 14.874 26.5561 14.6221C26.852 14.3702 27 14.0496 27 13.6603C27 13.271 26.852 12.9504 26.5561 12.6985L19.13 6.37786C18.9686 6.24046 18.7937 6.14313 18.6054 6.08588C18.417 6.02863 18.2152 6 18 6Z"/>
</mask>
<path d="M16.87 6.37786L14.9255 4.09334L16.87 6.37786ZM9.44395 12.6985L11.3884 14.983L9.44395 12.6985ZM11.704 14.6221L9.75957 12.3376L11.704 14.6221ZM18 9.26336L16.0555 6.97883L18 5.32381L19.9445 6.97883L18 9.26336ZM24.296 14.6221L22.3515 16.9067L24.296 14.6221ZM26.5561 12.6985L24.6116 14.983L26.5561 12.6985ZM19.13 6.37786L21.0745 4.09334L19.13 6.37786ZM18 6V9C18.053 9 18.1475 8.99256 18.2671 8.95619L17.3946 6.08588L16.5221 3.21556C17.0184 3.0647 17.5165 3 18 3V6ZM17.3946 6.08588L18.2671 8.95619C18.5021 8.88478 18.6869 8.77093 18.8144 8.66239L16.87 6.37786L14.9255 4.09334C15.3759 3.70999 15.9105 3.40148 16.5221 3.21556L17.3946 6.08588ZM16.87 6.37786L18.8144 8.66239L11.3884 14.983L9.44395 12.6985L7.49948 10.4139L14.9255 4.09334L16.87 6.37786ZM9.44395 12.6985L11.3884 14.983C11.5379 14.8557 11.7089 14.6579 11.8348 14.3851C11.9607 14.1124 12 13.8548 12 13.6603H9H6C6 12.3933 6.53253 11.237 7.49948 10.4139L9.44395 12.6985ZM9 13.6603H12C12 13.4658 11.9607 13.2082 11.8348 12.9355C11.7089 12.6627 11.5379 12.4649 11.3884 12.3376L9.44395 14.6221L7.49948 16.9067C6.53253 16.0836 6 14.9273 6 13.6603H9ZM9.44395 14.6221L11.3884 12.3376C11.2378 12.2094 11.0671 12.1163 10.8998 12.0604C10.7389 12.0066 10.6206 12 10.574 12V15V18C9.53658 18 8.43112 17.6996 7.49948 16.9067L9.44395 14.6221ZM10.574 15V12C10.5274 12 10.4091 12.0066 10.2482 12.0604C10.0809 12.1163 9.91022 12.2094 9.75957 12.3376L11.704 14.6221L13.6485 16.9067C12.7169 17.6996 11.6114 18 10.574 18V15ZM11.704 14.6221L9.75957 12.3376L16.0555 6.97883L18 9.26336L19.9445 11.5479L13.6485 16.9067L11.704 14.6221ZM18 9.26336L19.9445 6.97883L26.2404 12.3376L24.296 14.6221L22.3515 16.9067L16.0555 11.5479L18 9.26336ZM24.296 14.6221L26.2404 12.3376C26.0898 12.2094 25.9191 12.1163 25.7518 12.0604C25.5909 12.0066 25.4726 12 25.426 12V15V18C24.3886 18 23.2831 17.6996 22.3515 16.9067L24.296 14.6221ZM25.426 15V12C25.3794 12 25.2611 12.0066 25.1002 12.0604C24.9329 12.1163 24.7622 12.2094 24.6116 12.3376L26.5561 14.6221L28.5005 16.9067C27.5689 17.6996 26.4634 18 25.426 18V15ZM26.5561 14.6221L24.6116 12.3376C24.4621 12.4649 24.2911 12.6627 24.1652 12.9355C24.0393 13.2082 24 13.4658 24 13.6603H27H30C30 14.9273 29.4675 16.0836 28.5005 16.9067L26.5561 14.6221ZM27 13.6603H24C24 13.8548 24.0393 14.1124 24.1652 14.3851C24.2911 14.6579 24.4621 14.8557 24.6116 14.983L26.5561 12.6985L28.5005 10.4139C29.4675 11.237 30 12.3933 30 13.6603H27ZM26.5561 12.6985L24.6116 14.983L17.1856 8.66239L19.13 6.37786L21.0745 4.09334L28.5005 10.4139L26.5561 12.6985ZM19.13 6.37786L17.1856 8.66239C17.3131 8.77092 17.4979 8.88478 17.7329 8.95619L18.6054 6.08588L19.4779 3.21556C20.0895 3.40148 20.6241 3.70999 21.0745 4.09334L19.13 6.37786ZM18.6054 6.08588L17.7329 8.95619C17.8525 8.99256 17.947 9 18 9V6V3C18.4835 3 18.9816 3.0647 19.4779 3.21556L18.6054 6.08588Z" fill="#212121" mask="url(#path-2-inside-1_4066_259)"/>
<mask id="path-4-inside-2_4066_259" fill="white">
<path d="M18 30C17.7848 30 17.583 29.9714 17.3946 29.9141C17.2063 29.8569 17.0314 29.7595 16.87 29.6221L9.44395 23.3015C9.14798 23.0496 9 22.729 9 22.3397C9 21.9504 9.14798 21.6298 9.44395 21.3779C9.73991 21.126 10.1166 21 10.574 21C11.0314 21 11.4081 21.126 11.704 21.3779L18 26.7366L24.296 21.3779C24.5919 21.126 24.9686 21 25.426 21C25.8834 21 26.2601 21.126 26.5561 21.3779C26.852 21.6298 27 21.9504 27 22.3397C27 22.729 26.852 23.0496 26.5561 23.3015L19.13 29.6221C18.9686 29.7595 18.7937 29.8569 18.6054 29.9141C18.417 29.9714 18.2152 30 18 30Z"/>
</mask>
<path d="M16.87 29.6221L14.9255 31.9067L16.87 29.6221ZM9.44395 23.3015L11.3884 21.017L9.44395 23.3015ZM11.704 21.3779L9.75957 23.6624L11.704 21.3779ZM18 26.7366L16.0555 29.0212L18 30.6762L19.9445 29.0212L18 26.7366ZM24.296 21.3779L22.3515 19.0933L24.296 21.3779ZM26.5561 23.3015L24.6116 21.017L26.5561 23.3015ZM19.13 29.6221L21.0745 31.9067L19.13 29.6221ZM18 30V27C18.053 27 18.1475 27.0074 18.2671 27.0438L17.3946 29.9141L16.5221 32.7844C17.0184 32.9353 17.5165 33 18 33V30ZM17.3946 29.9141L18.2671 27.0438C18.5021 27.1152 18.6869 27.2291 18.8144 27.3376L16.87 29.6221L14.9255 31.9067C15.3759 32.29 15.9105 32.5985 16.5221 32.7844L17.3946 29.9141ZM16.87 29.6221L18.8144 27.3376L11.3884 21.017L9.44395 23.3015L7.49948 25.5861L14.9255 31.9067L16.87 29.6221ZM9.44395 23.3015L11.3884 21.017C11.5379 21.1443 11.7089 21.3421 11.8348 21.6149C11.9607 21.8876 12 22.1452 12 22.3397H9H6C6 23.6067 6.53253 24.763 7.49948 25.5861L9.44395 23.3015ZM9 22.3397H12C12 22.5342 11.9607 22.7918 11.8348 23.0645C11.7089 23.3373 11.5379 23.5351 11.3884 23.6624L9.44395 21.3779L7.49948 19.0933C6.53253 19.9164 6 21.0727 6 22.3397H9ZM9.44395 21.3779L11.3884 23.6624C11.2378 23.7906 11.0671 23.8837 10.8998 23.9396C10.7389 23.9934 10.6206 24 10.574 24V21V18C9.53658 18 8.43112 18.3004 7.49948 19.0933L9.44395 21.3779ZM10.574 21V24C10.5274 24 10.4091 23.9934 10.2482 23.9396C10.0809 23.8837 9.91022 23.7906 9.75957 23.6624L11.704 21.3779L13.6485 19.0933C12.7169 18.3004 11.6114 18 10.574 18V21ZM11.704 21.3779L9.75957 23.6624L16.0555 29.0212L18 26.7366L19.9445 24.4521L13.6485 19.0933L11.704 21.3779ZM18 26.7366L19.9445 29.0212L26.2404 23.6624L24.296 21.3779L22.3515 19.0933L16.0555 24.4521L18 26.7366ZM24.296 21.3779L26.2404 23.6624C26.0898 23.7906 25.9191 23.8837 25.7518 23.9396C25.5909 23.9934 25.4726 24 25.426 24V21V18C24.3886 18 23.2831 18.3004 22.3515 19.0933L24.296 21.3779ZM25.426 21V24C25.3794 24 25.2611 23.9934 25.1002 23.9396C24.9329 23.8837 24.7622 23.7906 24.6116 23.6624L26.5561 21.3779L28.5005 19.0933C27.5689 18.3004 26.4634 18 25.426 18V21ZM26.5561 21.3779L24.6116 23.6624C24.4621 23.5351 24.2911 23.3373 24.1652 23.0645C24.0393 22.7918 24 22.5342 24 22.3397H27H30C30 21.0727 29.4675 19.9164 28.5005 19.0933L26.5561 21.3779ZM27 22.3397H24C24 22.1452 24.0393 21.8876 24.1652 21.6149C24.2911 21.3421 24.4621 21.1443 24.6116 21.017L26.5561 23.3015L28.5005 25.5861C29.4675 24.763 30 23.6067 30 22.3397H27ZM26.5561 23.3015L24.6116 21.017L17.1856 27.3376L19.13 29.6221L21.0745 31.9067L28.5005 25.5861L26.5561 23.3015ZM19.13 29.6221L17.1856 27.3376C17.3131 27.2291 17.4979 27.1152 17.7329 27.0438L18.6054 29.9141L19.4779 32.7844C20.0895 32.5985 20.6241 32.29 21.0745 31.9067L19.13 29.6221ZM18.6054 29.9141L17.7329 27.0438C17.8525 27.0074 17.947 27 18 27V30V33C18.4835 33 18.9816 32.9353 19.4779 32.7844L18.6054 29.9141Z" fill="#212121" mask="url(#path-4-inside-2_4066_259)"/>
</g>
</svg>
