<svg width="20" height="20" viewBox="0 0 20 20" fill="none" xmlns="http://www.w3.org/2000/svg">
<mask id="mask0_4066_775" style="mask-type:alpha" maskUnits="userSpaceOnUse" x="0" y="0" width="20" height="20">
<rect width="20" height="20" fill="#D9D9D9"/>
</mask>
<g mask="url(#mask0_4066_775)">
<mask id="path-2-inside-1_4066_775" fill="white">
<path d="M10 8.33334C9.88042 8.33334 9.76831 8.31744 9.66368 8.28563C9.55904 8.25383 9.46188 8.19976 9.3722 8.12342L5.24664 4.61197C5.08221 4.47202 5 4.2939 5 4.07762C5 3.86133 5.08221 3.68322 5.24664 3.54327C5.41106 3.40332 5.62033 3.33334 5.87444 3.33334C6.12855 3.33334 6.33782 3.40332 6.50224 3.54327L10 6.52037L13.4978 3.54327C13.6622 3.40332 13.8714 3.33334 14.1256 3.33334C14.3797 3.33334 14.5889 3.40332 14.7534 3.54327C14.9178 3.68322 15 3.86133 15 4.07762C15 4.2939 14.9178 4.47202 14.7534 4.61197L10.6278 8.12342C10.5381 8.19976 10.441 8.25383 10.3363 8.28563C10.2317 8.31744 10.1196 8.33334 10 8.33334Z"/>
</mask>
<path d="M9.3722 8.12342L8.29194 9.3926L9.3722 8.12342ZM5.24664 4.61197L6.32689 3.34279L5.24664 4.61197ZM6.50224 3.54327L5.42198 4.81245L6.50224 3.54327ZM10 6.52037L8.91974 7.78955L10 8.709L11.0803 7.78955L10 6.52037ZM13.4978 3.54327L12.4175 2.27409L13.4978 3.54327ZM14.7534 4.61197L13.6731 3.34279L14.7534 4.61197ZM10.6278 8.12342L11.7081 9.3926L10.6278 8.12342ZM10 8.33334V6.66668C10.0294 6.66668 10.082 6.67081 10.1484 6.69101L9.66368 8.28563L9.17894 9.88025C9.45467 9.96407 9.73141 10 10 10V8.33334ZM9.66368 8.28563L10.1484 6.69101C10.2789 6.73069 10.3816 6.79394 10.4525 6.85424L9.3722 8.12342L8.29194 9.3926C8.54216 9.60557 8.83917 9.77697 9.17894 9.88025L9.66368 8.28563ZM9.3722 8.12342L10.4525 6.85424L6.32689 3.34279L5.24664 4.61197L4.16638 5.88115L8.29194 9.3926L9.3722 8.12342ZM5.24664 4.61197L6.32689 3.34279C6.40997 3.4135 6.50495 3.52338 6.57491 3.67496C6.64484 3.82646 6.66667 3.96954 6.66667 4.07762H5H3.33333C3.33333 4.78151 3.62918 5.42392 4.16638 5.88115L5.24664 4.61197ZM5 4.07762H6.66667C6.66667 4.1857 6.64484 4.32878 6.57491 4.48028C6.50495 4.63186 6.40997 4.74174 6.32689 4.81245L5.24664 3.54327L4.16638 2.27409C3.62918 2.73132 3.33333 3.37373 3.33333 4.07762H5ZM5.24664 3.54327L6.32689 4.81245C6.2432 4.88368 6.1484 4.93538 6.05544 4.96647C5.96606 4.99635 5.90032 5.00001 5.87444 5.00001V3.33334V1.66668C5.2981 1.66668 4.68395 1.83355 4.16638 2.27409L5.24664 3.54327ZM5.87444 3.33334V5.00001C5.84856 5.00001 5.78282 4.99635 5.69344 4.96647C5.60048 4.93538 5.50568 4.88368 5.42198 4.81245L6.50224 3.54327L7.5825 2.27409C7.06492 1.83355 6.45078 1.66668 5.87444 1.66668V3.33334ZM6.50224 3.54327L5.42198 4.81245L8.91974 7.78955L10 6.52037L11.0803 5.25119L7.5825 2.27409L6.50224 3.54327ZM10 6.52037L11.0803 7.78955L14.578 4.81245L13.4978 3.54327L12.4175 2.27409L8.91974 5.25119L10 6.52037ZM13.4978 3.54327L14.578 4.81245C14.4943 4.88368 14.3995 4.93538 14.3066 4.96647C14.2172 4.99635 14.1514 5.00001 14.1256 5.00001V3.33334V1.66668C13.5492 1.66668 12.9351 1.83355 12.4175 2.27409L13.4978 3.54327ZM14.1256 3.33334V5.00001C14.0997 5.00001 14.0339 4.99635 13.9446 4.96647C13.8516 4.93538 13.7568 4.88368 13.6731 4.81245L14.7534 3.54327L15.8336 2.27409C15.316 1.83355 14.7019 1.66668 14.1256 1.66668V3.33334ZM14.7534 3.54327L13.6731 4.81245C13.59 4.74174 13.4951 4.63186 13.4251 4.48028C13.3552 4.32878 13.3333 4.1857 13.3333 4.07762H15H16.6667C16.6667 3.37373 16.3708 2.73132 15.8336 2.27409L14.7534 3.54327ZM15 4.07762H13.3333C13.3333 3.96954 13.3552 3.82646 13.4251 3.67496C13.4951 3.52338 13.59 3.4135 13.6731 3.34279L14.7534 4.61197L15.8336 5.88115C16.3708 5.42392 16.6667 4.78151 16.6667 4.07762H15ZM14.7534 4.61197L13.6731 3.34279L9.54754 6.85424L10.6278 8.12342L11.7081 9.3926L15.8336 5.88115L14.7534 4.61197ZM10.6278 8.12342L9.54754 6.85424C9.61839 6.79394 9.72108 6.73069 9.85159 6.69101L10.3363 8.28563L10.8211 9.88025C11.1608 9.77697 11.4578 9.60557 11.7081 9.3926L10.6278 8.12342ZM10.3363 8.28563L9.85159 6.69101C9.91804 6.67081 9.97058 6.66668 10 6.66668V8.33334V10C10.2686 10 10.5453 9.96407 10.8211 9.88025L10.3363 8.28563Z" fill="#212121" mask="url(#path-2-inside-1_4066_775)"/>
<mask id="path-4-inside-2_4066_775" fill="white">
<path d="M10 11.6667C9.88042 11.6667 9.76831 11.6826 9.66368 11.7144C9.55904 11.7462 9.46188 11.8002 9.3722 11.8766L5.24664 15.388C5.08221 15.528 5 15.7061 5 15.9224C5 16.1387 5.08221 16.3168 5.24664 16.4567C5.41106 16.5967 5.62033 16.6667 5.87444 16.6667C6.12855 16.6667 6.33782 16.5967 6.50224 16.4567L10 13.4796L13.4978 16.4567C13.6622 16.5967 13.8714 16.6667 14.1256 16.6667C14.3797 16.6667 14.5889 16.5967 14.7534 16.4567C14.9178 16.3168 15 16.1387 15 15.9224C15 15.7061 14.9178 15.528 14.7534 15.388L10.6278 11.8766C10.5381 11.8002 10.441 11.7462 10.3363 11.7144C10.2317 11.6826 10.1196 11.6667 10 11.6667Z"/>
</mask>
<path d="M9.3722 11.8766L8.29194 10.6074L9.3722 11.8766ZM5.24664 15.388L6.32689 16.6572L5.24664 15.388ZM6.50224 16.4567L5.42198 15.1876L6.50224 16.4567ZM10 13.4796L8.91974 12.2105L10 11.291L11.0803 12.2105L10 13.4796ZM13.4978 16.4567L12.4175 17.7259L13.4978 16.4567ZM14.7534 15.388L13.6731 16.6572L14.7534 15.388ZM10.6278 11.8766L11.7081 10.6074L10.6278 11.8766ZM10 11.6667V13.3333C10.0294 13.3333 10.082 13.3292 10.1484 13.309L9.66368 11.7144L9.17894 10.1197C9.45467 10.0359 9.73141 9.99999 10 9.99999V11.6667ZM9.66368 11.7144L10.1484 13.309C10.2789 13.2693 10.3816 13.2061 10.4525 13.1458L9.3722 11.8766L8.29194 10.6074C8.54216 10.3944 8.83917 10.223 9.17894 10.1197L9.66368 11.7144ZM9.3722 11.8766L10.4525 13.1458L6.32689 16.6572L5.24664 15.388L4.16638 14.1188L8.29194 10.6074L9.3722 11.8766ZM5.24664 15.388L6.32689 16.6572C6.40997 16.5865 6.50495 16.4766 6.57491 16.325C6.64484 16.1735 6.66667 16.0305 6.66667 15.9224H5H3.33333C3.33333 15.2185 3.62918 14.5761 4.16638 14.1188L5.24664 15.388ZM5 15.9224H6.66667C6.66667 15.8143 6.64484 15.6712 6.57491 15.5197C6.50495 15.3681 6.40997 15.2583 6.32689 15.1876L5.24664 16.4567L4.16638 17.7259C3.62918 17.2687 3.33333 16.6263 3.33333 15.9224H5ZM5.24664 16.4567L6.32689 15.1876C6.2432 15.1163 6.1484 15.0646 6.05544 15.0335C5.96606 15.0036 5.90032 15 5.87444 15V16.6667V18.3333C5.2981 18.3333 4.68395 18.1664 4.16638 17.7259L5.24664 16.4567ZM5.87444 16.6667V15C5.84856 15 5.78282 15.0036 5.69344 15.0335C5.60048 15.0646 5.50568 15.1163 5.42198 15.1876L6.50224 16.4567L7.5825 17.7259C7.06492 18.1664 6.45078 18.3333 5.87444 18.3333V16.6667ZM6.50224 16.4567L5.42198 15.1876L8.91974 12.2105L10 13.4796L11.0803 14.7488L7.5825 17.7259L6.50224 16.4567ZM10 13.4796L11.0803 12.2105L14.578 15.1876L13.4978 16.4567L12.4175 17.7259L8.91974 14.7488L10 13.4796ZM13.4978 16.4567L14.578 15.1876C14.4943 15.1163 14.3995 15.0646 14.3066 15.0335C14.2172 15.0036 14.1514 15 14.1256 15V16.6667V18.3333C13.5492 18.3333 12.9351 18.1664 12.4175 17.7259L13.4978 16.4567ZM14.1256 16.6667V15C14.0997 15 14.0339 15.0036 13.9446 15.0335C13.8516 15.0646 13.7568 15.1163 13.6731 15.1876L14.7534 16.4567L15.8336 17.7259C15.316 18.1664 14.7019 18.3333 14.1256 18.3333V16.6667ZM14.7534 16.4567L13.6731 15.1876C13.59 15.2583 13.4951 15.3681 13.4251 15.5197C13.3552 15.6712 13.3333 15.8143 13.3333 15.9224H15H16.6667C16.6667 16.6263 16.3708 17.2687 15.8336 17.7259L14.7534 16.4567ZM15 15.9224H13.3333C13.3333 16.0305 13.3552 16.1735 13.4251 16.325C13.4951 16.4766 13.59 16.5865 13.6731 16.6572L14.7534 15.388L15.8336 14.1188C16.3708 14.5761 16.6667 15.2185 16.6667 15.9224H15ZM14.7534 15.388L13.6731 16.6572L9.54754 13.1458L10.6278 11.8766L11.7081 10.6074L15.8336 14.1188L14.7534 15.388ZM10.6278 11.8766L9.54754 13.1458C9.61839 13.2061 9.72108 13.2693 9.85159 13.309L10.3363 11.7144L10.8211 10.1197C11.1608 10.223 11.4578 10.3944 11.7081 10.6074L10.6278 11.8766ZM10.3363 11.7144L9.85159 13.309C9.91804 13.3292 9.97058 13.3333 10 13.3333V11.6667V9.99999C10.2686 9.99999 10.5453 10.0359 10.8211 10.1197L10.3363 11.7144Z" fill="#212121" mask="url(#path-4-inside-2_4066_775)"/>
</g>
</svg>
