<svg width="36" height="36" viewBox="0 0 36 36" fill="none" xmlns="http://www.w3.org/2000/svg">
<path d="M18 6.5235C21.738 6.5235 22.1813 6.5375 23.6583 6.60517C27.4523 6.77783 29.2245 8.578 29.3972 12.344C29.4648 13.8198 29.4777 14.2632 29.4777 18.0012C29.4777 21.7403 29.4637 22.1825 29.3972 23.6583C29.2233 27.4208 27.4558 29.2245 23.6583 29.3972C22.1813 29.4648 21.7403 29.4788 18 29.4788C14.262 29.4788 13.8187 29.4648 12.3428 29.3972C8.5395 29.2233 6.77667 27.415 6.604 23.6572C6.53633 22.1813 6.52233 21.7392 6.52233 18C6.52233 14.262 6.5375 13.8198 6.604 12.3428C6.77783 8.578 8.54533 6.77667 12.3428 6.604C13.8198 6.5375 14.262 6.5235 18 6.5235ZM18 4C14.1978 4 13.7218 4.01633 12.2285 4.084C7.14417 4.31733 4.3185 7.13833 4.08517 12.2273C4.01633 13.7218 4 14.1978 4 18C4 21.8022 4.01633 22.2793 4.084 23.7727C4.31733 28.857 7.13833 31.6827 12.2273 31.916C13.7218 31.9837 14.1978 32 18 32C21.8022 32 22.2793 31.9837 23.7727 31.916C28.8523 31.6827 31.685 28.8617 31.9148 23.7727C31.9837 22.2793 32 21.8022 32 18C32 14.1978 31.9837 13.7218 31.916 12.2285C31.6873 7.14883 28.8628 4.3185 23.7738 4.08517C22.2793 4.01633 21.8022 4 18 4ZM18 10.811C14.0298 10.811 10.811 14.0298 10.811 18C10.811 21.9702 14.0298 25.1902 18 25.1902C21.9702 25.1902 25.189 21.9713 25.189 18C25.189 14.0298 21.9702 10.811 18 10.811ZM18 22.6667C15.4228 22.6667 13.3333 20.5783 13.3333 18C13.3333 15.4228 15.4228 13.3333 18 13.3333C20.5772 13.3333 22.6667 15.4228 22.6667 18C22.6667 20.5783 20.5772 22.6667 18 22.6667ZM25.4737 8.8475C24.545 8.8475 23.7925 9.6 23.7925 10.5275C23.7925 11.455 24.545 12.2075 25.4737 12.2075C26.4012 12.2075 27.1525 11.455 27.1525 10.5275C27.1525 9.6 26.4012 8.8475 25.4737 8.8475Z" fill="#212121"/>
</svg>
