<svg width="16" height="16" viewBox="0 0 16 16" fill="none" xmlns="http://www.w3.org/2000/svg">
<g clip-path="url(#clip0_4066_914)">
<path d="M10.3384 1H8.09407V9.85506C8.09407 10.9102 7.23089 11.7768 6.15668 11.7768C5.08248 11.7768 4.21929 10.9102 4.21929 9.85506C4.21929 8.81885 5.0633 7.971 6.09915 7.93333V5.71015C3.81646 5.74782 1.97498 7.57536 1.97498 9.85506C1.97498 12.1536 3.85482 14 6.17587 14C8.49689 14 10.3767 12.1348 10.3767 9.85506V5.31448C11.2208 5.91739 12.2566 6.27536 13.35 6.29421V4.07102C11.662 4.01449 10.3384 2.65797 10.3384 1Z" fill="#212121"/>
</g>
<defs>
<clipPath id="clip0_4066_914">
<rect width="13" height="13" fill="white" transform="translate(1 1)"/>
</clipPath>
</defs>
</svg>
