<svg width="36" height="36" viewBox="0 0 36 36" fill="none" xmlns="http://www.w3.org/2000/svg">
<mask id="mask0_4066_273" style="mask-type:alpha" maskUnits="userSpaceOnUse" x="0" y="0" width="36" height="36">
<rect width="36" height="36" fill="#D9D9D9"/>
</mask>
<g mask="url(#mask0_4066_273)">
<path d="M12 13.5C11.575 13.5 11.2187 13.3562 10.9312 13.0687C10.6437 12.7812 10.5 12.425 10.5 12C10.5 11.575 10.6437 11.2187 10.9312 10.9312C11.2187 10.6437 11.575 10.5 12 10.5H30C30.425 10.5 30.7812 10.6437 31.0687 10.9312C31.3562 11.2187 31.5 11.575 31.5 12C31.5 12.425 31.3562 12.7812 31.0687 13.0687C30.7812 13.3562 30.425 13.5 30 13.5H12ZM12 19.5C11.575 19.5 11.2187 19.3563 10.9312 19.0688C10.6437 18.7813 10.5 18.425 10.5 18C10.5 17.575 10.6437 17.2187 10.9312 16.9312C11.2187 16.6437 11.575 16.5 12 16.5H30C30.425 16.5 30.7812 16.6437 31.0687 16.9312C31.3562 17.2187 31.5 17.575 31.5 18C31.5 18.425 31.3562 18.7813 31.0687 19.0688C30.7812 19.3563 30.425 19.5 30 19.5H12ZM12 25.5C11.575 25.5 11.2187 25.3563 10.9312 25.0688C10.6437 24.7813 10.5 24.425 10.5 24C10.5 23.575 10.6437 23.2188 10.9312 22.9313C11.2187 22.6438 11.575 22.5 12 22.5H30C30.425 22.5 30.7812 22.6438 31.0687 22.9313C31.3562 23.2188 31.5 23.575 31.5 24C31.5 24.425 31.3562 24.7813 31.0687 25.0688C30.7812 25.3563 30.425 25.5 30 25.5H12ZM6 13.5C5.575 13.5 5.21875 13.3562 4.93125 13.0687C4.64375 12.7812 4.5 12.425 4.5 12C4.5 11.575 4.64375 11.2187 4.93125 10.9312C5.21875 10.6437 5.575 10.5 6 10.5C6.425 10.5 6.78125 10.6437 7.06875 10.9312C7.35625 11.2187 7.5 11.575 7.5 12C7.5 12.425 7.35625 12.7812 7.06875 13.0687C6.78125 13.3562 6.425 13.5 6 13.5ZM6 19.5C5.575 19.5 5.21875 19.3563 4.93125 19.0688C4.64375 18.7813 4.5 18.425 4.5 18C4.5 17.575 4.64375 17.2187 4.93125 16.9312C5.21875 16.6437 5.575 16.5 6 16.5C6.425 16.5 6.78125 16.6437 7.06875 16.9312C7.35625 17.2187 7.5 17.575 7.5 18C7.5 18.425 7.35625 18.7813 7.06875 19.0688C6.78125 19.3563 6.425 19.5 6 19.5ZM6 25.5C5.575 25.5 5.21875 25.3563 4.93125 25.0688C4.64375 24.7813 4.5 24.425 4.5 24C4.5 23.575 4.64375 23.2188 4.93125 22.9313C5.21875 22.6438 5.575 22.5 6 22.5C6.425 22.5 6.78125 22.6438 7.06875 22.9313C7.35625 23.2188 7.5 23.575 7.5 24C7.5 24.425 7.35625 24.7813 7.06875 25.0688C6.78125 25.3563 6.425 25.5 6 25.5Z" fill="#212121"/>
</g>
</svg>
