<svg width="20" height="20" viewBox="0 0 20 20" fill="none" xmlns="http://www.w3.org/2000/svg">
<mask id="mask0_4066_774" style="mask-type:alpha" maskUnits="userSpaceOnUse" x="0" y="0" width="20" height="20">
<rect width="20" height="20" fill="#D9D9D9"/>
</mask>
<g mask="url(#mask0_4066_774)">
<mask id="path-2-inside-1_4066_774" fill="white">
<path d="M10 3.33334C9.88042 3.33334 9.76831 3.34925 9.66368 3.38105C9.55904 3.41286 9.46188 3.46693 9.3722 3.54327L5.24664 7.05472C5.08221 7.19467 5 7.37278 5 7.58907C5 7.80535 5.08221 7.98347 5.24664 8.12342C5.41106 8.26337 5.62033 8.33334 5.87444 8.33334C6.12855 8.33334 6.33782 8.26337 6.50224 8.12342L10 5.14632L13.4978 8.12342C13.6622 8.26337 13.8714 8.33334 14.1256 8.33334C14.3797 8.33334 14.5889 8.26337 14.7534 8.12342C14.9178 7.98347 15 7.80535 15 7.58907C15 7.37278 14.9178 7.19467 14.7534 7.05472L10.6278 3.54327C10.5381 3.46693 10.441 3.41286 10.3363 3.38105C10.2317 3.34925 10.1196 3.33334 10 3.33334Z"/>
</mask>
<path d="M9.3722 3.54327L8.29194 2.27409L9.3722 3.54327ZM5.24664 7.05472L6.32689 8.3239L5.24664 7.05472ZM6.50224 8.12342L5.42198 6.85424L6.50224 8.12342ZM10 5.14632L8.91974 3.87714L10 2.95768L11.0803 3.87714L10 5.14632ZM13.4978 8.12342L12.4175 9.3926L13.4978 8.12342ZM14.7534 7.05472L13.6731 8.3239L14.7534 7.05472ZM10.6278 3.54327L11.7081 2.27409L10.6278 3.54327ZM10 3.33334V5.00001C10.0294 5.00001 10.082 4.99587 10.1484 4.97567L9.66368 3.38105L9.17894 1.78643C9.45467 1.70262 9.73141 1.66668 10 1.66668V3.33334ZM9.66368 3.38105L10.1484 4.97567C10.2789 4.936 10.3816 4.87275 10.4525 4.81245L9.3722 3.54327L8.29194 2.27409C8.54216 2.06112 8.83917 1.88972 9.17894 1.78643L9.66368 3.38105ZM9.3722 3.54327L10.4525 4.81245L6.32689 8.3239L5.24664 7.05472L4.16638 5.78554L8.29194 2.27409L9.3722 3.54327ZM5.24664 7.05472L6.32689 8.3239C6.40997 8.25319 6.50495 8.14331 6.57491 7.99173C6.64484 7.84023 6.66667 7.69715 6.66667 7.58907H5H3.33333C3.33333 6.88518 3.62918 6.24277 4.16638 5.78554L5.24664 7.05472ZM5 7.58907H6.66667C6.66667 7.48099 6.64484 7.33791 6.57491 7.18641C6.50495 7.03483 6.40997 6.92495 6.32689 6.85424L5.24664 8.12342L4.16638 9.3926C3.62918 8.93537 3.33333 8.29296 3.33333 7.58907H5ZM5.24664 8.12342L6.32689 6.85424C6.2432 6.78301 6.1484 6.73131 6.05544 6.70022C5.96606 6.67033 5.90032 6.66668 5.87444 6.66668V8.33334V10C5.2981 10 4.68395 9.83313 4.16638 9.3926L5.24664 8.12342ZM5.87444 8.33334V6.66668C5.84856 6.66668 5.78282 6.67033 5.69344 6.70022C5.60048 6.73131 5.50568 6.78301 5.42198 6.85424L6.50224 8.12342L7.5825 9.3926C7.06492 9.83313 6.45078 10 5.87444 10V8.33334ZM6.50224 8.12342L5.42198 6.85424L8.91974 3.87714L10 5.14632L11.0803 6.4155L7.5825 9.3926L6.50224 8.12342ZM10 5.14632L11.0803 3.87714L14.578 6.85424L13.4978 8.12342L12.4175 9.3926L8.91974 6.4155L10 5.14632ZM13.4978 8.12342L14.578 6.85424C14.4943 6.78301 14.3995 6.73131 14.3066 6.70022C14.2172 6.67033 14.1514 6.66668 14.1256 6.66668V8.33334V10C13.5492 10 12.9351 9.83313 12.4175 9.3926L13.4978 8.12342ZM14.1256 8.33334V6.66668C14.0997 6.66668 14.0339 6.67033 13.9446 6.70022C13.8516 6.73131 13.7568 6.78301 13.6731 6.85424L14.7534 8.12342L15.8336 9.3926C15.316 9.83313 14.7019 10 14.1256 10V8.33334ZM14.7534 8.12342L13.6731 6.85424C13.59 6.92495 13.4951 7.03483 13.4251 7.18641C13.3552 7.33791 13.3333 7.48099 13.3333 7.58907H15H16.6667C16.6667 8.29296 16.3708 8.93537 15.8336 9.3926L14.7534 8.12342ZM15 7.58907H13.3333C13.3333 7.69715 13.3552 7.84023 13.4251 7.99173C13.4951 8.14331 13.59 8.25319 13.6731 8.3239L14.7534 7.05472L15.8336 5.78554C16.3708 6.24277 16.6667 6.88518 16.6667 7.58907H15ZM14.7534 7.05472L13.6731 8.3239L9.54754 4.81245L10.6278 3.54327L11.7081 2.27409L15.8336 5.78554L14.7534 7.05472ZM10.6278 3.54327L9.54754 4.81245C9.61839 4.87275 9.72108 4.936 9.85159 4.97567L10.3363 3.38105L10.8211 1.78643C11.1608 1.88972 11.4578 2.06112 11.7081 2.27409L10.6278 3.54327ZM10.3363 3.38105L9.85159 4.97567C9.91804 4.99587 9.97058 5.00001 10 5.00001V3.33334V1.66668C10.2686 1.66668 10.5453 1.70262 10.8211 1.78643L10.3363 3.38105Z" fill="#212121" mask="url(#path-2-inside-1_4066_774)"/>
<mask id="path-4-inside-2_4066_774" fill="white">
<path d="M10 16.6667C9.88042 16.6667 9.76831 16.6508 9.66368 16.6189C9.55904 16.5871 9.46188 16.5331 9.3722 16.4567L5.24664 12.9453C5.08221 12.8053 5 12.6272 5 12.4109C5 12.1946 5.08221 12.0165 5.24664 11.8766C5.41106 11.7366 5.62033 11.6667 5.87444 11.6667C6.12855 11.6667 6.33782 11.7366 6.50224 11.8766L10 14.8537L13.4978 11.8766C13.6622 11.7366 13.8714 11.6667 14.1256 11.6667C14.3797 11.6667 14.5889 11.7366 14.7534 11.8766C14.9178 12.0165 15 12.1946 15 12.4109C15 12.6272 14.9178 12.8053 14.7534 12.9453L10.6278 16.4567C10.5381 16.5331 10.441 16.5871 10.3363 16.6189C10.2317 16.6508 10.1196 16.6667 10 16.6667Z"/>
</mask>
<path d="M9.3722 16.4567L8.29194 17.7259L9.3722 16.4567ZM5.24664 12.9453L6.32689 11.6761L5.24664 12.9453ZM6.50224 11.8766L5.42198 13.1458L6.50224 11.8766ZM10 14.8537L8.91974 16.1229L10 17.0423L11.0803 16.1229L10 14.8537ZM13.4978 11.8766L12.4175 10.6074L13.4978 11.8766ZM14.7534 12.9453L13.6731 11.6761L14.7534 12.9453ZM10.6278 16.4567L11.7081 17.7259L10.6278 16.4567ZM10 16.6667V15C10.0294 15 10.082 15.0041 10.1484 15.0243L9.66368 16.6189L9.17894 18.2136C9.45467 18.2974 9.73141 18.3333 10 18.3333V16.6667ZM9.66368 16.6189L10.1484 15.0243C10.2789 15.064 10.3816 15.1273 10.4525 15.1876L9.3722 16.4567L8.29194 17.7259C8.54216 17.9389 8.83917 18.1103 9.17894 18.2136L9.66368 16.6189ZM9.3722 16.4567L10.4525 15.1876L6.32689 11.6761L5.24664 12.9453L4.16638 14.2145L8.29194 17.7259L9.3722 16.4567ZM5.24664 12.9453L6.32689 11.6761C6.40997 11.7468 6.50495 11.8567 6.57491 12.0083C6.64484 12.1598 6.66667 12.3029 6.66667 12.4109H5H3.33333C3.33333 13.1148 3.62918 13.7572 4.16638 14.2145L5.24664 12.9453ZM5 12.4109H6.66667C6.66667 12.519 6.64484 12.6621 6.57491 12.8136C6.50495 12.9652 6.40997 13.0751 6.32689 13.1458L5.24664 11.8766L4.16638 10.6074C3.62918 11.0646 3.33333 11.707 3.33333 12.4109H5ZM5.24664 11.8766L6.32689 13.1458C6.2432 13.217 6.1484 13.2687 6.05544 13.2998C5.96606 13.3297 5.90032 13.3333 5.87444 13.3333V11.6667V9.99999C5.2981 9.99999 4.68395 10.1669 4.16638 10.6074L5.24664 11.8766ZM5.87444 11.6667V13.3333C5.84856 13.3333 5.78282 13.3297 5.69344 13.2998C5.60048 13.2687 5.50568 13.217 5.42198 13.1458L6.50224 11.8766L7.5825 10.6074C7.06492 10.1669 6.45078 9.99999 5.87444 9.99999V11.6667ZM6.50224 11.8766L5.42198 13.1458L8.91974 16.1229L10 14.8537L11.0803 13.5845L7.5825 10.6074L6.50224 11.8766ZM10 14.8537L11.0803 16.1229L14.578 13.1458L13.4978 11.8766L12.4175 10.6074L8.91974 13.5845L10 14.8537ZM13.4978 11.8766L14.578 13.1458C14.4943 13.217 14.3995 13.2687 14.3066 13.2998C14.2172 13.3297 14.1514 13.3333 14.1256 13.3333V11.6667V9.99999C13.5492 9.99999 12.9351 10.1669 12.4175 10.6074L13.4978 11.8766ZM14.1256 11.6667V13.3333C14.0997 13.3333 14.0339 13.3297 13.9446 13.2998C13.8516 13.2687 13.7568 13.217 13.6731 13.1458L14.7534 11.8766L15.8336 10.6074C15.316 10.1669 14.7019 9.99999 14.1256 9.99999V11.6667ZM14.7534 11.8766L13.6731 13.1458C13.59 13.0751 13.4951 12.9652 13.4251 12.8136C13.3552 12.6621 13.3333 12.519 13.3333 12.4109H15H16.6667C16.6667 11.707 16.3708 11.0646 15.8336 10.6074L14.7534 11.8766ZM15 12.4109H13.3333C13.3333 12.3029 13.3552 12.1598 13.4251 12.0083C13.4951 11.8567 13.59 11.7468 13.6731 11.6761L14.7534 12.9453L15.8336 14.2145C16.3708 13.7572 16.6667 13.1148 16.6667 12.4109H15ZM14.7534 12.9453L13.6731 11.6761L9.54754 15.1876L10.6278 16.4567L11.7081 17.7259L15.8336 14.2145L14.7534 12.9453ZM10.6278 16.4567L9.54754 15.1876C9.61839 15.1273 9.72108 15.064 9.85159 15.0243L10.3363 16.6189L10.8211 18.2136C11.1608 18.1103 11.4578 17.9389 11.7081 17.7259L10.6278 16.4567ZM10.3363 16.6189L9.85159 15.0243C9.91804 15.0041 9.97058 15 10 15V16.6667V18.3333C10.2686 18.3333 10.5453 18.2974 10.8211 18.2136L10.3363 16.6189Z" fill="#212121" mask="url(#path-4-inside-2_4066_774)"/>
</g>
</svg>
