<svg width="16" height="16" viewBox="0 0 16 16" fill="none" xmlns="http://www.w3.org/2000/svg">
<mask id="mask0_4066_942" style="mask-type:alpha" maskUnits="userSpaceOnUse" x="0" y="0" width="16" height="16">
<rect width="16" height="16" fill="#D9D9D9"/>
</mask>
<g mask="url(#mask0_4066_942)">
<path d="M4.99996 7.33332C4.35551 7.33332 3.80551 7.10555 3.34996 6.64999C2.8944 6.19443 2.66663 5.64443 2.66663 4.99999C2.66663 4.35555 2.8944 3.80555 3.34996 3.34999C3.80551 2.89443 4.35551 2.66666 4.99996 2.66666C5.6444 2.66666 6.1944 2.89443 6.64996 3.34999C7.10551 3.80555 7.33329 4.35555 7.33329 4.99999C7.33329 5.64443 7.10551 6.19443 6.64996 6.64999C6.1944 7.10555 5.6444 7.33332 4.99996 7.33332ZM4.99996 5.99999C5.27774 5.99999 5.51385 5.90277 5.70829 5.70832C5.90274 5.51388 5.99996 5.27777 5.99996 4.99999C5.99996 4.72221 5.90274 4.4861 5.70829 4.29166C5.51385 4.09721 5.27774 3.99999 4.99996 3.99999C4.72218 3.99999 4.48607 4.09721 4.29163 4.29166C4.09718 4.4861 3.99996 4.72221 3.99996 4.99999C3.99996 5.27777 4.09718 5.51388 4.29163 5.70832C4.48607 5.90277 4.72218 5.99999 4.99996 5.99999ZM11 13.3333C10.3555 13.3333 9.80551 13.1055 9.34996 12.65C8.8944 12.1944 8.66663 11.6444 8.66663 11C8.66663 10.3555 8.8944 9.80555 9.34996 9.34999C9.80551 8.89443 10.3555 8.66666 11 8.66666C11.6444 8.66666 12.1944 8.89443 12.65 9.34999C13.1055 9.80555 13.3333 10.3555 13.3333 11C13.3333 11.6444 13.1055 12.1944 12.65 12.65C12.1944 13.1055 11.6444 13.3333 11 13.3333ZM11 12C11.2777 12 11.5138 11.9028 11.7083 11.7083C11.9027 11.5139 12 11.2778 12 11C12 10.7222 11.9027 10.4861 11.7083 10.2917C11.5138 10.0972 11.2777 9.99999 11 9.99999C10.7222 9.99999 10.4861 10.0972 10.2916 10.2917C10.0972 10.4861 9.99996 10.7222 9.99996 11C9.99996 11.2778 10.0972 11.5139 10.2916 11.7083C10.4861 11.9028 10.7222 12 11 12ZM3.13329 12.8667C3.01107 12.7444 2.94996 12.5889 2.94996 12.4C2.94996 12.2111 3.01107 12.0555 3.13329 11.9333L11.9333 3.13332C12.0555 3.0111 12.2111 2.94999 12.4 2.94999C12.5888 2.94999 12.7444 3.0111 12.8666 3.13332C12.9888 3.25555 13.05 3.4111 13.05 3.59999C13.05 3.78888 12.9888 3.94443 12.8666 4.06666L4.06663 12.8667C3.9444 12.9889 3.78885 13.05 3.59996 13.05C3.41107 13.05 3.25551 12.9889 3.13329 12.8667Z" fill="#212121"/>
</g>
</svg>
