<svg width="36" height="36" viewBox="0 0 36 36" fill="none" xmlns="http://www.w3.org/2000/svg">
<path d="M10.8008 29.9996H4.80078V11.9996H10.8008V29.9996ZM7.80198 9.59961C6.14238 9.59961 4.80078 8.25441 4.80078 6.59841C4.80078 4.94241 6.14478 3.59961 7.80198 3.59961C9.45558 3.59961 10.8008 4.94481 10.8008 6.59841C10.8008 8.25441 9.45558 9.59961 7.80198 9.59961ZM32.4008 29.9996H26.6324V21.2396C26.6324 19.1504 26.5928 16.4636 23.6336 16.4636C20.63 16.4636 20.168 18.7388 20.168 21.0884V29.9996H14.4008V11.9864H19.9376V14.4476H20.0156C20.786 13.0316 22.6688 11.5388 25.4768 11.5388C31.3208 11.5388 32.4008 15.2696 32.4008 20.12C32.4008 20.12 32.4008 29.9996 32.4008 29.9996Z" fill="#212121"/>
</svg>
