<svg width="16" height="16" viewBox="0 0 16 16" fill="none" xmlns="http://www.w3.org/2000/svg">
<mask id="mask0_4066_924" style="mask-type:alpha" maskUnits="userSpaceOnUse" x="0" y="0" width="16" height="16">
<rect width="16" height="16" fill="#D9D9D9"/>
</mask>
<g mask="url(#mask0_4066_924)">
<mask id="path-2-inside-1_4066_924" fill="white">
<path d="M8 2.66666C7.90433 2.66666 7.81465 2.67938 7.73094 2.70482C7.64723 2.73027 7.56951 2.77353 7.49776 2.8346L4.19731 5.64376C4.06577 5.75571 4 5.89821 4 6.07124C4 6.24426 4.06577 6.38676 4.19731 6.49872C4.32885 6.61068 4.49626 6.66666 4.69955 6.66666C4.90284 6.66666 5.07025 6.61068 5.20179 6.49872L8 4.11704L10.7982 6.49872C10.9297 6.61068 11.0972 6.66666 11.3004 6.66666C11.5037 6.66666 11.6712 6.61068 11.8027 6.49872C11.9342 6.38676 12 6.24426 12 6.07124C12 5.89821 11.9342 5.75571 11.8027 5.64376L8.50224 2.8346C8.43049 2.77353 8.35277 2.73027 8.26906 2.70482C8.18535 2.67938 8.09567 2.66666 8 2.66666Z"/>
</mask>
<path d="M7.49776 2.8346L6.63355 1.81925L7.49776 2.8346ZM4.19731 5.64376L5.06152 6.6591L4.19731 5.64376ZM5.20179 6.49872L4.33759 5.48337L4.33759 5.48337L5.20179 6.49872ZM8 4.11704L7.13579 3.10169L8 2.36613L8.86421 3.10169L8 4.11704ZM10.7982 6.49872L9.934 7.51406V7.51406L10.7982 6.49872ZM11.8027 5.64376L10.9385 6.6591L11.8027 5.64376ZM8.50224 2.8346L9.36645 1.81925L8.50224 2.8346ZM8 2.66666V3.99999C8.02354 3.99999 8.06556 3.99668 8.11873 3.98052L7.73094 2.70482L7.34316 1.42913C7.56373 1.36208 7.78513 1.33332 8 1.33332V2.66666ZM7.73094 2.70482L8.11873 3.98052C8.22314 3.94878 8.30529 3.89818 8.36196 3.84994L7.49776 2.8346L6.63355 1.81925C6.83372 1.64887 7.07133 1.51176 7.34316 1.42913L7.73094 2.70482ZM7.49776 2.8346L8.36196 3.84994L5.06152 6.6591L4.19731 5.64376L3.3331 4.62841L6.63355 1.81925L7.49776 2.8346ZM4.19731 5.64376L5.06152 6.6591C5.12798 6.60253 5.20396 6.51463 5.25993 6.39336C5.31587 6.27216 5.33333 6.1577 5.33333 6.07124H4H2.66667C2.66667 5.50813 2.90335 4.9942 3.3331 4.62841L4.19731 5.64376ZM4 6.07124H5.33333C5.33333 5.98477 5.31587 5.87031 5.25993 5.74911C5.20396 5.62785 5.12798 5.53994 5.06152 5.48337L4.19731 6.49872L3.3331 7.51406C2.90335 7.14828 2.66667 6.63435 2.66667 6.07124H4ZM4.19731 6.49872L5.06152 5.48337C4.99456 5.42639 4.91872 5.38503 4.84435 5.36016C4.77285 5.33625 4.72025 5.33332 4.69955 5.33332V6.66666V7.99999C4.23848 7.99999 3.74716 7.86649 3.3331 7.51406L4.19731 6.49872ZM4.69955 6.66666V5.33332C4.67885 5.33332 4.62626 5.33625 4.55475 5.36016C4.48038 5.38503 4.40454 5.42639 4.33759 5.48337L5.20179 6.49872L6.066 7.51406C5.65194 7.86649 5.16062 7.99999 4.69955 7.99999V6.66666ZM5.20179 6.49872L4.33759 5.48337L7.13579 3.10169L8 4.11704L8.86421 5.13238L6.066 7.51406L5.20179 6.49872ZM8 4.11704L8.86421 3.10169L11.6624 5.48337L10.7982 6.49872L9.934 7.51406L7.13579 5.13238L8 4.11704ZM10.7982 6.49872L11.6624 5.48337C11.5955 5.42639 11.5196 5.38503 11.4452 5.36016C11.3737 5.33625 11.3212 5.33332 11.3004 5.33332V6.66666V7.99999C10.8394 7.99999 10.3481 7.86649 9.934 7.51406L10.7982 6.49872ZM11.3004 6.66666V5.33332C11.2797 5.33332 11.2272 5.33625 11.1556 5.36016C11.0813 5.38503 11.0054 5.42639 10.9385 5.48337L11.8027 6.49872L12.6669 7.51406C12.2528 7.86649 11.7615 7.99999 11.3004 7.99999V6.66666ZM11.8027 6.49872L10.9385 5.48337C10.872 5.53994 10.796 5.62785 10.7401 5.74911C10.6841 5.87031 10.6667 5.98477 10.6667 6.07124H12H13.3333C13.3333 6.63435 13.0967 7.14828 12.6669 7.51406L11.8027 6.49872ZM12 6.07124H10.6667C10.6667 6.1577 10.6841 6.27216 10.7401 6.39337C10.796 6.51463 10.872 6.60253 10.9385 6.6591L11.8027 5.64376L12.6669 4.62841C13.0967 4.99419 13.3333 5.50812 13.3333 6.07124H12ZM11.8027 5.64376L10.9385 6.6591L7.63804 3.84994L8.50224 2.8346L9.36645 1.81925L12.6669 4.62841L11.8027 5.64376ZM8.50224 2.8346L7.63804 3.84994C7.69471 3.89818 7.77686 3.94878 7.88127 3.98052L8.26906 2.70482L8.65684 1.42913C8.92867 1.51176 9.16628 1.64888 9.36645 1.81925L8.50224 2.8346ZM8.26906 2.70482L7.88127 3.98052C7.93444 3.99668 7.97646 3.99999 8 3.99999V2.66666V1.33332C8.21487 1.33332 8.43627 1.36208 8.65684 1.42913L8.26906 2.70482Z" fill="#212121" mask="url(#path-2-inside-1_4066_924)"/>
<mask id="path-4-inside-2_4066_924" fill="white">
<path d="M8 13.3333C7.90433 13.3333 7.81465 13.3206 7.73094 13.2952C7.64723 13.2697 7.56951 13.2265 7.49776 13.1654L4.19731 10.3562C4.06577 10.2443 4 10.1018 4 9.92876C4 9.75574 4.06577 9.61324 4.19731 9.50128C4.32885 9.38932 4.49626 9.33334 4.69955 9.33334C4.90284 9.33334 5.07025 9.38932 5.20179 9.50128L8 11.883L10.7982 9.50128C10.9297 9.38932 11.0972 9.33334 11.3004 9.33334C11.5037 9.33334 11.6712 9.38932 11.8027 9.50128C11.9342 9.61324 12 9.75574 12 9.92876C12 10.1018 11.9342 10.2443 11.8027 10.3562L8.50224 13.1654C8.43049 13.2265 8.35277 13.2697 8.26906 13.2952C8.18535 13.3206 8.09567 13.3333 8 13.3333Z"/>
</mask>
<path d="M7.49776 13.1654L6.63355 14.1807L7.49776 13.1654ZM4.19731 10.3562L5.06152 9.3409L4.19731 10.3562ZM5.20179 9.50128L4.33759 10.5166L4.33759 10.5166L5.20179 9.50128ZM8 11.883L7.13579 12.8983L8 13.6339L8.86421 12.8983L8 11.883ZM10.7982 9.50128L9.934 8.48594V8.48594L10.7982 9.50128ZM11.8027 10.3562L10.9385 9.3409L11.8027 10.3562ZM8.50224 13.1654L9.36645 14.1807L8.50224 13.1654ZM8 13.3333V12C8.02354 12 8.06556 12.0033 8.11873 12.0195L7.73094 13.2952L7.34316 14.5709C7.56373 14.6379 7.78513 14.6667 8 14.6667V13.3333ZM7.73094 13.2952L8.11873 12.0195C8.22314 12.0512 8.30529 12.1018 8.36196 12.1501L7.49776 13.1654L6.63355 14.1807C6.83372 14.3511 7.07133 14.4882 7.34316 14.5709L7.73094 13.2952ZM7.49776 13.1654L8.36196 12.1501L5.06152 9.3409L4.19731 10.3562L3.3331 11.3716L6.63355 14.1807L7.49776 13.1654ZM4.19731 10.3562L5.06152 9.3409C5.12798 9.39747 5.20396 9.48537 5.25993 9.60664C5.31587 9.72784 5.33333 9.8423 5.33333 9.92876H4H2.66667C2.66667 10.4919 2.90335 11.0058 3.3331 11.3716L4.19731 10.3562ZM4 9.92876H5.33333C5.33333 10.0152 5.31587 10.1297 5.25993 10.2509C5.20396 10.3722 5.12798 10.4601 5.06152 10.5166L4.19731 9.50128L3.3331 8.48594C2.90335 8.85172 2.66667 9.36565 2.66667 9.92876H4ZM4.19731 9.50128L5.06152 10.5166C4.99456 10.5736 4.91872 10.615 4.84435 10.6398C4.77285 10.6638 4.72025 10.6667 4.69955 10.6667V9.33334V8.00001C4.23848 8.00001 3.74716 8.13351 3.3331 8.48594L4.19731 9.50128ZM4.69955 9.33334V10.6667C4.67885 10.6667 4.62626 10.6638 4.55475 10.6398C4.48038 10.615 4.40454 10.5736 4.33759 10.5166L5.20179 9.50128L6.066 8.48594C5.65194 8.13351 5.16062 8.00001 4.69955 8.00001V9.33334ZM5.20179 9.50128L4.33759 10.5166L7.13579 12.8983L8 11.883L8.86421 10.8676L6.066 8.48594L5.20179 9.50128ZM8 11.883L8.86421 12.8983L11.6624 10.5166L10.7982 9.50128L9.934 8.48594L7.13579 10.8676L8 11.883ZM10.7982 9.50128L11.6624 10.5166C11.5955 10.5736 11.5196 10.615 11.4452 10.6398C11.3737 10.6638 11.3212 10.6667 11.3004 10.6667V9.33334V8.00001C10.8394 8.00001 10.3481 8.13351 9.934 8.48594L10.7982 9.50128ZM11.3004 9.33334V10.6667C11.2797 10.6667 11.2272 10.6638 11.1556 10.6398C11.0813 10.615 11.0054 10.5736 10.9385 10.5166L11.8027 9.50128L12.6669 8.48594C12.2528 8.13351 11.7615 8.00001 11.3004 8.00001V9.33334ZM11.8027 9.50128L10.9385 10.5166C10.872 10.4601 10.796 10.3722 10.7401 10.2509C10.6841 10.1297 10.6667 10.0152 10.6667 9.92876H12H13.3333C13.3333 9.36565 13.0967 8.85172 12.6669 8.48594L11.8027 9.50128ZM12 9.92876H10.6667C10.6667 9.8423 10.6841 9.72784 10.7401 9.60663C10.796 9.48537 10.872 9.39747 10.9385 9.3409L11.8027 10.3562L12.6669 11.3716C13.0967 11.0058 13.3333 10.4919 13.3333 9.92876H12ZM11.8027 10.3562L10.9385 9.3409L7.63804 12.1501L8.50224 13.1654L9.36645 14.1807L12.6669 11.3716L11.8027 10.3562ZM8.50224 13.1654L7.63804 12.1501C7.69471 12.1018 7.77686 12.0512 7.88127 12.0195L8.26906 13.2952L8.65684 14.5709C8.92867 14.4882 9.16628 14.3511 9.36645 14.1807L8.50224 13.1654ZM8.26906 13.2952L7.88127 12.0195C7.93444 12.0033 7.97646 12 8 12V13.3333V14.6667C8.21487 14.6667 8.43627 14.6379 8.65684 14.5709L8.26906 13.2952Z" fill="#212121" mask="url(#path-4-inside-2_4066_924)"/>
</g>
</svg>
